<?xml version="1.0" encoding="utf-8"?>
<!-- Generator: Adobe Illustrator 26.0.1, SVG Export Plug-In . SVG Version: 6.00 Build 0)  -->
<svg version="1.1" id="Layer_1" xmlns="http://www.w3.org/2000/svg" xmlns:xlink="http://www.w3.org/1999/xlink" x="0px" y="0px"
	 viewBox="0 0 248 200" style="enable-background:new 0 0 248 200;" xml:space="preserve">
<style type="text/css">
	.st0{fill:url(#Caminho_18_00000075851452724916043390000004663507521156926140_);}
	.st1{fill:#BF1E2D;}
	.st2{fill:url(#Caminho_22_00000086686075937381171690000010867277767274906044_);}
	.st3{fill:url(#Caminho_23_00000002344393094563307530000014536776912715773088_);}
	.st4{fill:url(#Caminho_24_00000133530405220632008370000012422448164184687799_);}
	.st5{fill:url(#Caminho_25_00000178194833948311858920000012241579492857945250_);}
	.st6{fill:url(#Caminho_26_00000083072631823099797370000008706376357368949679_);}
	.st7{fill:url(#Caminho_27_00000123418556963447873640000001473995527246123931_);}
</style>
<g id="Grupo_33" transform="translate(-898.281 -216.268)">
	<g id="Grupo_30">
		
			<linearGradient id="Caminho_18_00000013178537948944929480000012927979362046941064_" gradientUnits="userSpaceOnUse" x1="923.5018" y1="415.8023" x2="924.1296" y2="415.8023" gradientTransform="matrix(132.1097 0 0 -154.233 -121135.3594 64478.1875)">
			<stop  offset="0" style="stop-color:#901E21"/>
			<stop  offset="0.294" style="stop-color:#BA1214"/>
			<stop  offset="0.599" style="stop-color:#DF0809"/>
			<stop  offset="0.845" style="stop-color:#F60202"/>
			<stop  offset="1" style="stop-color:#FF0000"/>
		</linearGradient>
		<path id="Caminho_18" style="fill:url(#Caminho_18_00000013178537948944929480000012927979362046941064_);" d="M1011.4,311.5
			c2.7,1,4.7,4.2,7,6.3c-36.9,7.9-49.1,43.8-58.4,66.1c-9-12.6,0.8-24.8,7.7-36.7C977.3,331.2,989.3,316.4,1011.4,311.5z"/>
		<path id="Caminho_19" class="st1" d="M1020.4,334.9c-3.1,6-15.1,9.2-15.2,16.1c-1.5-0.9-3-1.6-4.1-3.6
			C1005.6,342.7,1012.8,337.2,1020.4,334.9z"/>
		<path id="Caminho_20" class="st1" d="M1017.8,354.3c-0.2,1.8-0.8,3.5,1,5.9c-19.8-5.2,5.3-18.6,12-26
			C1050,333.6,1023,348.6,1017.8,354.3z"/>
		<path id="Caminho_21" class="st1" d="M1100.7,314.9c1.2,2.2,2.9,2.8,4.1,5c-2.6-1.1-6.7,2.6-9.4,1.4
			C1094.3,318.3,1098.8,316.9,1100.7,314.9z"/>
		
			<radialGradient id="Caminho_22_00000179611031330369005140000012488360606768527284_" cx="923.7408" cy="416.2169" r="0.2174" gradientTransform="matrix(342.0451 -193.2926 -193.882 -342.9764 -234328.5625 321602.1875)" gradientUnits="userSpaceOnUse">
			<stop  offset="0" style="stop-color:#FF0000"/>
			<stop  offset="0.185" style="stop-color:#F80101"/>
			<stop  offset="0.449" style="stop-color:#E50607"/>
			<stop  offset="0.759" style="stop-color:#C60F10"/>
			<stop  offset="1" style="stop-color:#AA1719"/>
		</radialGradient>
		<path id="Caminho_22" style="fill:url(#Caminho_22_00000179611031330369005140000012488360606768527284_);" d="M1052.7,284.3
			c-2.1-2.3-4.4-4.1-6.5-6.6c-13.5,10.2-30.9,8.9-46.9,17.3c-2.3-2.1-4.3-5.5-6.5-8.1c15.8-7.9,31-5.4,46.1-16.1
			c-0.4-2.3-4.2-5.3-6.2-7.5c-15.1,11.6-29.6,8.3-45,15.5c-2.4-1.8-4-6.4-6.5-8.1c13.2-7.2,31.6-2.5,44.7-14.6
			c-1.8-3.3-4.1-5.2-6.2-7.5c-13.7,13.2-29.1,6.9-43.9,13.5c-2-2-3.7-5.4-5.6-7.8c14.2-7.2,32.1,1,42.7-14.3
			c-1.8-3.5-3.9-5.8-5.9-8.4c16.2-16.4,38.8,0,55.8-14.1c2.3,0.6,3.8,3.9,5.6,6.4c-16.8,15-39-1.4-54.9,15.8c1.5,2.9,3.6,3.8,5,6.7
			c13.5-17.4,37.4-2,55.8-15.5c2.1,1.9,4,4.6,5.9,6.9c-16.3,12.8-45.5-2.1-53.7,18c1.8,1.8,3.4,4.5,5.3,5.8
			c8.5-17.4,36.6-6,54.3-16.9c2,2,3.9,4.1,5.6,6.4c-14.8,11.8-45.1-0.7-52.2,19.4c1.9,1.9,3.9,3.6,5.6,6.4c7-20.2,35-7.9,53.1-19.2
			c1.7,2.7,3.9,3.6,5.6,6.4C1087.9,275.9,1060.9,264,1052.7,284.3c2.1,2,4.1,4,6.1,6.1c5.5-17.8,34.8-9.6,51.9-20
			c2,2.3,4.2,3.8,6.2,6.1c-14.7,11.8-45.9,0.4-50.5,21.4c1.7,2.1,3.7,3.3,5.3,5.8c5.2-20.4,36.8-9.3,51.9-21.4
			c1.9,2.3,6.2,3.7,6.5,6.6c-16.2,11.5-46,0.3-50.5,21.4c1.4,2.7,3.6,2.5,5,5.3c9.7-20.3,38.7-8,52.4-23.1c1.8,3.2,6.8,2.8,7.3,5.5
			c-12.5,15.1-41.1,3.5-50.7,23.6c2.9,4.3,9.5-3.6,12.5,0.5c-11.4,8.3-27.1,11.3-40,19.4c-7.1,4.4-12.6,10.6-18.9,14.5
			c-9.3,5.9-26.5,12.5-27.3-1.2c23.6-0.2,45.1-30.1,70.8-33c0.2-1.9-3.6-3.5-5-5.3c-15.2,2.3-33.6,13.2-46.4,23.5
			c-3.4,0.8,2.3-2.8-0.4-4.8c-6.7-5-15.8-3.4-24.1,0.7c-28.1,13.7-33.6,46.2-45.1,66.2c-0.7-3.2-2.3-6.7-4-10.1
			c8.6-23.6,22.1-62.7,60.4-67.2c-1.9-3-4.6-3.5-6.5-6.6c14.4-7.6,29.8-15.5,45.4-20.1c0.2-2.4-4-3.4-5.3-5.8
			c-15.9,6.7-30.5,9.1-47.4,19c-1.7-2.3-3.9-2.8-5.3-5.8c-34.5,6.2-48.5,39.6-56.4,59.9l-5.1-9.5c6.6-22,22.3-48,54.7-57.6
			c1.8,1.4,3.3,3.6,5,5.3C1021.6,295.3,1036.5,291.8,1052.7,284.3z M1027.2,324.7c2.3,3.2,5.1,4.8,7.9,6.6
			c12.2-10.4,30.7-17.5,43.2-21.8c-2.3-1.1-4.1-4.1-6.4-5.2C1057.3,308.9,1042.1,314.9,1027.2,324.7L1027.2,324.7z"/>
		<g id="Grupo_29">
			<g id="Grupo_28">
				
					<linearGradient id="Caminho_23_00000018916020868674241160000005616933823472905912_" gradientUnits="userSpaceOnUse" x1="924.0806" y1="415.7902" x2="924.4854" y2="415.7902" gradientTransform="matrix(191.1 0 0 -211.911 -175710.9688 88406.6562)">
					<stop  offset="0" style="stop-color:#211E71"/>
					<stop  offset="1" style="stop-color:#0000FF"/>
				</linearGradient>
				<path id="Caminho_23" style="fill:url(#Caminho_23_00000018916020868674241160000005616933823472905912_);" d="M963.1,246.4
					c-25.5,1.4-52.3,25.3-58.8,43.9c12,17.2,23.5,36.4,35,55.6c8.1-20.7,24.1-44.5,54.8-54C983.9,276.2,973.2,262.1,963.1,246.4z
					 M956.9,250.8l1.7-0.6l0.5-1.8l1.1,1.5l1.9-0.1l-1.1,1.5l0.7,1.7l-1.8-0.5l-1.4,1.2l0-1.9L956.9,250.8z M962.2,260.4l1.7-0.6
					l0.5-1.8l1.1,1.5l1.9-0.1l-1.1,1.5l0.7,1.7l-1.8-0.5l-1.4,1.2l0-1.9L962.2,260.4z M959.3,267.4l1.7-0.8l0.3-1.8l1.3,1.3l1.8-0.3
					l-0.9,1.6l0.8,1.7l-1.8-0.3l-1.3,1.3l-0.2-1.8L959.3,267.4z M955,257l0.3-1.8l1.3,1.3l1.8-0.3l-0.9,1.6l0.8,1.7l-1.8-0.3
					l-1.3,1.3l-0.2-1.8l-1.6-0.8L955,257z M946.5,255.2l0.1-1.9l1.4,1.2l1.8-0.5l-0.7,1.7l1,1.5l-1.9-0.1l-1.1,1.5l-0.5-1.8
					l-1.7-0.6L946.5,255.2z M951.7,264.6l0.1-1.9l1.4,1.2l1.8-0.5l-0.7,1.7l1,1.5l-1.9-0.1l-1.1,1.5l-0.5-1.8l-1.7-0.6L951.7,264.6z
					 M960.1,284l-1.9,0.1l-1,1.6l-0.7-1.7l-1.8-0.4l1.4-1.2l-0.2-1.8l1.6,1l1.7-0.7l-0.5,1.8L960.1,284z M953.5,274.1l-1.9,0.1
					l-1,1.6l-0.7-1.7l-1.8-0.4l1.4-1.2l-0.2-1.8l1.6,1l1.7-0.7l-0.5,1.8L953.5,274.1z M943.4,262.8l-0.2-1.8l1.6,1l1.7-0.7l-0.5,1.8
					l1.2,1.4l-1.8,0.1l-1,1.6l-0.7-1.7L942,264L943.4,262.8z M945.5,272.4l-1.8,0.3l-0.8,1.7l-0.8-1.7l-1.8-0.3l1.3-1.3l-0.3-1.8
					l1.6,0.9l1.6-0.9l-0.3,1.8L945.5,272.4z M950.3,290.5l-1.8,0.4l-0.7,1.7l-0.9-1.6l-1.8-0.1l1.2-1.4l-0.5-1.8l1.7,0.7l1.6-1
					l-0.2,1.8L950.3,290.5z M935.6,261.4l-0.3-1.8l1.6,0.9l1.6-0.9l-0.3,1.8l1.3,1.3l-1.8,0.3l-0.8,1.7l-0.8-1.7l-1.8-0.3
					L935.6,261.4z M943.8,280.9l-1.8,0.4l-0.7,1.7l-0.9-1.6l-1.9-0.1l1.2-1.4l-0.5-1.8l1.7,0.7l1.6-1l-0.2,1.8L943.8,280.9z
					 M933.1,269.6l-0.5-1.8l1.7,0.7l1.6-1l-0.2,1.8l1.4,1.2l-1.8,0.4l-0.7,1.7l-0.9-1.6l-1.8-0.1L933.1,269.6z M942.3,290l-1.8,0.5
					l-0.6,1.7l-1-1.6l-1.9-0.1l1.2-1.4l-0.5-1.8l1.7,0.7l1.5-1l-0.1,1.8L942.3,290z M936.3,279.9l-1.8,0.5l-0.6,1.7l-1-1.6l-1.9-0.1
					l1.2-1.4l-0.5-1.8l1.7,0.7l1.5-1l-0.1,1.8L936.3,279.9z M925.3,269.5l-0.5-1.8l1.7,0.7l1.5-1l-0.1,1.8l1.5,1.1l-1.8,0.5
					l-0.6,1.7l-1-1.6l-1.9-0.1L925.3,269.5z M935.2,289.4l-1.8,0.6l-0.5,1.8l-1.1-1.5l-1.9,0.1l1.1-1.5l-0.6-1.7l1.8,0.5l1.5-1.2
					l0,1.9L935.2,289.4z M924.3,278.7l-0.6-1.7l1.8,0.5l1.5-1.2l0,1.9l1.5,1l-1.8,0.6l-0.5,1.8l-1.1-1.5l-1.9,0.1L924.3,278.7z
					 M927.9,289.2l-1.7,0.7l-0.4,1.8l-1.2-1.4l-1.8,0.1l1-1.5l-0.7-1.7l1.8,0.5l1.4-1.2l0.1,1.9L927.9,289.2z M927.3,299.4l-1.7,0.8
					l-0.2,1.8l-1.3-1.3l-1.8,0.3l0.8-1.7l-0.9-1.6l1.8,0.3l1.3-1.3l0.3,1.8L927.3,299.4z M929.8,309.8l-0.9-1.6l1.8,0.3l1.3-1.3
					l0.3,1.8l1.7,0.8l-1.7,0.8l-0.2,1.8l-1.3-1.3l-1.8,0.3L929.8,309.8z M916.4,278.9l-0.7-1.7l1.8,0.5l1.4-1.2l0.1,1.9l1.6,1
					l-1.7,0.7l-0.4,1.8l-1.2-1.4l-1.8,0.1L916.4,278.9z M916.6,288.5l-0.9-1.6l1.8,0.3l1.3-1.3l0.3,1.8l1.7,0.8l-1.7,0.8l-0.2,1.8
					l-1.3-1.3l-1.8,0.3L916.6,288.5z M908.2,288.1l1.8,0.1l1.1-1.5l0.5,1.8l1.7,0.6l-1.6,1l-0.1,1.9l-1.4-1.2l-1.8,0.5l0.7-1.7
					L908.2,288.1z M916,299.9l-1-1.5l1.9,0.1l1.1-1.5l0.5,1.8l1.7,0.6l-1.6,1l-0.1,1.9l-1.4-1.2l-1.8,0.5L916,299.9z M923.2,311
					l-1-1.5l1.8,0.1l1.1-1.5l0.5,1.8l1.7,0.6l-1.6,1l-0.1,1.9l-1.4-1.2l-1.8,0.5L923.2,311z M928.9,320.9l1.9,0.1l1.1-1.5l0.5,1.8
					l1.7,0.6l-1.6,1l-0.1,1.9l-1.4-1.2l-1.8,0.5l0.7-1.7L928.9,320.9z M939.4,333.3l-0.1,1.9l-1.4-1.2l-1.8,0.5l0.7-1.7l-1-1.5
					l1.9,0.1l1.1-1.5l0.5,1.8l1.7,0.6L939.4,333.3z M939.2,322.3l-0.2,1.8l-1.3-1.3l-1.8,0.3l0.8-1.7l-0.9-1.6l1.8,0.3l1.3-1.3
					l0.3,1.8l1.7,0.8L939.2,322.3z M930.2,299.3l-0.7-1.7l1.8,0.5l1.4-1.2l0.1,1.9l1.6,1l-1.7,0.7l-0.4,1.8l-1.2-1.4l-1.8,0.1
					L930.2,299.3z M936.9,309.6l-0.7-1.7l1.8,0.5l1.4-1.2l0.1,1.9l1.6,1l-1.7,0.7l-0.4,1.8l-1.2-1.4l-1.8,0.1L936.9,309.6z
					 M946.1,321.4l-0.4,1.8l-1.2-1.4l-1.8,0.1l1-1.6l-0.7-1.7l1.8,0.5l1.4-1.2l0.1,1.9l1.6,1L946.1,321.4z M937.6,298.9l-0.6-1.7
					l1.8,0.5l1.5-1.2l0,1.9l1.5,1L940,300l-0.5,1.8l-1.1-1.5l-1.9,0.1L937.6,298.9z M947.9,309.9l-1.8,0.6l-0.5,1.8l-1.1-1.5
					l-1.9,0.1l1.1-1.5l-0.6-1.7l1.8,0.5l1.5-1.2l0,1.9L947.9,309.9z M944.6,299.4l-0.5-1.8l1.7,0.7l1.5-1l-0.1,1.9l1.5,1.1l-1.8,0.5
					l-0.6,1.7l-1-1.6l-1.9-0.1L944.6,299.4z M955.5,309.6l-1.8,0.6l-0.5,1.8l-1.1-1.5l-1.9,0l1.1-1.5l-0.6-1.8l1.8,0.6l1.5-1.1
					l0,1.9L955.5,309.6z M956.6,301.2l-1.8,0.4l-0.7,1.7l-0.9-1.6l-1.8-0.1l1.2-1.4l-0.5-1.8l1.7,0.7l1.6-1l-0.2,1.8L956.6,301.2z
					 M947.8,281.2l-0.3-1.8l1.6,0.9l1.6-0.9l-0.3,1.8l1.3,1.3l-1.8,0.3l-0.8,1.7l-0.8-1.7l-1.8-0.3L947.8,281.2z M954.2,290.9
					l-0.3-1.8l1.6,0.9l1.6-0.9l-0.3,1.8l1.3,1.3l-1.8,0.3l-0.8,1.7l-0.8-1.7l-1.8-0.3L954.2,290.9z M964.6,301.5l-1.8,0.4l-0.7,1.7
					l-0.9-1.6l-1.8-0.2l1.2-1.4l-0.4-1.8l1.7,0.8l1.6-1l-0.2,1.8L964.6,301.5z M966.3,293.6l-1.8,0.1l-1,1.6l-0.7-1.7l-1.8-0.4
					l1.4-1.2l-0.2-1.8l1.6,1l1.7-0.7l-0.5,1.8L966.3,293.6z M956.6,275.5l1.6-1l0.1-1.9l1.4,1.2l1.8-0.5l-0.7,1.7l1,1.5l-1.9-0.1
					l-1.1,1.5l-0.5-1.8L956.6,275.5z M964.7,284l0-1.9l1.5,1.1l1.8-0.6l-0.6,1.8l1.1,1.5l-1.9,0l-1.1,1.5l-0.6-1.8l-1.8-0.5
					L964.7,284z M974.7,295.5l-1.9,0l-1.1,1.5l-0.6-1.8l-1.8-0.5l1.5-1.1l0-1.9l1.5,1.1l1.7-0.6l-0.6,1.8L974.7,295.5z M965.3,277.1
					l1.7-0.8l0.3-1.8l1.3,1.3l1.8-0.3l-0.9,1.6l0.8,1.7l-1.8-0.3l-1.3,1.3l-0.2-1.8L965.3,277.1z M977.3,288l-1.9,0l-1,1.5l-0.6-1.7
					l-1.8-0.5l1.5-1.1l-0.1-1.9l1.5,1.1l1.7-0.7l-0.5,1.8L977.3,288z M968.2,269.7l1.7-0.6l0.5-1.8l1.1,1.5l1.9-0.1l-1.1,1.5
					l0.7,1.7l-1.8-0.5l-1.4,1.2l0-1.9L968.2,269.7z M976.2,278.9l0.1-1.8l1.4,1.2l1.8-0.4l-0.8,1.7l1,1.6l-1.8-0.2l-1.2,1.4
					l-0.4-1.8l-1.7-0.7L976.2,278.9z M985.2,289.7l-1.9,0l-1.1,1.5l-0.5-1.8l-1.8-0.6l1.5-1.1l0-1.9l1.5,1.1l1.8-0.6l-0.6,1.8
					L985.2,289.7z"/>
			</g>
		</g>
	</g>
	<g id="Grupo_31">
		
			<linearGradient id="Caminho_24_00000103955904565604273220000006853922907334864032_" gradientUnits="userSpaceOnUse" x1="931.6959" y1="413.1556" x2="932.0125" y2="413.1556" gradientTransform="matrix(12.7192 0 0 -22.6735 -10887.7686 9774.7402)">
			<stop  offset="0" style="stop-color:#D20C0D"/>
			<stop  offset="1" style="stop-color:#AA1719"/>
		</linearGradient>
		<path id="Caminho_24" style="fill:url(#Caminho_24_00000103955904565604273220000006853922907334864032_);" d="M970.2,401.7
			c0,0-4.5,0.9-5.7,8.3S966.9,405.2,970.2,401.7z"/>
		
			<linearGradient id="Caminho_25_00000036218071406118029450000008430964197319519119_" gradientUnits="userSpaceOnUse" x1="936.404" y1="413.6254" x2="937.2557" y2="413.6254" gradientTransform="matrix(4.7278 0 0 -25.8985 -3500.7017 11119.8057)">
			<stop  offset="0" style="stop-color:#D20C0D"/>
			<stop  offset="1" style="stop-color:#AA1719"/>
		</linearGradient>
		<path id="Caminho_25" style="fill:url(#Caminho_25_00000036218071406118029450000008430964197319519119_);" d="M970.1,401.4
			c0,0-3.4,3.1-0.7,10.1C972.2,418.5,969,406.2,970.1,401.4z"/>
	</g>
	<g id="Grupo_32">
		
			<linearGradient id="Caminho_26_00000041277381038192035780000007630141585865150632_" gradientUnits="userSpaceOnUse" x1="936.7556" y1="406.9703" x2="937.0721" y2="406.9703" gradientTransform="matrix(11.8835 0 0 -21.2023 -10254.5645 8924.3877)">
			<stop  offset="0" style="stop-color:#D20C0D"/>
			<stop  offset="1" style="stop-color:#AA1719"/>
		</linearGradient>
		<path id="Caminho_26" style="fill:url(#Caminho_26_00000041277381038192035780000007630141585865150632_);" d="M904.9,290.7
			c0,0-4.2,0.8-5.4,7.8C898.4,305.4,901.8,294,904.9,290.7z"/>
		
			<linearGradient id="Caminho_27_00000087413794624370312480000003600158784683371960_" gradientUnits="userSpaceOnUse" x1="963.2863" y1="408.2097" x2="964.1376" y2="408.2097" gradientTransform="matrix(4.425 0 0 -24.2162 -3360.0901 10181.415)">
			<stop  offset="0" style="stop-color:#D20C0D"/>
			<stop  offset="1" style="stop-color:#AA1719"/>
		</linearGradient>
		<path id="Caminho_27" style="fill:url(#Caminho_27_00000087413794624370312480000003600158784683371960_);" d="M904.7,290.4
			c0,0-3.2,2.9-0.6,9.4C906.7,306.4,903.7,294.8,904.7,290.4z"/>
	</g>
</g>
</svg>
