<?xml version="1.0" encoding="utf-8"?>
<!-- Generator: Adobe Illustrator 26.0.1, SVG Export Plug-In . SVG Version: 6.00 Build 0)  -->
<svg version="1.1" id="Layer_1" xmlns="http://www.w3.org/2000/svg" xmlns:xlink="http://www.w3.org/1999/xlink" x="0px" y="0px"
	 viewBox="0 0 200 200" style="enable-background:new 0 0 200 200;" xml:space="preserve">
<style type="text/css">
	.st0{fill:#B3CA00;}
</style>
<g id="quantic" transform="translate(-25.129)">
	<g id="Grupo_45" transform="translate(25.129)">
		<g id="Grupo_44" transform="translate(0)">
			<path id="Caminho_52" class="st0" d="M168.5,80.6c-3.3,3.3-3.3,8.6,0,11.8c3.3,3.3,8.6,3.3,11.8,0s3.3-8.6,0-11.8c0,0,0,0,0,0
				C177,77.5,171.8,77.5,168.5,80.6z"/>
			<path id="Caminho_53" class="st0" d="M45.1,151.8c-3.3,3.3-3.2,8.6,0,11.8c3.3,3.3,8.6,3.2,11.8,0c3.3-3.3,3.3-8.5,0-11.8
				C53.7,148.7,48.5,148.7,45.1,151.8z"/>
			<path id="Caminho_54" class="st0" d="M168.2,95.4c-6.9-7.9-14.7-15.1-23-21.5c-1.1-8.3-2.8-16.4-5.1-24.4c0.5-0.1,1-0.1,1.4-0.2
				c15.8-1.6,27.2,1.6,31.3,8.6c1.8,3.1,2.2,7,1.4,11.6c-0.6,3.4,1.6,6.6,4.9,7.2c3.4,0.6,6.6-1.6,7.2-4.9
				c1.5-7.6,0.5-14.4-2.8-20.1c-6.7-11.6-22.1-16.9-43.3-14.7c-1.4,0.1-2.9,0.3-4.3,0.5c-8.5-20.9-21.4-34-36-34s-27.4,13.1-36,34
				c-4.4-0.6-8.8-1-13.2-1c-16.7,0-28.6,5.3-34.4,15.2c-7.3,12.6-2.4,30.3,11.5,48.2c-0.9,1.2-1.8,2.3-2.6,3.5
				c-12.4,17.3-15.6,33.2-8.9,44.8c3.3,5.7,8.7,9.9,16,12.5c3.2,1.1,6.7-0.5,7.9-3.7c1.1-3.2-0.5-6.7-3.7-7.9c0,0-0.1,0-0.1,0
				c-4.4-1.5-7.6-3.9-9.4-7c-4.1-7.1-1.1-18.5,8.2-31.4c0.3-0.4,0.6-0.8,0.8-1.1c5.8,6,12,11.6,18.6,16.6
				c1.3,10.4,3.7,20.7,7.1,30.7c0.1,0.6,0.3,1.1,0.6,1.7c8.5,23.3,22,38.1,37.5,38.1c14.6,0,27.4-13.1,36-34c4.4,0.6,8.8,1,13.2,1
				c16.7,0,28.6-5.3,34.3-15.2c7.8-13.4,1.7-32.5-14.2-51.5C169.1,96.2,168.7,95.8,168.2,95.4z M155.8,100c-2.8,3-5.9,6-9.2,8.9
				c0.1-2.9,0.2-5.9,0.2-8.9c0-3-0.1-6-0.2-8.9C150,94.1,153.1,97.1,155.8,100L155.8,100z M117.2,129.9c-5.6,3.2-11.3,6.2-17.2,8.8
				c-5.9-2.6-11.7-5.6-17.3-8.8c-5.6-3.2-11-6.7-16.3-10.5c-1.3-12.9-1.3-25.8,0-38.7c10.5-7.5,21.7-14,33.5-19.3
				c5.9,2.6,11.7,5.6,17.3,8.8c5.6,3.2,11,6.7,16.3,10.5c0.6,6.4,1,12.9,1,19.4c0,6.5-0.3,12.9-1,19.4
				C128.3,123.1,122.8,126.6,117.2,129.9z M131,136c-0.9,4.4-1.9,8.5-3.1,12.4c-4-0.9-8.1-2.1-12.2-3.5c2.6-1.4,5.2-2.8,7.7-4.3
				C126,139.1,128.5,137.5,131,136L131,136z M69,64c0.9-4.4,1.9-8.5,3.1-12.4c4,0.9,8.1,2.1,12.2,3.5c-2.6,1.4-5.2,2.8-7.7,4.3
				C74,60.9,71.5,62.5,69,64L69,64z M131,64c-2.5-1.6-5-3.1-7.6-4.6c-2.6-1.5-5.2-2.9-7.8-4.3c4.2-1.4,8.3-2.6,12.3-3.5
				C129.1,55.5,130.1,59.7,131,64L131,64z M100,15.9c8.3,0,17,8.9,23.6,24.1c-8.1,2-16,4.6-23.6,7.9C92.3,44.6,84.4,42,76.4,40
				C83,24.8,91.7,15.9,100,15.9z M27.1,57.9c3.4-5.8,11.8-9,23.7-9c3,0,6.1,0.2,9.1,0.6c-2.3,8-4,16.2-5.1,24.4
				c-6.6,5-12.8,10.6-18.6,16.5C26.3,77.1,23,65.1,27.1,57.9z M44.2,100c2.8-3,5.9-6,9.2-8.9c-0.1,2.9-0.2,5.9-0.2,8.9
				c0,3,0.1,6,0.2,8.9C50,105.9,46.9,102.9,44.2,100z M76.6,140.6c2.6,1.5,5.2,2.9,7.8,4.3c-4.2,1.4-8.3,2.6-12.3,3.5
				c-1.2-3.9-2.2-8-3.1-12.4C71.4,137.5,74,139.1,76.6,140.6z M100,184.1c-8.3,0-17-8.9-23.6-24.1c8.1-2,16-4.6,23.7-7.9
				c7.7,3.2,15.6,5.8,23.6,7.9C117,175.2,108.3,184.1,100,184.1z M172.8,142.1c-3.4,5.8-11.8,9-23.7,9l0,0c-3,0-6.1-0.2-9.1-0.6
				c2.3-8,4-16.2,5.1-24.4c6.6-5,12.8-10.6,18.6-16.6C173.7,122.9,177,134.9,172.8,142.1z"/>
			<path id="Caminho_55" class="st0" d="M115.6,94.4c-3.4,0-6.2,2.8-6.2,6.2c0,0,0,0,0,0v8.8H90.6V90.6h25c3.4,0,6.1-2.8,6.1-6.2
				c0-3.4-2.7-6.1-6.1-6.1H84.4c-3.4,0-6.2,2.8-6.2,6.2c0,0,0,0,0,0v31.2c0,3.4,2.8,6.2,6.2,6.2c0,0,0,0,0,0h31.2
				c3.4,0,6.2-2.8,6.2-6.2v-15C121.8,97.2,119,94.4,115.6,94.4z"/>
		</g>
	</g>
</g>
</svg>
