<?xml version="1.0" encoding="utf-8"?>
<!-- Generator: Adobe Illustrator 26.0.1, SVG Export Plug-In . SVG Version: 6.00 Build 0)  -->
<svg version="1.1" id="Layer_1" xmlns="http://www.w3.org/2000/svg" xmlns:xlink="http://www.w3.org/1999/xlink" x="0px" y="0px"
	 viewBox="0 0 200 200" style="enable-background:new 0 0 200 200;" xml:space="preserve">
<style type="text/css">
	.st0{fill:#01315C;}
</style>
<path id="fast-time" class="st0" d="M197,100c0,48.3-39.1,87.4-87.4,87.4c-23.2,0-45.4-9.2-61.8-25.6
	c-13.5-13.4-22.2-30.9-24.8-49.7h-7.6C8.8,112.3,3.2,107,3,100.4c-0.2-6.7,5.1-12.3,11.7-12.5c0.2,0,0.5,0,0.7,0h36.3
	c6.7-0.2,12.3,5.1,12.5,11.7c0.2,6.7-5.1,12.3-11.7,12.5c-0.2,0-0.5,0-0.7,0h-4.2c6.7,34.3,39.9,56.6,74.1,49.9
	c34.3-6.7,56.6-39.9,49.9-74.1c-5.8-29.7-31.8-51.1-62-51.1H15.5C8.8,37,3.2,31.8,3,25.1c-0.2-6.7,5-12.3,11.7-12.5
	c0.3,0,0.5,0,0.8,0h94.1C157.9,12.6,197,51.7,197,100L197,100z M109.6,48c-6.7,0-12.1,5.4-12.1,12.1V100c0,6.7,5.4,12.1,12.1,12.1
	l0,0h30.1c6.7,0.2,12.3-5.1,12.5-11.7c0.2-6.7-5.1-12.3-11.7-12.5c-0.2,0-0.5,0-0.7,0h-18V60.1C121.7,53.5,116.3,48.1,109.6,48z
	 M63.6,74.5c6.7-0.2,11.9-5.8,11.7-12.5c-0.2-6.4-5.3-11.6-11.7-11.7H35c-6.7,0.2-11.9,5.8-11.7,12.5c0.2,6.4,5.3,11.6,11.7,11.7
	H63.6z"/>
</svg>
