<?xml version="1.0" encoding="utf-8"?>
<!-- Generator: Adobe Illustrator 26.0.1, SVG Export Plug-In . SVG Version: 6.00 Build 0)  -->
<svg version="1.1" id="Layer_1" xmlns="http://www.w3.org/2000/svg" xmlns:xlink="http://www.w3.org/1999/xlink" x="0px" y="0px"
	 viewBox="0 0 200 200" style="enable-background:new 0 0 200 200;" xml:space="preserve">
<style type="text/css">
	.st0{fill:#B3CA00;}
</style>
<g>
	<path id="Caminho_63" class="st0" d="M103.6,119.9c-4.9-1.9-10.5-3.8-14.6-3.8c-0.2,0-0.4,0-0.7,0c-2.1,0.1-4.6,0.7-6.5,5.7
		c-3.9,10.1,1.1,21.5,11.3,25.5s21.5-1.1,25.5-11.3c0-0.1,0.1-0.2,0.1-0.3C121.1,129.1,119.3,125.9,103.6,119.9z"/>
	<path id="Caminho_64" class="st0" d="M196,105.6V94.4h-19.3c-0.7-9.7-3.2-19.1-7.5-27.9l16.7-9.6l-5.6-9.7l-16.7,9.6
		c-5.5-8-12.4-14.9-20.4-20.4l9.6-16.7l-9.7-5.6l-9.6,16.7c-8.7-4.2-18.2-6.8-27.9-7.5V4H94.4v19.3c-9.7,0.7-19.1,3.2-27.9,7.5
		L56.9,14l-9.7,5.6l9.6,16.7c-8,5.5-14.9,12.4-20.4,20.4l-16.7-9.6L14,56.9l16.7,9.6c-4.2,8.7-6.8,18.2-7.5,27.9H4v11.3h19.3
		c0.7,9.7,3.2,19.1,7.5,27.9L14,143.1l5.6,9.7l16.7-9.6c5.5,8,12.4,14.9,20.4,20.4l-9.6,16.7l9.7,5.6l9.6-16.7
		c8.7,4.2,18.2,6.8,27.9,7.5V196h11.2v-19.3c9.7-0.7,19.1-3.2,27.9-7.5l9.6,16.7l9.7-5.6l-9.6-16.7c8-5.5,14.9-12.4,20.4-20.4
		l16.7,9.6l5.6-9.7l-16.7-9.6c4.2-8.7,6.8-18.2,7.5-27.9L196,105.6L196,105.6z M94.4,39.8h11.2V51H94.4V39.8z M56.7,120.1H45.5
		v-11.2h11.2V120.1z M64.7,94.4c-3.2,0-6.8-1.2-10.5-4.8c-8.8-8.8-8.8-23.2,0-32s23.2-8.8,32,0c5.9,5.9,5.3,11.7,3.8,15.6
		c-1.7,4.3-5.2,8.1-8.7,11.6s-7.2,7-11.6,8.7C68.2,94,66.5,94.4,64.7,94.4z M129.1,139.7c-6,16-23.9,24-39.9,18
		c-16-6-24-23.9-18-39.9c3.8-10.2,11-12.7,16.4-13c5.7-0.3,11.9,1.5,19.9,4.5c8,3,13.8,5.7,17.9,9.8
		C129.3,122.9,133,129.6,129.1,139.7L129.1,139.7z M156.4,126.1h-11.3v-11.3h11.3V126.1z M150.1,99.4c-4,4-8,5.3-11.5,5.3
		c-1.9,0-3.8-0.4-5.6-1.1c-4.4-1.7-8.2-5-13-9.8c-4.8-4.8-8.1-8.6-9.8-13c-1.6-4.2-2.2-10.6,4.2-17c9.8-9.9,25.7-10,35.6-0.3
		s10,25.7,0.3,35.6C150.3,99.2,150.2,99.3,150.1,99.4z"/>
	<path id="Caminho_65" class="st0" d="M78.3,65.5C73.9,61,66.7,61,62.2,65.4c-4.5,4.4-4.5,11.6-0.1,16.1c0,0,0.1,0.1,0.1,0.1
		c2.1,2.1,3.2,3.2,11.2-4.8S80.4,67.6,78.3,65.5L78.3,65.5z"/>
	<path id="Caminho_66" class="st0" d="M132.3,67.7c-3.7,0-7.2,1.5-9.8,4.1c-2.6,2.6-2.1,4-1.7,5c1,2.6,4.1,5.9,7.2,9.1
		c3.2,3.2,6.4,6.2,9.1,7.2c1,0.4,2.4,0.9,5-1.7c5.4-5.4,5.4-14.2,0-19.7C139.6,69.2,136,67.7,132.3,67.7z"/>
</g>
</svg>
