<?xml version="1.0" encoding="utf-8"?>
<!-- Generator: Adobe Illustrator 26.0.1, SVG Export Plug-In . SVG Version: 6.00 Build 0)  -->
<svg version="1.1" id="Layer_1" xmlns="http://www.w3.org/2000/svg" xmlns:xlink="http://www.w3.org/1999/xlink" x="0px" y="0px"
	 viewBox="0 0 200 200" style="enable-background:new 0 0 200 200;" xml:space="preserve">
<style type="text/css">
	.st0{fill:#B3CA00;}
</style>
<g id="acaro" transform="translate(0.001 -0.004)">
	<path id="Caminho_68" class="st0" d="M55.2,55.4c3,2.5,6.3,4.6,9.9,6.1c-1.7,1.9-3.4,3.9-5.1,6.1c22.3,21.4,57.6,21.4,80,0
		c-1.6-2.2-3.3-4.2-5.1-6.1c3.6-1.5,6.9-3.6,9.9-6.1c7.3-6.3,15.3-18.1,11.5-39.2c-0.5-3.1-3.4-5.2-6.5-4.7
		c-3.1,0.5-5.2,3.4-4.7,6.5c0,0,0,0.1,0,0.1c2.2,12.5-0.3,22-7.4,28.3c-3.5,3-7.6,5.1-12,6.2c-0.2,0-0.3,0.1-0.5,0.1
		C117.3,47,108.7,44,100,44s-17.3,3-25.2,8.8c-0.2,0-0.3-0.1-0.5-0.1c-4.3-1-8.3-3-11.7-5.9c-7.4-6.3-10-15.9-7.7-28.6
		c0.5-3.1-1.6-6-4.7-6.5c-3-0.5-5.9,1.5-6.5,4.5C39.9,37.3,47.9,49.1,55.2,55.4L55.2,55.4z"/>
	<path id="Caminho_69" class="st0" d="M153.1,91.8c-0.9-2.5-1.9-4.9-3.1-7.4c9.9,0.9,25.7,4.2,37.2,15.8c2.2,2.2,5.8,2.3,8,0.1
		c2.2-2.2,2.3-5.8,0.1-8c0,0-0.1-0.1-0.1-0.1c-14.2-14.2-33.1-18.1-44.7-19.1c-26,27.9-69.8,29.5-97.7,3.4c-1.2-1.1-2.3-2.2-3.4-3.4
		c-11.6,1-30.5,4.9-44.7,19.1c-2.2,2.2-2.3,5.8-0.1,8c2.2,2.2,5.8,2.3,8,0.1c0,0,0.1-0.1,0.1-0.1C24.2,88.7,40.1,85.4,50,84.5
		c-1.1,2.4-2.1,4.9-3.1,7.4c-8.2,3.4-31.3,15.7-43.6,50.6c-1.1,2.9,0.4,6.2,3.3,7.3c2.9,1.1,6.2-0.4,7.3-3.3c0-0.1,0.1-0.1,0.1-0.2
		c5.3-15.2,13.5-27.3,24.3-36c1.5-1.2,3-2.3,4.4-3.3c-0.7,4-1.1,8.1-1.1,12.2c0,6.2,1,12.3,2.9,18.2c-2.2,17.6-0.8,32.5,4.2,44.4
		c4,9.6,9,13.6,9.5,14c2.5,1.9,6.1,1.4,8-1c1.9-2.5,1.5-6-1-7.9c-0.1-0.1-9.3-8-10.2-30.6c20.4,24.8,57.2,28.4,82,8
		c2.9-2.4,5.6-5.1,8-8c-0.9,22.6-10.1,30.5-10.2,30.6c-2.5,1.9-3,5.5-1,8c1.9,2.5,5.5,3,8,1c0,0,0,0,0,0c0.6-0.4,5.5-4.5,9.5-14
		c5-11.9,6.4-26.8,4.2-44.4c1.9-5.9,2.9-12,2.9-18.2c0-4.1-0.4-8.2-1.1-12.2c1.4,0.9,2.9,2,4.4,3.3c10.8,8.7,18.9,20.8,24.3,36
		c1,3,4.2,4.6,7.2,3.6c3-1,4.6-4.2,3.6-7.2c0-0.1-0.1-0.1-0.1-0.2C184.4,107.6,161.2,95.2,153.1,91.8L153.1,91.8z"/>
	<path id="Caminho_70" class="st0" d="M122.7,38.1v-1.7c0-4.9-1.6-9.8-4.6-13.7c1.7-4.5,2.6-9.2,2.7-14c0-3.1-2.6-5.6-5.8-5.6
		c-3.1,0-5.6,2.5-5.6,5.6c0,2.2-0.3,4.4-0.9,6.6c-5.5-2.2-11.6-2.2-17.1,0c-0.6-2.2-0.9-4.4-0.9-6.6c0-3.1-2.5-5.7-5.6-5.8
		c-3.1,0-5.7,2.5-5.8,5.6c0,0,0,0.1,0,0.1c0.1,4.8,1,9.5,2.7,14c-3,3.9-4.6,8.7-4.6,13.7v1.7C91.6,30.8,108.4,30.8,122.7,38.1
		L122.7,38.1z"/>
</g>
</svg>
