<?xml version="1.0" encoding="utf-8"?>
<!-- Generator: Adobe Illustrator 26.0.1, SVG Export Plug-In . SVG Version: 6.00 Build 0)  -->
<svg version="1.1" id="Layer_1" xmlns="http://www.w3.org/2000/svg" xmlns:xlink="http://www.w3.org/1999/xlink" x="0px" y="0px"
	 viewBox="0 0 200 200" style="enable-background:new 0 0 200 200;" xml:space="preserve">
<style type="text/css">
	.st0{fill:#00305B;}
</style>
<path id="check" class="st0" d="M77,173.2c-3.9,3.9-10.2,3.9-14.1,0c0,0,0,0,0,0L6.4,116.6c-5.9-5.9-5.9-15.4,0-21.2c0,0,0,0,0,0
	l7.1-7.1c5.9-5.9,15.4-5.9,21.2,0c0,0,0,0,0,0L70,123.6l95.3-95.3c5.9-5.9,15.4-5.9,21.2,0c0,0,0,0,0,0l7.1,7.1
	c5.9,5.9,5.9,15.4,0,21.2c0,0,0,0,0,0L77,173.2z"/>
</svg>
