<?xml version="1.0" encoding="utf-8"?>
<!-- Generator: Adobe Illustrator 26.0.1, SVG Export Plug-In . SVG Version: 6.00 Build 0)  -->
<svg version="1.1" id="Layer_1" xmlns="http://www.w3.org/2000/svg" xmlns:xlink="http://www.w3.org/1999/xlink" x="0px" y="0px"
	 viewBox="0 0 200 200" style="enable-background:new 0 0 200 200;" xml:space="preserve">
<style type="text/css">
	.st0{fill:#01315C;}
</style>
<g id="credit-card" transform="translate(0 -29.027)">
	<path id="Caminho_48" class="st0" d="M197.8,138.8l-14.8-84c-1.3-7.3-7.6-12.6-15-12.6c-0.9,0-129.8,22.6-129.8,22.6
		c-8.3,1.5-13.9,9.4-12.4,17.7l1.4,8.1h116.3c14.8,0,26.7,12,26.8,26.8v41.8l15.1-2.7C193.7,155.1,199.2,147.1,197.8,138.8
		L197.8,138.8z"/>
	<path id="Caminho_49" class="st0" d="M158.8,165.6H2v35c0,8.4,6.8,15.3,15.3,15.3c0,0,0,0,0,0h126.2c8.4,0,15.3-6.8,15.3-15.3
		V165.6z M47.5,202.1h-26c-3.2,0-5.7-2.6-5.7-5.7c0-3.2,2.6-5.7,5.7-5.7c0,0,0,0,0,0h26c3.2,0,5.7,2.6,5.7,5.7
		C53.3,199.6,50.7,202.1,47.5,202.1C47.5,202.1,47.5,202.1,47.5,202.1z"/>
	<path id="Caminho_50" class="st0" d="M2,116.6h156.7c-0.4-8.1-7.1-14.5-15.3-14.5H17.3C9.1,102.1,2.4,108.5,2,116.6z"/>
	<path id="Caminho_51" class="st0" d="M2,128.1h156.8v26H2V128.1z"/>
</g>
</svg>
