<?xml version="1.0" encoding="utf-8"?>
<!-- Generator: Adobe Illustrator 26.0.1, SVG Export Plug-In . SVG Version: 6.00 Build 0)  -->
<svg version="1.1" id="Layer_1" xmlns="http://www.w3.org/2000/svg" xmlns:xlink="http://www.w3.org/1999/xlink" x="0px" y="0px"
	 viewBox="0 0 200 200" style="enable-background:new 0 0 200 200;" xml:space="preserve">
<style type="text/css">
	.st0{fill:#01315C;}
</style>
<path id="truck" class="st0" d="M187.2,96.1c-0.6-0.1-1.2-0.3-1.7-0.4c-6-1.6-8.7-2.4-10.7-6.3l-7.6-15.5c-2.5-4.7-8.8-8.6-14.1-8.6
	h-13.6V47.5c0-3.2-2.6-5.8-5.8-5.8l-94.7,0.1c-3,0-5.5,2.5-5.5,5.5c0,0.1,0,0.2,0,0.2v5.3H9.1c-5,0-9.1,4.1-9.1,9.1
	c0,5,4.1,9.1,9.1,9.1h24.3v8.7H17.5c-5,0-9.1,4-9.2,9c0,5,4,9.1,9,9.2c0.1,0,0.1,0,0.2,0h15.9v8.7h-7.5c-5,0-9.1,4-9.2,9
	s4,9.1,9,9.2c0.1,0,0.1,0,0.2,0h7.5v9.1c0,3.2,2.6,5.8,5.8,5.8H49c1.7,11.9,12.8,20.1,24.7,18.4c9.5-1.4,17-8.9,18.4-18.4H132
	c0.2,0,0.4,0,0.6,0c1.7,11.9,12.8,20.1,24.7,18.4c9.5-1.4,17-8.9,18.4-18.4h14.2c5.6,0,10.1-4.5,10.1-10.1v-17.1
	C200,98.8,192.3,97.2,187.2,96.1z M154.2,128.6c4.4,0,7.9,3.5,7.9,7.9c0,4.4-3.5,7.9-7.9,7.9c-4.4,0-7.9-3.5-7.9-7.9c0,0,0,0,0,0
	C146.3,132.2,149.8,128.6,154.2,128.6z M139.4,94.9V73.8h10.4c4,0,8.9,3,10.8,6.5l6.8,13.8c0.1,0.3,0.3,0.5,0.4,0.8L139.4,94.9
	L139.4,94.9z M78.5,136.5c0,4.4-3.5,7.9-7.9,7.9c-4.4,0-7.9-3.5-7.9-7.9c0-4.4,3.5-7.9,7.9-7.9C74.9,128.6,78.5,132.2,78.5,136.5z"
	/>
</svg>
