<?xml version="1.0" encoding="utf-8"?>
<!-- Generator: Adobe Illustrator 26.0.1, SVG Export Plug-In . SVG Version: 6.00 Build 0)  -->
<svg version="1.1" id="Layer_1" xmlns="http://www.w3.org/2000/svg" xmlns:xlink="http://www.w3.org/1999/xlink" x="0px" y="0px"
	 viewBox="0 0 200 200" style="enable-background:new 0 0 200 200;" xml:space="preserve">
<style type="text/css">
	.st0{fill:#B3CA00;}
</style>
<g id="coluna" transform="translate(-76.984 -0.001)">
	<path id="Caminho_56" class="st0" d="M110.6,82c5.7,11.1,9.1,23.2,10,35.6v38.1h11.1V117c-1-14-4.8-27.7-11.2-40.1L110.6,82z"/>
	<path id="Caminho_57" class="st0" d="M235.9,67.6c-4.7-16.9-11.3-33.1-19.7-48.5l-9.8,5.3c7.9,14.6,14.2,30.1,18.7,46.2
		c5.8,21.1,6.9,37.1,7.1,55.5v29.7h11.1V126C243.2,107.1,242,89.9,235.9,67.6L235.9,67.6z"/>
	<path id="Caminho_58" class="st0" d="M176.6,146.4v5.6c0.3,3.1,3.1,5.3,6.2,5c2.6-0.3,4.7-2.3,5-5v-5.6h33.4l0-25.4l-23.1,1.3
		c-2.1,6.8-8.4,11.5-15.6,11.4h-0.2c-6.6-0.1-12.6-3.8-15.5-9.7l-24.2,1.3v21L176.6,146.4z"/>
	<path id="Caminho_59" class="st0" d="M182,46.3c0.8,7.2-3.2,14.1-10,16.9c-6,2.6-13,1.6-18-2.6l-23.3,11.7c2.1,4.4,4,8.9,5.6,13.6
		l33.6-9l1.5,5.3c0.7,2.4,3.7,3.9,6.8,3.4c2.7-0.5,4.5-3,4.1-5.7c0-0.2-0.1-0.3-0.1-0.5l-1.5-5.4l31.2-8.5
		c-3.1-9.8-6.9-19.4-11.4-28.7L182,46.3z"/>
	<path id="Caminho_60" class="st0" d="M123.2,59c0.7,1.1,1.4,2.5,2.1,3.6l32.6-16.5l2.6,4.9c1.1,2,4.1,3.3,7.4,1.9
		c2.6-1,3.8-3.9,2.8-6.5c-0.1-0.1-0.1-0.3-0.2-0.4l-2.6-5l27.5-14c-3-5.2-6-10.2-9.3-14.9c-2.7-3.8-6.9-6.3-11.5-7
		c-4.6-0.7-9.2,0.6-12.8,3.6l-4.8,3.9c-6.3-3.7-14.2-2.8-19.5,2.3c-4.8,4.7-6.7,11.6-4.9,18l-5.9,4C120,42.3,118.5,51.8,123.2,59z"
		/>
	<path id="Caminho_61" class="st0" d="M215.1,76.2l-21.6,5.8c-0.6,7.2-6,13.2-13.2,14.5c-6.4,1.3-13-1.2-17-6.3l-23.9,6.4
		c1.4,5.8,2.4,11.6,2.9,17.6l33.8-1.9l0.2,5.6c0.1,2.1,2.5,4.6,5.9,4.6c2.8,0.1,5.1-2,5.2-4.8c0-0.2,0-0.4,0-0.6l-0.2-5.5l33.2-1.9
		C219.6,98.5,217.8,87.2,215.1,76.2z"/>
	<path id="Caminho_62" class="st0" d="M166.5,184.2c3.3,8.7,13,13,21.7,9.6c4.4-1.7,7.9-5.2,9.6-9.6h23.3v-26.7h-23.3
		c-3.4,8.7-13.2,12.9-21.9,9.4c-4.3-1.7-7.7-5.1-9.4-9.4h-24l0.1,26.7H166.5z"/>
</g>
</svg>
