<?xml version="1.0" encoding="utf-8"?>
<!-- Generator: Adobe Illustrator 26.0.1, SVG Export Plug-In . SVG Version: 6.00 Build 0)  -->
<svg version="1.1" id="Layer_1" xmlns="http://www.w3.org/2000/svg" xmlns:xlink="http://www.w3.org/1999/xlink" x="0px" y="0px"
	 viewBox="0 0 200 200" style="enable-background:new 0 0 200 200;" xml:space="preserve">
<style type="text/css">
	.st0{fill:#01315C;}
</style>
<g>
	<circle id="Elipse_1" class="st0" cx="179.9" cy="20" r="6.2"/>
	<circle id="Elipse_2" class="st0" cx="191.6" cy="66.2" r="5.5"/>
	<path id="Caminho_46" class="st0" d="M100.3,197c41.5-0.2,78.3-26.7,91.5-66.1c1-3-0.6-6.2-3.6-7.2c-1.8-0.6-3.9-0.3-5.4,1
		c-12.1,9.8-27.2,15.1-42.7,15.1c-37.6,0-68.6-30.6-68.6-68.2C71.6,48,83.8,26,103.8,13.5c2.1-1.4,3-4,2.2-6.4
		c-0.8-2.5-3.1-4.1-5.7-4.1C47,3,2.9,46.7,2.9,100S47,197,100.3,197z"/>
	<path id="Caminho_47" class="st0" d="M111.6,48.8c9.4,0,17,7.6,17.1,17.1c0,3.1,2.5,5.7,5.7,5.7c3.1,0,5.7-2.5,5.7-5.7
		c0-9.4,7.6-17,17.1-17.1c3.1,0,5.7-2.5,5.7-5.7c0-3.1-2.5-5.7-5.7-5.7c0,0,0,0,0,0c-9.5-0.2-17.1-7.9-17.1-17.4
		c0-3.1-2.5-5.7-5.7-5.7c-3.1,0-5.7,2.5-5.7,5.7c0,9.5-7.6,17.2-17.1,17.4c-3.1,0-5.7,2.5-5.7,5.7C106,46.3,108.5,48.8,111.6,48.8
		C111.6,48.8,111.6,48.8,111.6,48.8z"/>
</g>
</svg>
