<?xml version="1.0" encoding="utf-8"?>
<!-- Generator: Adobe Illustrator 26.0.1, SVG Export Plug-In . SVG Version: 6.00 Build 0)  -->
<svg version="1.1" id="Layer_1" xmlns="http://www.w3.org/2000/svg" xmlns:xlink="http://www.w3.org/1999/xlink" x="0px" y="0px"
	 viewBox="0 0 200 200" style="enable-background:new 0 0 200 200;" xml:space="preserve">
<style type="text/css">
	.st0{fill:#B3CA00;}
</style>
<g id="germe" transform="translate(-0.059 0)">
	<path id="Caminho_67" class="st0" d="M177.8,143c3.1,0.9,6.2-0.9,7.1-4c0.9-3.1-0.9-6.2-4-7.1l0,0l-23.2-6.6
		c3-14.2,2.3-29-2.2-42.8l14.6-7c2.9-1.4,4.1-4.8,2.7-7.7c-1.4-2.9-4.8-4.1-7.7-2.7l-14,6.7l0,0c-6.8-13.9-17.3-25.6-30.5-33.8
		l7.3-13.9c1.5-2.8,0.4-6.3-2.4-7.7c-2.8-1.5-6.3-0.4-7.7,2.4l0,0l-7.3,13.9c-1-0.4-1.9-0.8-2.9-1.2l-20.4-8.2
		c-6.9-2.8-14.4-3.5-21.7-2.2L60.4,5.8c-1-3-4.3-4.6-7.3-3.6c-3,1-4.6,4.3-3.6,7.3l0,0l5.1,15.1c-1.4,0.7-2.8,1.5-4.1,2.4
		C37,36,30.4,52.3,33.7,68.2l-14.9,5.6c-3,1-4.6,4.2-3.7,7.3c1,3,4.2,4.6,7.3,3.7c0.1,0,0.3-0.1,0.4-0.1L37.6,79
		c4.4,8.2,11.5,14.5,20.1,17.9l13.7,5.5l-11.7,10.1c-2.4,2-2.8,5.7-0.7,8.1c2,2.4,5.7,2.8,8.1,0.7c0,0,0.1-0.1,0.1-0.1l12.5-10.8
		l-5.8,20.2c-1.9,6.6-2.1,13.5-0.5,20.2l-14.8,5.9c-2.9,1.2-4.4,4.5-3.2,7.5c1.2,2.9,4.5,4.4,7.5,3.2l14.7-5.9
		c8.9,15.6,27.1,23.2,44.4,18.5l6.3,14.7c1.2,2.9,4.6,4.3,7.5,3.1c2.9-1.2,4.3-4.6,3.1-7.5c0,0,0-0.1,0-0.1l-6.3-14.6
		c8.5-5.2,14.7-13.3,17.4-22.8l4.6-16.1L177.8,143z M137.5,91.9c0,3.2-2.6,5.7-5.7,5.7s-5.7-2.6-5.7-5.7c0-3.2,2.6-5.7,5.7-5.7
		C135,86.2,137.5,88.8,137.5,91.9L137.5,91.9z M99.7,53.6c0,3.2-2.6,5.7-5.7,5.7s-5.7-2.6-5.7-5.7c0-3.2,2.6-5.7,5.7-5.7
		C97.1,47.9,99.7,50.5,99.7,53.6L99.7,53.6z M93.2,81.6c0-3.2,2.6-5.7,5.7-5.7c3.2,0,5.7,2.6,5.7,5.7c0,3.2-2.6,5.7-5.7,5.7
		C95.7,87.3,93.2,84.8,93.2,81.6L93.2,81.6z M103.9,118.7c0-3.2,2.6-5.7,5.7-5.7s5.7,2.6,5.7,5.7c0,3.2-2.6,5.7-5.7,5.7
		C106.4,124.5,103.9,121.9,103.9,118.7L103.9,118.7z M113.4,147.1c0-3.2,2.6-5.7,5.7-5.7c3.2,0,5.7,2.6,5.7,5.7
		c0,3.2-2.6,5.7-5.7,5.7C116,152.8,113.4,150.2,113.4,147.1L113.4,147.1z M59.9,66.7c0-3.2,2.6-5.7,5.7-5.7c3.2,0,5.7,2.6,5.7,5.7
		c0,3.2-2.6,5.7-5.7,5.7C62.5,72.4,59.9,69.8,59.9,66.7C59.9,66.7,59.9,66.7,59.9,66.7z"/>
	<circle id="Elipse_3" class="st0" cx="186.6" cy="186.5" r="11.5"/>
	<circle id="Elipse_4" class="st0" cx="161.3" cy="13.5" r="11.5"/>
	<circle id="Elipse_5" class="st0" cx="13.5" cy="130.6" r="11.5"/>
</g>
</svg>
