<?xml version="1.0" encoding="utf-8"?>
<!-- Generator: Adobe Illustrator 26.0.1, SVG Export Plug-In . SVG Version: 6.00 Build 0)  -->
<svg version="1.1" id="Layer_1" xmlns="http://www.w3.org/2000/svg" xmlns:xlink="http://www.w3.org/1999/xlink" x="0px" y="0px"
	 viewBox="0 0 200 36" style="enable-background:new 0 0 200 36;" xml:space="preserve">
<style type="text/css">
	.st0{fill:#FFFFFF;}
</style>
<g id="Grupo_8" transform="translate(0 0)">
	<path id="Caminho_1" class="st0" d="M90.7,4c7.6,0,13.8,6.2,13.8,13.8c0,7.6-6.2,13.8-13.8,13.8c-7.6,0-13.8-6.2-13.8-13.8
		C76.9,10.2,83.1,4,90.7,4 M90.7-0.2c-9.9,0-17.9,8-17.9,17.9s8,17.9,17.9,17.9c9.9,0,17.9-8,17.9-17.9S100.6-0.2,90.7-0.2L90.7-0.2
		z"/>
	<path id="Caminho_2" class="st0" d="M72.8,1.9l-3.6-2.1L54.8,27.4L40.5-0.2l-3.6,2.1l17.9,33.8L72.8,1.9z"/>
	<path id="Caminho_3" class="st0" d="M36.3,17.8c0-9.9-8-17.9-17.9-17.9c-9.9,0-17.9,8-17.9,17.9c0,9.9,8,17.9,17.9,17.9
		c3.9,0,7.7-1.3,10.9-3.7l-3-3C20,33.4,11.4,31.9,7,25.7c-1.2-1.7-2-3.7-2.3-5.8h31.4C36.2,19.2,36.3,18.5,36.3,17.8z M18.3,4
		C25.1,4,30.9,9,32,15.7H4.7C5.7,9,11.5,4,18.3,4L18.3,4z"/>
	<path id="Caminho_4" class="st0" d="M191.3-0.2h-64.8c-4.8,0-8.7,3.9-8.7,8.7c0,0,0,0,0,0V27c0,4.8,3.9,8.7,8.7,8.7l0,0h64.8
		c4.8,0,8.7-3.9,8.7-8.7c0,0,0,0,0,0V8.6C200,3.7,196.1-0.2,191.3-0.2L191.3-0.2z M143,27.7h-14.5v-20h4V24H143V27.7z M151.4,27.7
		h-4v-20h4V27.7z M170.3,11.4h-10.7V16h10.7v3.7h-10.7v8.1h-4v-20h14.7L170.3,11.4z M189.2,27.7h-14.9v-20h14.8v3.7h-10.8v4.4h10.3
		v3.7h-10.3v4.6h10.9L189.2,27.7z"/>
</g>
</svg>
