<?xml version="1.0" encoding="utf-8"?>
<!-- Generator: Adobe Illustrator 26.0.1, SVG Export Plug-In . SVG Version: 6.00 Build 0)  -->
<svg version="1.1" id="Layer_1" xmlns="http://www.w3.org/2000/svg" xmlns:xlink="http://www.w3.org/1999/xlink" x="0px" y="0px"
	 viewBox="0 0 200 57" style="enable-background:new 0 0 200 57;" xml:space="preserve">
<style type="text/css">
	.st0{fill:#00305B;}
	.st1{fill:#FFFFFF;}
</style>
<path id="Caminho_1" class="st0" d="M90,4.3c7.6,0,13.7,6.2,13.7,13.7c0,7.6-6.2,13.7-13.7,13.7c-7.6,0-13.7-6.2-13.7-13.7
	C76.3,10.4,82.5,4.3,90,4.3 M90,0.1c-9.9,0-17.9,8-17.9,17.9c0,9.9,8,17.9,17.9,17.9c9.9,0,17.9-8,17.9-17.9
	C107.9,8.2,99.9,0.1,90,0.1z"/>
<path id="Caminho_2" class="st0" d="M72.2,2.2l-3.6-2.1L54.3,27.6L40,0.1l-3.6,2.1l17.9,33.7L72.2,2.2z"/>
<path id="Caminho_3" class="st0" d="M35.8,18c0-9.9-8-17.9-17.9-17.9C8,0.1,0,8.1,0,18c0,9.9,8,17.9,17.9,17.9
	c3.9,0,7.7-1.3,10.8-3.6l-3-3c-6.2,4.3-14.8,2.8-19.1-3.4c-1.2-1.7-2-3.7-2.3-5.8h31.3C35.7,19.4,35.8,18.7,35.8,18z M17.9,4.3
	c6.8,0,12.5,5,13.6,11.7H4.3C5.3,9.3,11.1,4.3,17.9,4.3L17.9,4.3z"/>
<path id="Caminho_4" class="st1" d="M190.3,0.1h-64.6c-4.8,0-8.7,3.9-8.7,8.7c0,0,0,0,0,0v18.3c0,4.8,3.9,8.7,8.7,8.7c0,0,0,0,0,0
	h64.6c4.8,0,8.7-3.9,8.7-8.7c0,0,0,0,0,0V8.9C199,4,195.1,0.1,190.3,0.1C190.3,0.1,190.3,0.1,190.3,0.1z M142.2,28h-14.5V8.1h4v16.2
	h10.5V28z M150.6,28h-4V8.1h4L150.6,28z M169.4,11.7h-10.7v4.5h10.7v3.7h-10.7V28h-4V8.1h14.6V11.7z M188.2,28h-14.9V8.1h14.8v3.6
	h-10.8v4.4h10.3v3.6h-10.3v4.6h10.9L188.2,28z"/>
<g id="Grupo_2" transform="translate(298.828 94.687)">
	<g id="Grupo_1">
		<path id="Caminho_5" class="st1" d="M-157.5-47.6c0.6,0,1.1,0.1,1.7,0.4c0.5,0.2,0.9,0.6,1.3,1L-156-45c-0.4-0.5-1-0.7-1.6-0.7
			c-0.5,0-1,0.2-1.3,0.6c-0.7,0.8-0.7,2.1,0,2.9c0.3,0.4,0.8,0.6,1.3,0.6c0.6,0,1.2-0.3,1.6-0.7l1.4,1.2c-0.7,0.9-1.8,1.4-2.9,1.4
			c-1,0-2.1-0.3-2.8-1.1c-1.4-1.6-1.4-4,0-5.5C-159.5-47.3-158.5-47.7-157.5-47.6z"/>
		<path id="Caminho_6" class="st1" d="M-149.8-47.6c1.1,0,2.1,0.4,2.8,1.1c1.5,1.5,1.5,4,0,5.5c-1.6,1.5-4.1,1.5-5.7,0
			c-1.5-1.5-1.5-4,0-5.5C-151.8-47.2-150.8-47.6-149.8-47.6z M-148.4-45.2c-0.8-0.8-2-0.8-2.8,0c-0.7,0.8-0.7,2.1,0,2.9
			c0.8,0.8,2,0.8,2.8,0C-147.6-43.1-147.6-44.4-148.4-45.2z"/>
		<path id="Caminho_7" class="st1" d="M-142.2-51v10.9h-2V-51H-142.2z"/>
		<path id="Caminho_8" class="st1" d="M-136.7-47.6c0.6,0,1.1,0.1,1.7,0.4c0.5,0.2,0.9,0.6,1.3,1l-1.4,1.2c-0.4-0.5-1-0.7-1.6-0.7
			c-0.5,0-1,0.2-1.3,0.6c-0.7,0.8-0.7,2.1,0,2.9c0.3,0.4,0.8,0.6,1.3,0.6c0.6,0,1.2-0.3,1.6-0.7l1.4,1.2c-0.7,0.9-1.8,1.4-2.9,1.4
			c-1,0-2.1-0.3-2.8-1.1c-1.4-1.6-1.4-4,0-5.5C-138.8-47.3-137.7-47.7-136.7-47.6z"/>
		<path id="Caminho_9" class="st1" d="M-130.3-51v4.4c0.5-0.7,1.3-1,2.1-1c1.5-0.1,2.8,1.1,2.9,2.6c0,0.1,0,0.2,0,0.3v4.7h-2v-4
			c0-0.4-0.1-0.9-0.4-1.2c-0.3-0.3-0.7-0.4-1.1-0.4c-0.4,0-0.8,0.1-1.1,0.4c-0.3,0.3-0.5,0.8-0.4,1.2v4h-2V-51H-130.3z"/>
		<path id="Caminho_10" class="st1" d="M-119.9-47.6c1.1,0,2.1,0.4,2.8,1.1c1.5,1.5,1.5,4,0,5.5c-1.6,1.5-4.1,1.5-5.7,0
			c-1.5-1.5-1.5-4,0-5.5C-122-47.2-120.9-47.6-119.9-47.6z M-121.8-48.6l-1-1.1c0.5-0.6,1.2-1,2-1c0.3,0,0.6,0,0.9,0.1
			c0.2,0.1,0.4,0.2,0.7,0.3c0.1,0.1,0.3,0.1,0.4,0.1c0.4-0.1,0.7-0.2,0.9-0.5l1.1,1.1c-0.5,0.6-1.2,1-2,1c-0.3,0-0.6,0-0.8-0.1
			c-0.2-0.1-0.4-0.2-0.7-0.3c-0.1-0.1-0.3-0.1-0.5-0.1C-121.2-49-121.6-48.8-121.8-48.6z M-118.5-45.2c-0.8-0.8-2-0.8-2.8,0
			c-0.7,0.8-0.7,2.1,0,2.9c0.8,0.8,2,0.8,2.8,0C-117.8-43.1-117.8-44.4-118.5-45.2z"/>
		<path id="Caminho_11" class="st1" d="M-111.1-47.6c1,0,1.9,0.4,2.6,1.1c0.7,0.8,1,1.8,1,2.8c0,0.2,0,0.4,0,0.7h-5.2
			c0.1,0.4,0.3,0.9,0.6,1.1c0.4,0.3,0.8,0.4,1.2,0.4c0.3,0,0.7-0.1,1-0.2c0.3-0.1,0.6-0.3,0.9-0.5l1.2,1.3c-0.9,0.8-2,1.2-3.1,1.1
			c-1,0-2-0.3-2.7-1.1c-0.7-0.7-1.1-1.7-1.1-2.8c0-1,0.3-2,1-2.8C-113-47.3-112.1-47.7-111.1-47.6z M-111.1-45.9
			c-0.4,0-0.8,0.1-1.1,0.4c-0.3,0.3-0.5,0.7-0.6,1.1h3.2c-0.1-0.4-0.3-0.8-0.5-1.1C-110.3-45.8-110.7-45.9-111.1-45.9L-111.1-45.9z"
			/>
		<path id="Caminho_12" class="st1" d="M-100-46.9l-0.7,1.5c-0.4-0.2-0.7-0.3-1.1-0.4c-0.4-0.1-0.8-0.2-1.2-0.2
			c-0.3,0-0.6,0-0.8,0.2c-0.2,0.1-0.3,0.3-0.3,0.5c0,0.2,0.1,0.4,0.3,0.4c0.3,0.1,0.6,0.2,0.9,0.2l0.6,0.1c1.6,0.3,2.5,1,2.5,2.2
			c0,0.7-0.3,1.4-0.9,1.8c-0.7,0.5-1.6,0.7-2.5,0.7c-1.1,0.1-2.3-0.2-3.3-0.9l0.8-1.5c0.7,0.5,1.6,0.7,2.5,0.7
			c0.9,0,1.4-0.2,1.4-0.7c0-0.2-0.1-0.4-0.3-0.4c-0.3-0.1-0.6-0.2-0.9-0.2l-0.6-0.1c-1.7-0.2-2.5-1-2.5-2.2c0-0.7,0.3-1.3,0.8-1.8
			c0.7-0.5,1.5-0.7,2.3-0.6C-102-47.6-101-47.4-100-46.9z"/>
	</g>
</g>
</svg>
