<?xml version="1.0" encoding="utf-8"?>
<!-- Generator: Adobe Illustrator 26.0.1, SVG Export Plug-In . SVG Version: 6.00 Build 0)  -->
<svg version="1.1" id="Layer_1" xmlns="http://www.w3.org/2000/svg" xmlns:xlink="http://www.w3.org/1999/xlink" x="0px" y="0px"
	 viewBox="0 0 200 15" style="enable-background:new 0 0 200 15;" xml:space="preserve">
<style type="text/css">
	.st0{fill:#B3CA00;}
</style>
<g id="Grupo_4723" transform="translate(-713.003 -1255.996)">
	<g id="Grupo_454" transform="translate(713.003 1260.56)">
		<path id="Caminho_182" class="st0" d="M9.5,7l1.4-8h2.2l-1.4,8H9.5z M19.6-0.9c-0.6-0.2-1.3-0.3-2-0.3c-2.2,0-3.7,1.1-3.7,2.6
			c0,1.2,1.1,1.8,1.9,2.2C16.7,4,17,4.3,17,4.6c0,0.5-0.7,0.8-1.3,0.8c-0.7,0-1.4-0.1-2.1-0.4l-0.3-0.1l-0.3,1.8
			c0.8,0.3,1.6,0.4,2.4,0.4c2.3,0,3.8-1.1,3.8-2.7c0-0.9-0.6-1.6-1.8-2.2c-0.8-0.4-1.2-0.6-1.2-1c0-0.3,0.4-0.7,1.3-0.7
			c0.6,0,1.1,0.1,1.6,0.3l0.2,0.1L19.6-0.9 M25.3-1h-1.7c-0.5-0.1-1,0.2-1.1,0.7L19.2,7h2.3c0,0,0.4-1,0.5-1.2l2.8,0
			C24.8,6.1,25,7,25,7h2L25.3-1L25.3-1z M22.6,4.1c0.2-0.5,0.9-2.2,0.9-2.2c0,0,0.2-0.5,0.3-0.8l0.1,0.7c0,0,0.4,1.9,0.5,2.3H22.6z
			 M7.7-1L5.5,4.4L5.3,3.3C4.8,1.9,3.7,0.7,2.3,0l2,7h2.3L10-1L7.7-1"/>
		<path id="Caminho_183" class="st0" d="M3.6-1.6H0l0,0.2c2.7,0.7,4.6,2.3,5.3,4.2L4.5-0.9C4.4-1.3,4-1.6,3.6-1.6"/>
	</g>
	<g id="Grupo_455" transform="translate(779.029 1255.996)">
		<path id="Caminho_184" class="st0" d="M-22.8,8.8c0-0.3,0.1-0.5,0.1-0.8c0-0.3,0.3-2,0.3-2h0.5c0.3-1.4,1-2.8,2.1-3.8
			c-1.2-1.1-2.8-1.6-4.5-1.6c-3.8,0-6.9,3.1-6.9,6.9c0,3.8,3.1,6.9,6.9,6.9c1.6,0,3.2-0.6,4.5-1.6c-1-0.9-1.7-2.1-2-3.4
			c-0.1,0-0.3,0.1-0.4,0.1c-0.2,0-0.3,0-0.5-0.2C-22.8,9.1-22.8,8.9-22.8,8.8z M-28.2,9.4l0.4-2.7l-1,2.7h-0.5l-0.1-2.7l-0.5,2.7
			h-0.7l0.6-3.6h1.1l0,2.2l0.7-2.2h1.2l-0.6,3.6H-28.2z M-25.7,9.4l0-0.3c-0.2,0.2-0.5,0.4-0.8,0.4c-0.2,0-0.4-0.1-0.5-0.2
			c-0.1-0.2-0.2-0.4-0.2-0.6c0-0.7,0.5-1.1,1.3-1.1c0.1,0,0.2,0,0.3,0c0-0.1,0-0.1,0-0.2c0-0.2-0.1-0.3-0.5-0.3
			c-0.3,0-0.5,0-0.8,0.1c0,0,0.1-0.7,0.1-0.7c0.3-0.1,0.6-0.1,0.9-0.2c0.7,0,1,0.3,1,0.9c0,0.2,0,0.4-0.1,0.6
			C-24.9,8.2-25,9.1-25,9.4L-25.7,9.4z M-23.4,7.6c0.3,0.1,0.6,0.4,0.5,0.8c0,0.7-0.4,1-1.2,1c-0.3,0-0.5,0-0.8-0.1
			c0,0,0.1-0.7,0.1-0.7c0.2,0.1,0.5,0.1,0.7,0.1c0.3,0,0.4-0.1,0.4-0.3c0-0.1,0-0.2-0.4-0.3c-0.3-0.1-0.6-0.4-0.6-0.8
			c0-0.5,0.3-1,1.1-1c0.2,0,0.4,0,0.7,0.1l-0.1,0.7c-0.2,0-0.4,0-0.5,0c-0.2,0-0.4,0.1-0.4,0.2C-23.8,7.4-23.7,7.5-23.4,7.6
			L-23.4,7.6z"/>
		<path id="Caminho_185" class="st0" d="M-26.4,8.5c0,0.1,0,0.2,0.1,0.2c0.1,0.1,0.1,0.1,0.2,0.1c0.3,0,0.5-0.3,0.5-0.7
			c-0.1,0-0.1,0-0.2,0C-26.2,8.1-26.4,8.2-26.4,8.5z"/>
		<path id="Caminho_186" class="st0" d="M-13.7,8.1c-0.4,0-0.7,0.1-0.7,0.4c0,0.1,0,0.2,0.1,0.2c0.1,0.1,0.1,0.1,0.2,0.1
			c0.3,0,0.5-0.3,0.5-0.7C-13.6,8.1-13.7,8.1-13.7,8.1z"/>
		<path id="Caminho_187" class="st0" d="M-14.6,0.6c-1.6,0-3.2,0.6-4.5,1.6c1.2,1.1,1.9,2.6,2.2,4.2c0.3-0.5,0.8-0.7,1.3-0.7
			c0.3,0,0.6,0.1,0.8,0.2l-0.1,0.8c-0.2-0.1-0.4-0.2-0.7-0.2c-0.6,0-1,0.6-1,1.3c0,0.5,0.3,0.9,0.7,0.9c0.2,0,0.4-0.1,0.6-0.2
			l-0.1,0.8c-0.2,0.1-0.4,0.1-0.7,0.1c-0.4,0-0.8-0.2-1-0.4c-0.3,1.5-1,2.8-2.1,3.8c1.2,1.1,2.8,1.6,4.5,1.6c3.8,0,6.9-3.1,6.9-6.9
			C-7.7,3.7-10.8,0.6-14.6,0.6z M-13,9.4h-0.6l0-0.3c-0.2,0.2-0.5,0.4-0.8,0.4c-0.2,0-0.4-0.1-0.5-0.2c-0.1-0.2-0.2-0.4-0.2-0.6
			c0-0.7,0.5-1.1,1.3-1.1c0.1,0,0.2,0,0.3,0c0-0.1,0-0.1,0-0.2c0-0.2-0.1-0.3-0.5-0.3c-0.3,0-0.5,0-0.8,0.1l0.1-0.7
			c0.3-0.1,0.6-0.1,0.9-0.2c0.7,0,1,0.3,1,0.9c0,0.2,0,0.4-0.1,0.6C-12.8,8.2-13,9.1-13,9.4L-13,9.4z M-12,9.4h-0.8l0-0.2
			c0.1-0.9,0.3-1.8,0.4-2.7h0.7c0,0.1,0,0.3,0,0.4c0.2-0.3,0.4-0.5,0.7-0.5c-0.1,0.3-0.2,0.5-0.3,0.8C-11.6,7.2-11.7,7.6-12,9.4
			L-12,9.4z M-9.7,9.4l0-0.3c-0.2,0.2-0.4,0.3-0.7,0.3c-0.6,0-0.9-0.5-0.9-1.2c0-1,0.6-1.8,1.2-1.8c0.3,0,0.6,0.1,0.7,0.4l0.2-1h0.8
			l-0.6,3.6L-9.7,9.4z"/>
		<path id="Caminho_188" class="st0" d="M-9.9,7.1c-0.3,0-0.6,0.4-0.6,1c0,0.4,0.1,0.6,0.4,0.6c0.4,0,0.6-0.4,0.6-1
			C-9.5,7.3-9.6,7.1-9.9,7.1z"/>
		<path id="Caminho_189" class="st0" d="M-20.1,7c-0.2,0-0.4,0.2-0.5,0.5h0.8C-19.7,7.5-19.7,7-20.1,7z"/>
		<path id="Caminho_190" class="st0" d="M-17.3,7.4c0-0.2,0-0.5,0-0.7c-0.1,0.2-0.1,0.3-0.1,0.5c-0.4,0-0.5,0.3-0.8,2.1H-19l0-0.2
			c0.1-0.9,0.3-1.8,0.4-2.7h0.7c0,0.1,0,0.3,0,0.4c0.2-0.3,0.3-0.4,0.5-0.5c-0.2-1.5-1-2.9-2-3.9c-1.1,1.1-1.8,2.4-2,3.9h0.2
			l-0.1,0.7h-0.2c0,0.1,0,0.2,0,0.4c0,1.9,0.8,3.7,2.1,5c1.2-1.2,2-2.8,2.1-4.4c0-0.1,0-0.1,0-0.2C-17.3,7.7-17.3,7.6-17.3,7.4
			L-17.3,7.4z M-20,8.8c0.3,0,0.5-0.1,0.8-0.2l-0.1,0.7c-0.3,0.1-0.5,0.1-0.8,0.1c-0.4,0-0.7-0.1-1-0.3c-0.3-0.3-0.4-0.6-0.3-1
			c0-1,0.6-1.7,1.3-1.7c0.3,0,0.6,0.1,0.8,0.3c0.2,0.2,0.3,0.5,0.3,0.8c0,0.2,0,0.5-0.1,0.7h-1.5C-20.7,8.6-20.4,8.7-20,8.8L-20,8.8
			z"/>
	</g>
	<path id="Caminho_191" class="st0" d="M868.6,1261h0.1l0.1,0l0.1,0l0.1-0.1l0.1-0.1l0-0.1l0-0.1v-0.3l0-0.1l0-0.1l-0.1,0l-0.1,0
		h-0.3l-0.1,0l-0.1,0l-0.1,0.1l-0.1,0.1l0,0.1l0,0.1l0,0.1l0,0.2l0,0.1l0,0.1l0.1,0l0.1,0L868.6,1261z M885.6,1265.3h0.4v-0.2l0-0.3
		c0-0.2,0.1-0.4,0.1-0.6c0-0.1,0.1-0.3,0.1-0.4c0-0.1,0-0.3,0.1-0.4c0-0.1,0.1-0.3,0.1-0.3c0,0,0-0.1,0-0.1c0-0.1,0-0.1,0.1-0.2
		l0.1-0.2l0.1-0.1l0.1-0.1l0.1-0.1c0.1,0,0.1-0.1,0.2-0.1l0.1,0h0.4l0.1,0l0.1,0l0,0l0,0v-0.1c0-0.1,0-0.2,0-0.3l0-0.2l0,0
		c0,0-0.1,0-0.1,0l-0.1,0h-0.3l-0.1,0l-0.1,0l-0.1,0.1l-0.1,0.1l-0.1,0.1l-0.1,0.1l-0.1,0.1c0,0,0,0.1-0.1,0.1c0,0,0-0.1,0-0.3
		s0.1-0.3,0.1-0.3v0h-0.6v0c0,0,0,0.1,0,0.2s-0.1,0.4-0.1,0.6c0,0.2-0.1,0.4-0.1,0.6c0,0.2-0.1,0.4-0.1,0.6c0,0.1-0.1,0.4-0.1,0.5
		s-0.1,0.4-0.1,0.5l-0.1,0.4l0,0.2L885.6,1265.3z M876.7,1265.3h0.4l0-0.2c0-0.1,0-0.3,0-0.4c0-0.1,0.1-0.4,0.1-0.6
		c0-0.2,0.1-0.5,0.1-0.7c0-0.2,0.1-0.4,0.1-0.4c0,0,0-0.1,0-0.1c0-0.1,0-0.1,0.1-0.2c0-0.1,0.1-0.2,0.1-0.3l0.1-0.1l0.1-0.1l0.1-0.1
		l0.1-0.1l0.1-0.1h0.4l0.1,0c0.1,0,0.1,0,0.1,0c0,0,0,0,0,0s0-0.1,0-0.3c0-0.1,0-0.2,0-0.2c0,0-0.1,0-0.1,0c-0.1,0-0.1,0-0.2,0
		l-0.1,0l-0.1,0c-0.1,0-0.1,0-0.2,0.1c-0.1,0-0.1,0.1-0.2,0.1c-0.1,0-0.1,0.1-0.2,0.1c-0.1,0.1-0.1,0.1-0.2,0.2
		c0,0.1-0.1,0.1-0.1,0.2l0,0l0-0.1c0,0,0-0.2,0.1-0.3c0-0.1,0-0.2,0-0.2l0,0H877v0c0,0,0,0.2,0,0.3c0,0.1-0.1,0.4-0.1,0.5
		s-0.1,0.4-0.1,0.6c0,0.2-0.1,0.4-0.1,0.6c-0.1,0.4-0.1,0.7-0.2,1.1c0,0.1-0.1,0.3-0.1,0.4c0,0.1,0,0.1,0,0.1v0L876.7,1265.3z
		 M867.9,1265.3h0.4l0,0c0,0,0-0.1,0-0.1c0,0,0-0.2,0.1-0.4c0.1-0.4,0.1-0.8,0.2-1.2c0-0.2,0.1-0.3,0.1-0.5c0-0.1,0.1-0.4,0.1-0.5
		s0.1-0.4,0.1-0.6s0.1-0.3,0.1-0.3l0,0l-0.4,0l-0.4,0l0,0.2c0,0.1-0.1,0.4-0.1,0.6c0,0.2-0.1,0.5-0.1,0.6c0,0.2-0.1,0.4-0.1,0.6
		c0,0.1-0.1,0.4-0.1,0.5c0,0.1-0.1,0.4-0.1,0.5c0,0.1-0.1,0.3-0.1,0.4c0,0.1,0,0.2,0,0.2l0,0L867.9,1265.3z M863.2,1265.3h0.4l0-0.2
		c0-0.1,0.1-0.3,0.1-0.4l0.1-0.6c0-0.2,0.1-0.4,0.1-0.6c0-0.1,0.1-0.4,0.1-0.5c0-0.1,0-0.2,0.1-0.2l0,0h2.3l0,0l0,0l0,0.1
		c0,0.1,0,0.2-0.1,0.4c0,0.2-0.1,0.4-0.1,0.6c0,0.2-0.1,0.3-0.1,0.5c0,0.1-0.1,0.4-0.1,0.6c0,0.2-0.1,0.4-0.1,0.4v0h0.9l0-0.1
		c0-0.1,0-0.2,0-0.2s0-0.2,0.1-0.3c0-0.1,0.1-0.3,0.1-0.5c0-0.2,0.1-0.4,0.1-0.6c0-0.2,0.1-0.4,0.1-0.6c0-0.2,0.1-0.4,0.1-0.5
		c0-0.1,0.1-0.4,0.1-0.6c0-0.2,0.1-0.4,0.1-0.5c0-0.1,0.1-0.4,0.1-0.5c0-0.2,0.1-0.4,0.1-0.4l0-0.1h-0.9l0,0.1c0,0,0,0.2,0,0.3
		c0,0.1-0.1,0.3-0.1,0.4s-0.1,0.4-0.1,0.6s-0.1,0.3-0.1,0.5l0,0.2l-0.6,0l-0.6,0l-0.5,0c-0.3,0-0.5,0-0.5,0c0-0.1,0-0.1,0-0.2
		c0-0.1,0-0.2,0.1-0.3c0-0.1,0.1-0.3,0.1-0.4c0-0.1,0.1-0.3,0.1-0.4c0-0.1,0-0.2,0-0.2c0-0.1,0-0.2,0.1-0.3s0-0.2,0-0.2l0,0h-0.9
		l0,0.2c0,0.1,0,0.2,0,0.3c0,0.1,0,0.3-0.1,0.4c0,0.2-0.1,0.5-0.1,0.6l-0.1,0.6c0,0.2-0.1,0.4-0.1,0.6c0,0.2-0.1,0.3-0.1,0.5
		c0,0.1-0.1,0.3-0.1,0.5c0,0.2-0.1,0.3-0.1,0.5c0,0.1-0.1,0.2-0.1,0.3c0,0,0,0.2-0.1,0.3c0,0.1,0,0.2,0,0.2v0L863.2,1265.3
		L863.2,1265.3z M888.7,1265.4h0.2l0.2,0c0.1,0,0.2,0,0.2-0.1c0.1,0,0.1,0,0.2-0.1l0.1-0.1l0.1-0.1l0.1-0.1l0.1-0.1
		c0,0,0.1-0.1,0.1-0.2l0,0l0,0.1c0,0.1,0,0.1,0,0.2c0,0,0,0.1,0,0.2l0,0.1h0.7v-0.2l0.1-0.4c0-0.2,0.1-0.6,0.1-0.7
		c0-0.2,0.1-0.4,0.1-0.5c0-0.1,0.1-0.3,0.1-0.5c0-0.1,0.1-0.4,0.1-0.5c0-0.2,0.1-0.4,0.1-0.6c0-0.1,0.1-0.4,0.1-0.5s0.1-0.4,0.1-0.5
		c0-0.2,0.1-0.3,0.1-0.5c0-0.1,0-0.2,0-0.2v0h-0.8l0,0.1c0,0.1,0,0.3-0.1,0.4c0,0.2-0.1,0.4-0.1,0.6c0,0.1,0,0.2-0.1,0.4l0,0.1l0,0
		c0,0-0.1,0-0.2-0.1l-0.2,0l-0.2,0l-0.2,0l-0.2,0l-0.2,0l-0.2,0l-0.2,0l-0.2,0.1l-0.2,0.1l-0.1,0.1l-0.1,0.1l-0.1,0.1
		c-0.1,0.1-0.1,0.1-0.2,0.2l-0.1,0.1l-0.1,0.2c-0.1,0.1-0.1,0.3-0.1,0.3c0,0.1-0.1,0.2-0.1,0.3l-0.1,0.2l0,0.3l0,0.3l0,0.2l0,0.2
		l0,0.1c0,0,0,0.1,0.1,0.2l0,0.1l0.1,0.1l0.1,0.1l0.1,0.1l0.1,0.1l0.1,0.1c0.1,0,0.1,0.1,0.2,0.1c0.1,0,0.1,0,0.2,0
		C888.5,1265.4,888.6,1265.4,888.7,1265.4L888.7,1265.4z M889,1264.9l-0.1,0l-0.1,0c-0.1,0-0.1,0-0.2-0.1l-0.1,0l-0.1-0.1l-0.1-0.1
		l-0.1-0.2l0-0.1l0-0.1v-0.5l0-0.2l0-0.2l0-0.1c0-0.1,0-0.1,0-0.2c0,0,0-0.1,0.1-0.1c0-0.1,0.1-0.2,0.1-0.2c0-0.1,0.1-0.1,0.1-0.2
		c0-0.1,0.1-0.1,0.2-0.2c0.1,0,0.1-0.1,0.2-0.1l0.1,0l0.1,0l0.1,0h0.6l0.2,0c0.1,0,0.2,0.1,0.2,0.1l0,0l0,0c0,0,0,0.1,0,0.3
		c0,0.1-0.1,0.3-0.1,0.5s-0.1,0.4-0.1,0.5c0,0.1-0.1,0.3-0.1,0.4s0,0.1-0.1,0.2c0,0.1,0,0.1-0.1,0.2c0,0.1-0.1,0.1-0.1,0.2
		c0,0-0.1,0.1-0.1,0.1c0,0-0.1,0.1-0.2,0.1l-0.1,0.1l-0.3,0.1L889,1264.9L889,1264.9z M882.8,1265.4l0.2,0l0.1,0l0.1,0l0.1,0
		c0.1,0,0.1-0.1,0.2-0.1c0.1,0,0.1-0.1,0.2-0.1c0.1-0.1,0.1-0.1,0.2-0.2c0,0,0-0.1,0.1-0.1c0,0.1,0,0.1,0,0.2c0,0.1,0,0.2,0,0.3v0.1
		h0.6l0-0.2l0-0.3l0-0.3c0-0.2,0.1-0.4,0.1-0.6c0-0.1,0.1-0.4,0.1-0.5c0-0.2,0.1-0.4,0.1-0.5l0-0.3v-0.4l-0.1-0.1l0-0.1l-0.1-0.1
		l-0.1-0.1l-0.1-0.1l-0.1-0.1l-0.3-0.1l-0.2,0l-0.2,0l-0.3,0c-0.2,0-0.4,0-0.5,0l-0.2,0h-0.3l0,0.1c0,0.1,0,0.2-0.1,0.3
		c0,0.1,0,0.1,0,0.2c0.1,0,0.1,0,0.2,0c0.1,0,0.3-0.1,0.4-0.1l0.3,0l0.2,0l0.2,0l0.3,0.1l0.1,0.1l0.1,0.1l0.1,0.1l0.1,0.1v0.3l0,0.1
		l0,0.1h-1.3l-0.2,0.1c-0.1,0-0.2,0.1-0.3,0.1c0,0-0.1,0-0.1,0c-0.1,0-0.1,0.1-0.2,0.1l-0.1,0.1l-0.1,0.1c-0.1,0.1-0.1,0.1-0.2,0.2
		c0,0.1-0.1,0.1-0.1,0.2l-0.1,0.1l0,0.2l0,0.2v0.3l0,0.1l0,0.1l0,0.1c0,0.1,0.1,0.1,0.1,0.2l0.1,0.1l0.1,0.1l0.1,0.1l0.1,0
		c0.1,0,0.2,0,0.2,0.1l0.1,0L882.8,1265.4L882.8,1265.4z M883,1264.9l-0.1,0l-0.1,0c-0.1,0-0.1,0-0.2-0.1l-0.1,0l0-0.1
		c0,0-0.1-0.1-0.1-0.1l0-0.1l0-0.2l0-0.2l0-0.1c0-0.1,0.1-0.1,0.1-0.2l0.1-0.1l0.1-0.1l0.1-0.1l0.1-0.1l0.1-0.1l0.1,0l0.1,0h0.9l0,0
		l0,0l0,0.1c0,0.1,0,0.2-0.1,0.3c0,0.1-0.1,0.2-0.1,0.3s-0.1,0.1-0.1,0.1c0,0,0,0.1-0.1,0.1l-0.1,0.1l-0.1,0.1c0,0-0.1,0.1-0.1,0.1
		c0,0-0.1,0-0.1,0l-0.1,0l-0.1,0l-0.1,0L883,1264.9L883,1264.9z M879.9,1265.4h0.2l0.2,0c0.1,0,0.3,0,0.4-0.1c0.1,0,0.2,0,0.3-0.1
		c0.1,0,0.1,0,0.1-0.1c0-0.1,0-0.1,0-0.2c0-0.1,0-0.2,0-0.3c0,0,0-0.1,0-0.1c0,0,0,0,0,0c-0.1,0-0.1,0.1-0.2,0.1l-0.2,0.1l-0.2,0
		l-0.2,0l-0.2,0l-0.2,0l-0.1,0l-0.1,0l-0.1-0.1l-0.1-0.1l-0.1-0.1l-0.1-0.1l0-0.1l0-0.1v-0.4l0-0.2l0-0.2l0-0.1c0-0.1,0-0.1,0.1-0.2
		c0-0.1,0-0.1,0.1-0.2c0-0.1,0.1-0.2,0.1-0.2l0.1-0.1l0.1-0.1l0.1-0.1l0.1-0.1l0.1-0.1l0.1,0c0.1,0,0.2,0,0.2-0.1l0.1,0l0.2,0l0.2,0
		l0.2,0l0.2,0l0.1,0c0.1,0,0.1,0,0.1,0c0,0,0-0.1,0-0.1c0-0.1,0-0.2,0-0.3c0-0.1,0-0.1,0-0.2c-0.1,0-0.1,0-0.2,0c-0.1,0-0.3,0-0.5,0
		l-0.3,0l-0.2,0l-0.2,0l-0.2,0l-0.2,0l-0.1,0c-0.1,0-0.1,0.1-0.2,0.1c0,0-0.1,0.1-0.1,0.1c-0.1,0.1-0.1,0.1-0.2,0.2l-0.1,0.1
		l-0.1,0.1c-0.1,0.1-0.1,0.2-0.2,0.3l-0.1,0.2l-0.1,0.2c0,0.1-0.1,0.3-0.1,0.4l0,0.2l0,0.2l0,0.2v0.4l0,0.1l0,0.1l0.1,0.1l0.1,0.1
		l0.1,0.1l0.1,0.1l0.1,0.1l0.1,0.1l0.1,0.1l0.1,0.1l0.1,0c0.1,0,0.2,0,0.2,0.1C879.7,1265.4,879.8,1265.4,879.9,1265.4L879.9,1265.4
		z M874.3,1265.4h0.2l0.2,0c0.1,0,0.3,0,0.4,0c0.1,0,0.3,0,0.4-0.1l0.2,0l0-0.1c0,0,0-0.2,0.1-0.3l0-0.2l0,0l0,0l-0.1,0
		c0,0-0.1,0.1-0.2,0.1l-0.2,0.1l-0.2,0l-0.2,0h-0.6l-0.1,0c-0.1,0-0.1,0-0.2-0.1l-0.1,0l-0.1-0.1l-0.1-0.1l-0.1-0.1l0-0.1l0-0.1
		v-0.4l0-0.2l0-0.2l0.5,0l1,0l1,0l0-0.1c0-0.1,0-0.2,0.1-0.3l0-0.2v-0.3l0-0.1l0-0.1l0-0.1c0,0-0.1-0.1-0.1-0.1c0,0-0.1-0.1-0.1-0.1
		c0,0-0.1-0.1-0.2-0.1l-0.1,0l-0.2,0l-0.2,0l-0.2,0l-0.2,0l-0.2,0l-0.2,0l-0.2,0l-0.2,0l-0.1,0.1c-0.1,0-0.2,0.1-0.2,0.1
		c-0.1,0-0.1,0.1-0.2,0.1c0,0-0.1,0.1-0.2,0.2c-0.1,0.1-0.1,0.1-0.2,0.2c0,0.1-0.1,0.1-0.1,0.2c0,0.1-0.1,0.2-0.1,0.2
		c0,0-0.1,0.1-0.1,0.2c0,0.1-0.1,0.2-0.1,0.3c0,0.1-0.1,0.2-0.1,0.4l0,0.2v0.5l0,0.1c0,0.1,0,0.1,0.1,0.2c0,0.1,0,0.1,0.1,0.2
		c0,0.1,0.1,0.1,0.1,0.2c0,0.1,0.1,0.1,0.2,0.1c0.1,0,0.1,0.1,0.2,0.1l0.1,0l0.1,0c0.1,0,0.2,0,0.3,0.1S874.2,1265.4,874.3,1265.4
		L874.3,1265.4z M874.6,1262.9c-0.5,0-0.9,0-0.9,0s0-0.1,0-0.1c0-0.1,0.1-0.2,0.1-0.2l0.1-0.1l0.1-0.1l0.1-0.1l0.1-0.1
		c0.1,0,0.1-0.1,0.2-0.1c0.1,0,0.2,0,0.2,0l0.2,0l0.1,0l0.1,0l0.1,0l0.1,0l0.1,0.1c0,0,0.1,0.1,0.1,0.1l0,0l0,0.1l0,0.1l0,0.2l0,0.2
		H874.6z M869.4,1266.9L869.4,1266.9c0-0.1,0-0.1,0-0.1c0,0,0-0.1,0-0.2c0-0.1,0.1-0.3,0.1-0.5c0-0.2,0.1-0.4,0.1-0.6s0-0.3,0.1-0.4
		c0-0.1,0-0.1,0-0.2c0,0,0,0.1,0.1,0.1l0,0.1l0.1,0.1l0.1,0.1l0.1,0l0.1,0l0.1,0l0.1,0l0.2,0l0.2,0l0.2-0.1l0.2-0.1l0.1,0
		c0.1,0,0.2-0.1,0.2-0.1l0.1-0.1l0.1-0.1c0.1-0.1,0.1-0.1,0.2-0.2c0,0,0.1-0.1,0.1-0.1c0,0,0-0.1,0.1-0.1c0-0.1,0.1-0.2,0.1-0.2
		c0-0.1,0.1-0.3,0.1-0.4l0.1-0.2l0-0.2c0-0.1,0-0.3,0.1-0.4l0-0.2l0-0.2l0-0.2l0-0.2l0-0.2l-0.1-0.1l-0.1-0.1l-0.1-0.1l-0.1-0.1
		l-0.3-0.1l-0.1,0l-0.1,0l-0.1,0l-0.1,0l-0.2,0l-0.2,0l-0.1,0l-0.1,0l-0.1,0.1c-0.1,0-0.1,0.1-0.2,0.1c0,0-0.1,0.1-0.1,0.1
		c0,0,0,0-0.1,0.1l0,0l0-0.2c0-0.1,0-0.2,0-0.2v0h-0.6l-0.1,0.4c0,0.2-0.1,0.5-0.1,0.7c-0.1,0.4-0.1,0.8-0.2,1.1
		c0,0.2-0.1,0.4-0.1,0.6c0,0.2-0.1,0.4-0.1,0.5c0,0.1-0.1,0.4-0.1,0.5c0,0.2-0.1,0.4-0.1,0.6c0,0.2-0.1,0.4-0.1,0.5
		c0,0.1-0.1,0.3-0.1,0.3l0,0L869.4,1266.9L869.4,1266.9z M870.5,1264.9L870.5,1264.9l-0.2,0l-0.1,0l-0.1,0l-0.1-0.1l-0.1-0.1l0-0.1
		c0-0.1,0-0.1-0.1-0.2l0-0.1l0-0.2l0-0.2l0-0.2c0-0.2,0.1-0.4,0.1-0.5c0-0.2,0.1-0.4,0.1-0.5l0-0.2l0.1-0.1c0.1-0.1,0.1-0.1,0.2-0.1
		l0.1-0.1l0.1,0l0.1,0l0.3,0l0.1,0l0.1,0l0.1,0l0.1,0l0.1,0.1l0.1,0.1l0,0.1c0,0.1,0.1,0.1,0.1,0.2l0,0.1l0,0.3l0,0.3l0,0.2
		c0,0.1-0.1,0.3-0.1,0.4l-0.1,0.2l-0.1,0.1c0,0.1-0.1,0.2-0.1,0.2c0,0.1-0.1,0.1-0.1,0.1c0,0-0.1,0.1-0.1,0.1l-0.1,0l-0.3,0.1
		L870.5,1264.9L870.5,1264.9z"/>
	<g id="Grupo_456" transform="translate(914.514 1257.079)">
		<path id="Caminho_192" class="st0" d="M-89.9,2.9c0.4-0.1,0.8-0.2,1.2-0.2c1.8,0,3.3,1.3,3.7,3l2.6-0.5c-0.6-3-3.2-5.1-6.2-5.1
			c-0.7,0-1.4,0.1-2,0.3L-89.9,2.9L-89.9,2.9z"/>
		<path id="Caminho_193" class="st0" d="M-93,11.2l1.7-2c-0.8-0.7-1.3-1.7-1.3-2.8c0-1.1,0.5-2.1,1.3-2.8l-1.7-2
			c-1.4,1.2-2.1,2.9-2.1,4.8C-95.1,8.2-94.3,10-93,11.2z"/>
		<path id="Caminho_194" class="st0" d="M-85.1,7.2c-0.4,1.7-1.9,3-3.7,3c-0.4,0-0.8-0.1-1.2-0.2l-0.8,2.5c0.7,0.2,1.3,0.3,2,0.3
			c3,0,5.6-2.1,6.2-5.1L-85.1,7.2L-85.1,7.2z"/>
		<path id="Caminho_195" class="st0" d="M-74,8.9c-0.4,0.4-1,0.7-1.6,0.7c-0.4,0-0.8-0.1-1.2-0.4l-0.9,1.4c0.6,0.4,1.3,0.6,2,0.6
			c1,0,2-0.4,2.8-1.1L-74,8.9L-74,8.9z M-75.5,3.4c-2.1,0-3.9,1.7-3.9,3.8c0,0.8,0.2,1.5,0.6,2.2l7-3C-72.2,4.7-73.7,3.4-75.5,3.4
			 M-77.8,7.5c0-0.1,0-0.2,0-0.3c0-1.3,1.1-2.3,2.3-2.2c0.7,0,1.3,0.3,1.7,0.8L-77.8,7.5z M-69.6,1.7v7.5l1.3,0.5l-0.6,1.5l-1.3-0.5
			c-0.3-0.1-0.5-0.3-0.6-0.5c-0.2-0.3-0.3-0.6-0.3-0.9V1.7L-69.6,1.7z M-64.9,5.1c0.2-0.1,0.5-0.1,0.7-0.1c1.1,0,2,0.8,2.2,1.8
			l1.6-0.3c-0.4-1.8-2-3.1-3.8-3.1c-0.4,0-0.8,0.1-1.2,0.2L-64.9,5.1L-64.9,5.1z M-66.8,10.2l1.1-1.2c-0.5-0.4-0.8-1.1-0.8-1.7
			c0-0.7,0.3-1.3,0.8-1.7l-1.1-1.2c-0.8,0.7-1.3,1.8-1.3,2.9C-68.1,8.4-67.6,9.5-66.8,10.2L-66.8,10.2z M-61.9,7.8
			c-0.2,1.1-1.2,1.8-2.2,1.8c-0.2,0-0.5,0-0.7-0.1l-0.5,1.5c0.4,0.1,0.8,0.2,1.2,0.2c1.8,0,3.4-1.3,3.8-3.1L-61.9,7.8L-61.9,7.8z"/>
	</g>
	<g id="Grupo_457" transform="translate(1061.081 1256.939)">
		<path id="Caminho_196" class="st0" d="M-154.8,0.1h-3c-1.7,0-3.4,0.6-4.6,1.9c-1.2,1.2-1.9,2.9-1.8,4.6c0,3.5,2.9,6.4,6.5,6.4h3
			c3.5,0,6.7-2.9,6.7-6.4c0-1.8-0.7-3.4-2-4.6C-151.3,0.8-153,0.1-154.8,0.1z M-157.8,12.4c-3.2,0-5.9-2.6-5.9-5.9
			c0-3.2,2.6-5.9,5.9-5.9c3.2,0,5.9,2.6,5.9,5.9C-151.9,9.8-154.5,12.4-157.8,12.4L-157.8,12.4z"/>
		<path id="Caminho_197" class="st0" d="M-161.5,6.5L-161.5,6.5c0,1.5,1,2.9,2.4,3.5v-7C-160.6,3.6-161.5,5-161.5,6.5L-161.5,6.5z"
			/>
		<path id="Caminho_198" class="st0" d="M-156.4,3.1v7l0,0c1.4-0.6,2.4-1.9,2.4-3.5C-154.1,5-155,3.6-156.4,3.1z"/>
	</g>
	<g id="Grupo_458" transform="translate(838.572 1258.842)">
		<path id="Caminho_199" class="st0" d="M-36.5,0.5l-0.6,1.4h1.2L-36.5,0.5z M-43.4,1.4c0.1-0.1,0.2-0.2,0.2-0.3
			c0-0.1-0.1-0.3-0.2-0.3c-0.1-0.1-0.3-0.1-0.4-0.1h-1.1v0.8h1.1C-43.6,1.4-43.5,1.4-43.4,1.4L-43.4,1.4z M-57.1,0.5l-0.6,1.4h1.2
			L-57.1,0.5z M-29.6,9.4h-1.7V8.6h1.7c0.1,0,0.2,0,0.4-0.1c0.1-0.1,0.1-0.1,0.1-0.2c0-0.1,0-0.2-0.1-0.2C-29.3,8-29.4,8-29.5,8
			c-0.8,0-1.8,0-1.8-1.1c0-0.5,0.3-1,1.2-1h1.7V5.2H-30c-0.4,0-0.8,0.1-1.1,0.3V5.2h-2.4c-0.4,0-0.7,0.1-1,0.3V5.2h-4.2v0.3
			c-0.4-0.2-0.8-0.3-1.2-0.3h-2.8v0.3c-0.4-0.2-0.8-0.3-1.2-0.3h-3.1L-47.8,6l-0.7-0.7h-4.7v4.9h4.6l0.7-0.8l0.7,0.8h2.8V8.9h0.3
			c0.4,0,0.8,0,1.2-0.2v1.3h2.3V8.8h0.1c0.1,0,0.2,0,0.2,0.1v1.1h7.1c0.4,0,0.8-0.1,1.2-0.3v0.3h2.3c0.4,0,0.9-0.1,1.3-0.2V8.9
			C-28.7,9.3-29.1,9.4-29.6,9.4L-29.6,9.4z M-44,8.2H-45v1.2h-1.7l-1.1-1.2l-1.1,1.2h-3.4V5.9h3.5l1.1,1.1l1.1-1.1h2.8
			c0.7,0,1.5,0.2,1.5,1.1S-43.2,8.2-44,8.2z M-38.7,8.1c0.1,0.2,0.2,0.4,0.1,0.6v0.7h-0.9V9c0-0.2,0-0.5-0.1-0.7
			c-0.2-0.1-0.4-0.2-0.6-0.2h-0.9v1.3H-42V5.9h2c0.4,0,0.7,0,1,0.2c0.3,0.1,0.5,0.4,0.4,0.8c0,0.4-0.2,0.8-0.6,0.9
			C-39,7.8-38.8,7.9-38.7,8.1L-38.7,8.1z M-35.2,6.7h-2v0.6h2V8h-2v0.7l2,0v0.7h-2.9V5.9h2.9L-35.2,6.7z M-32.9,9.4h-1.7V8.7h1.7
			c0.1,0,0.3,0,0.4-0.1c0.1-0.1,0.1-0.1,0.1-0.2c0-0.1,0-0.2-0.1-0.2C-32.7,8.1-32.8,8-32.9,8c-0.8,0-1.8,0-1.8-1.1
			c0-0.5,0.3-1,1.2-1h1.7v0.7h-1.6c-0.1,0-0.2,0-0.3,0.1c-0.1,0.1-0.1,0.1-0.1,0.2c0,0.1,0.1,0.2,0.2,0.3c0.1,0,0.2,0,0.3,0l0.5,0
			c0.4,0,0.7,0.1,1,0.3c0.2,0.2,0.3,0.5,0.3,0.7C-31.6,9.1-32,9.4-32.9,9.4L-32.9,9.4z M-39.7,6.7c-0.1-0.1-0.3-0.1-0.4-0.1h-1.1
			v0.8h1.1c0.1,0,0.3,0,0.4-0.1c0.1-0.1,0.2-0.2,0.2-0.3C-39.5,6.9-39.5,6.8-39.7,6.7L-39.7,6.7z M-30,6.6c-0.1,0-0.2,0-0.4,0.1
			c-0.1,0.1-0.1,0.2-0.1,0.3c0,0.1,0.1,0.2,0.2,0.3c0.1,0,0.2,0,0.3,0l0.5,0c0.4,0,0.7,0.1,1,0.3c0,0,0.1,0.1,0.1,0.1v-1L-30,6.6
			L-30,6.6z M-43.9,6.6h-1.1v0.9h1.1c0.3,0,0.5-0.2,0.5-0.5C-43.4,6.8-43.6,6.6-43.9,6.6L-43.9,6.6z M-51.5,6.6v0.6h1.9V8h-1.9v0.7
			h2.1l1-1l-1-1L-51.5,6.6z M-45.9,9.1V6.3l-1.3,1.4L-45.9,9.1L-45.9,9.1z M-51.4,3.5v0.6h7.3l0-1.3h0.1c0.1,0,0.1,0,0.1,0.2v1.1
			h3.8V3.8c0.4,0.2,0.9,0.3,1.4,0.3h1.6l0.3-0.8h0.7l0.3,0.8h3V3.4l0.5,0.7h2.4v-4.9h-2.4v0.6l-0.3-0.6H-35v0.6l-0.3-0.6h-3.3
			c-0.5,0-1,0.1-1.5,0.3v-0.3h-2.3v0.3c-0.3-0.2-0.6-0.3-1-0.3h-8.4l-0.6,1.3L-53-0.8h-2.7v0.6l-0.3-0.6h-2.3l-1.1,2.3v1.8l1.6-3.5
			h1.3l1.5,3.3v-3.3h1.4l1.1,2.4l1-2.4h1.4v3.5h-0.9l0-2.7l-1.3,2.7h-0.8l-1.3-2.7v2.7h-1.8l-0.3-0.8H-58l-0.3,0.8h-0.9v0.7h1.5
			l0.3-0.8h0.7l0.3,0.8h2.9V3.5l0.3,0.6h1.5L-51.4,3.5L-51.4,3.5z M-40,0.3c0.4-0.3,0.8-0.5,1.3-0.4h0.8v0.7h-0.8
			c-0.2,0-0.5,0-0.7,0.2c-0.2,0.2-0.3,0.5-0.3,0.8c0,0.3,0.1,0.6,0.2,0.8c0.2,0.1,0.4,0.2,0.6,0.2h0.4l1.2-2.7h1.3l1.5,3.3v-3.3h1.3
			l1.5,2.4v-2.4h0.9v3.5h-1.2l-1.6-2.6v2.6h-1.8l-0.3-0.8h-1.8l-0.3,0.8h-1c-0.5,0-0.9-0.1-1.3-0.4c-0.3-0.4-0.5-0.8-0.5-1.3
			C-40.5,1.2-40.3,0.7-40,0.3L-40,0.3z M-41.8-0.1h0.9v3.5h-0.9L-41.8-0.1z M-45.8-0.1h2c0.4,0,0.7,0,1.1,0.2
			c0.3,0.1,0.5,0.4,0.4,0.8c0,0.4-0.2,0.8-0.6,0.9c0.2,0.1,0.3,0.2,0.4,0.3c0.1,0.2,0.2,0.4,0.1,0.6v0.7h-0.9V3c0-0.2,0-0.5-0.1-0.7
			c-0.2-0.1-0.4-0.2-0.6-0.1h-0.9v1.3h-0.9L-45.8-0.1L-45.8-0.1z M-49.3-0.1h2.9v0.7h-2v0.6h2V2h-2v0.7h2v0.7h-2.9L-49.3-0.1z"/>
	</g>
</g>
</svg>
