<?xml version="1.0" encoding="utf-8"?>
<!-- Generator: Adobe Illustrator 26.0.1, SVG Export Plug-In . SVG Version: 6.00 Build 0)  -->
<svg version="1.1" id="Layer_1" xmlns="http://www.w3.org/2000/svg" xmlns:xlink="http://www.w3.org/1999/xlink" x="0px" y="0px"
	 viewBox="0 0 157 200" style="enable-background:new 0 0 157 200;" xml:space="preserve">
<style type="text/css">
	.st0{fill:url(#Caminho_28_00000075142001593466380780000009492043233715933344_);}
	.st1{fill:url(#Caminho_29_00000049189557816456903530000004839954127530798503_);}
	.st2{fill:url(#Caminho_30_00000085236066941861278130000018418327886648683711_);}
	.st3{fill:url(#Caminho_31_00000062150930347030242570000003142414596872980893_);}
	.st4{fill:url(#Caminho_32_00000123415629897938191160000017420411857103660964_);}
	.st5{fill:url(#Caminho_33_00000021077898378185174230000011596428507489422986_);}
	.st6{fill:url(#Caminho_34_00000106855040503037832270000000103740885151789722_);}
	.st7{fill:url(#Caminho_35_00000151522559516736381420000005635201150498658206_);}
	.st8{fill:url(#Caminho_36_00000153698560746590822530000008903781429840835493_);}
	.st9{fill:url(#Caminho_37_00000098917573460257807310000012083677040537787523_);}
	.st10{fill:url(#Caminho_38_00000149378748980702726340000011660162932291982244_);}
	.st11{fill:url(#Caminho_39_00000119081335179630412800000018247224015283594122_);}
	.st12{fill:url(#Caminho_40_00000009550131533607702920000004327611475113591982_);}
	.st13{fill:#FFFFFF;}
</style>
<g id="Grupo_35" transform="translate(-69.408 -26.113)">
	
		<linearGradient id="Caminho_28_00000030462089502574084850000010812888621801198503_" gradientUnits="userSpaceOnUse" x1="4.0058" y1="226.424" x2="4.2529" y2="226.2679" gradientTransform="matrix(481.549 0 0 -481.55 -1843.7095 109097.3828)">
		<stop  offset="0" style="stop-color:#794A2C"/>
		<stop  offset="0.255" style="stop-color:#FE9D2B"/>
		<stop  offset="0.539" style="stop-color:#F6E9B3"/>
		<stop  offset="0.8" style="stop-color:#FE9D2B"/>
		<stop  offset="1" style="stop-color:#794A2C"/>
	</linearGradient>
	<path id="Caminho_28" style="fill:url(#Caminho_28_00000030462089502574084850000010812888621801198503_);" d="M224.3,102.5
		l-8.6,10.7l4.9,12.9l-11.5,7.6l0.6,13.7l-13.3,3.6l-3.6,13.3l-13.7-0.6l-7.6,11.5l-12.9-4.9l-10.7,8.6l-10.7-8.6l-12.9,4.9
		l-7.6-11.5l-13.7,0.6L99.4,151l-13.3-3.6l0.6-13.7l-11.5-7.6l4.9-12.9l-8.6-10.7l8.6-10.7l-4.9-12.9l11.5-7.6l-0.6-13.7l13.3-3.6
		l3.6-13.3l13.7,0.6l7.6-11.5l12.9,4.9l10.7-8.6l10.7,8.6l12.9-4.9l7.6,11.5l13.7-0.6l3.6,13.3l13.3,3.6l-0.6,13.7l11.5,7.6
		l-4.9,12.9L224.3,102.5z"/>
	
		<linearGradient id="Caminho_29_00000007392950855696070270000001015751167876847039_" gradientUnits="userSpaceOnUse" x1="3.98" y1="226.3386" x2="4.2972" y2="226.3386" gradientTransform="matrix(475.837 0 0 -475.836 -1821.3872 107802.5078)">
		<stop  offset="0" style="stop-color:#794A2C"/>
		<stop  offset="0.255" style="stop-color:#FE9D2B"/>
		<stop  offset="0.539" style="stop-color:#F6E9B3"/>
		<stop  offset="0.8" style="stop-color:#FE9D2B"/>
		<stop  offset="1" style="stop-color:#794A2C"/>
	</linearGradient>
	<path id="Caminho_29" style="fill:url(#Caminho_29_00000007392950855696070270000001015751167876847039_);" d="M223.3,114.5
		l-10.2,9.3l2.8,13.5l-12.5,5.7l-1.6,13.7l-13.7,1.5l-5.7,12.5l-13.5-2.8l-9.3,10.2l-11.9-6.8l-12,6.8l-9.3-10.2l-13.5,2.8
		l-5.7-12.5l-13.7-1.6l-1.5-13.7l-12.5-5.7l2.8-13.5l-10.2-9.3l6.8-11.9l-6.8-12l10.2-9.3l-2.8-13.5l12.5-5.7L94,48.4l13.7-1.5
		l5.7-12.5l13.5,2.8L136,27l11.9,6.8l12-6.8l9.3,10.2l13.5-2.8l5.7,12.5l13.7,1.6l1.5,13.7l12.5,5.7l-2.8,13.5l10.2,9.3l-6.8,11.9
		L223.3,114.5z"/>
	<g id="Grupo_35-2" transform="translate(113.876 70.576)">
		
			<linearGradient id="Caminho_30_00000129916382953178322170000005467304370177467296_" gradientUnits="userSpaceOnUse" x1="-109.8472" y1="155.7044" x2="-109.5299" y2="155.7044" gradientTransform="matrix(392.614 0 0 -392.62 43099.2812 61164.5586)">
			<stop  offset="0" style="stop-color:#794A2C"/>
			<stop  offset="0.255" style="stop-color:#FE9D2B"/>
			<stop  offset="0.539" style="stop-color:#F6E9B3"/>
			<stop  offset="0.8" style="stop-color:#FE9D2B"/>
			<stop  offset="1" style="stop-color:#794A2C"/>
		</linearGradient>
		<path id="Caminho_30" style="fill:url(#Caminho_30_00000129916382953178322170000005467304370177467296_);" d="M34,94.2
			c-34.3,0-62.3-27.9-62.3-62.3S-0.3-30.4,34-30.4S96.3-2.4,96.3,31.9S68.4,94.2,34,94.2z M34-28.6c-33.4,0-60.5,27.1-60.5,60.5
			S0.7,92.4,34,92.4s60.5-27.1,60.5-60.5S67.4-28.6,34-28.6L34-28.6z"/>
	</g>
	
		<linearGradient id="Caminho_31_00000109026968055321785750000016561652092467385277_" gradientUnits="userSpaceOnUse" x1="3.9383" y1="226.6284" x2="4.2555" y2="226.6284" gradientTransform="matrix(279.756 0 0 -380.002 -971.7996 86285.1016)">
		<stop  offset="0" style="stop-color:#082648"/>
		<stop  offset="1" style="stop-color:#00497D"/>
	</linearGradient>
	<path id="Caminho_31" style="fill:url(#Caminho_31_00000109026968055321785750000016561652092467385277_);" d="M218.7,206.8
		l-32.4-11.6l-14.9,31L130,125l47.3-19.4L218.7,206.8z"/>
	<g id="Grupo_36" transform="translate(260.215 279.513)">
		
			<linearGradient id="Caminho_32_00000062882165000827869960000006416538055217771693_" gradientUnits="userSpaceOnUse" x1="-255.755" y1="-52.8343" x2="-255.4377" y2="-52.8343" gradientTransform="matrix(136.73 0 0 -318.369 34841.2188 -16927.457)">
			<stop  offset="0" style="stop-color:#794A2C"/>
			<stop  offset="0.255" style="stop-color:#FE9D2B"/>
			<stop  offset="0.539" style="stop-color:#F6E9B3"/>
			<stop  offset="0.8" style="stop-color:#FE9D2B"/>
			<stop  offset="1" style="stop-color:#794A2C"/>
		</linearGradient>
		<path id="Caminho_32" style="fill:url(#Caminho_32_00000062882165000827869960000006416538055217771693_);" d="M-87.5-56.1
			l2.7-5.6l-39.1-95.4l-4.3,1.7L-87.5-56.1z"/>
		
			<linearGradient id="Caminho_33_00000155121715888602299140000010058145735802864520_" gradientUnits="userSpaceOnUse" x1="-256.3804" y1="-52.9484" x2="-256.0631" y2="-52.9484" gradientTransform="matrix(141.672 0 0 -312.872 36232.5234 -16689.4902)">
			<stop  offset="0" style="stop-color:#794A2C"/>
			<stop  offset="0.255" style="stop-color:#FE9D2B"/>
			<stop  offset="0.539" style="stop-color:#F6E9B3"/>
			<stop  offset="0.8" style="stop-color:#FE9D2B"/>
			<stop  offset="1" style="stop-color:#794A2C"/>
		</linearGradient>
		<path id="Caminho_33" style="fill:url(#Caminho_33_00000155121715888602299140000010058145735802864520_);" d="M-44.5-73.8
			l-5.8-2.1l-39.1-95.4l4.3-1.7L-44.5-73.8z"/>
	</g>
	
		<linearGradient id="Caminho_34_00000136403586640266499990000007688445624082473126_" gradientUnits="userSpaceOnUse" x1="4.3373" y1="226.6284" x2="4.6545" y2="226.6284" gradientTransform="matrix(279.754 0 0 -380.002 -1135.2758 86285.1016)">
		<stop  offset="0" style="stop-color:#082648"/>
		<stop  offset="1" style="stop-color:#00497D"/>
	</linearGradient>
	<path id="Caminho_34" style="fill:url(#Caminho_34_00000136403586640266499990000007688445624082473126_);" d="M78.1,206.8
		l32.4-11.6l14.9,31L166.8,125l-47.3-19.4L78.1,206.8z"/>
	<g id="Grupo_37" transform="translate(99.444 279.513)">
		
			<linearGradient id="Caminho_35_00000101796525886994460180000003559458184467965833_" gradientUnits="userSpaceOnUse" x1="-94.8159" y1="-52.8343" x2="-94.4986" y2="-52.8343" gradientTransform="matrix(136.731 0 0 -318.369 12986.2002 -16927.457)">
			<stop  offset="0" style="stop-color:#794A2C"/>
			<stop  offset="0.255" style="stop-color:#FE9D2B"/>
			<stop  offset="0.539" style="stop-color:#F6E9B3"/>
			<stop  offset="0.8" style="stop-color:#FE9D2B"/>
			<stop  offset="1" style="stop-color:#794A2C"/>
		</linearGradient>
		<path id="Caminho_35" style="fill:url(#Caminho_35_00000101796525886994460180000003559458184467965833_);" d="M24.6-56.1
			l-2.7-5.6l39.1-95.4l4.3,1.7L24.6-56.1z"/>
		
			<linearGradient id="Caminho_36_00000101789448826455870640000004195245108851723661_" gradientUnits="userSpaceOnUse" x1="-94.2459" y1="-52.9484" x2="-93.9287" y2="-52.9484" gradientTransform="matrix(141.675 0 0 -312.872 13333.9014 -16689.4902)">
			<stop  offset="0" style="stop-color:#794A2C"/>
			<stop  offset="0.255" style="stop-color:#FE9D2B"/>
			<stop  offset="0.539" style="stop-color:#F6E9B3"/>
			<stop  offset="0.8" style="stop-color:#FE9D2B"/>
			<stop  offset="1" style="stop-color:#794A2C"/>
		</linearGradient>
		<path id="Caminho_36" style="fill:url(#Caminho_36_00000101789448826455870640000004195245108851723661_);" d="M-18.4-73.8
			l5.8-2.1l39.1-95.4l-4.3-1.7L-18.4-73.8z"/>
	</g>
	
		<linearGradient id="Caminho_37_00000002359852535702826400000002675851749470437019_" gradientUnits="userSpaceOnUse" x1="4.0215" y1="226.2892" x2="4.3387" y2="226.2892" gradientTransform="matrix(403.265 0 0 -403.259 -1537.7759 91355.6172)">
		<stop  offset="0" style="stop-color:#082648"/>
		<stop  offset="1" style="stop-color:#00497D"/>
	</linearGradient>
	<path id="Caminho_37" style="fill:url(#Caminho_37_00000002359852535702826400000002675851749470437019_);" d="M211.9,102.5
		c0,35.3-28.6,64-64,64s-64-28.6-64-64s28.6-64,64-64S211.9,67.1,211.9,102.5z"/>
	
		<linearGradient id="Caminho_38_00000154399495756159309400000017494742866026492551_" gradientUnits="userSpaceOnUse" x1="4.0459" y1="226.2601" x2="4.3632" y2="226.2601" gradientTransform="matrix(370.024 0 0 -370.024 -1407.8706 83824.1328)">
		<stop  offset="0" style="stop-color:#794A2C"/>
		<stop  offset="0.255" style="stop-color:#FE9D2B"/>
		<stop  offset="0.539" style="stop-color:#F6E9B3"/>
		<stop  offset="0.8" style="stop-color:#FE9D2B"/>
		<stop  offset="1" style="stop-color:#794A2C"/>
	</linearGradient>
	<path id="Caminho_38" style="fill:url(#Caminho_38_00000154399495756159309400000017494742866026492551_);" d="M147.9,43.8
		c-32.4,0-58.7,26.3-58.7,58.7c0,32.4,26.3,58.7,58.7,58.7s58.7-26.3,58.7-58.7C206.6,70.1,180.3,43.8,147.9,43.8z M147.9,150.1
		c-26.3,0-47.7-21.3-47.7-47.7s21.3-47.7,47.7-47.7c26.3,0,47.7,21.3,47.7,47.7C195.6,128.8,174.2,150.1,147.9,150.1
		C147.9,150.1,147.9,150.1,147.9,150.1z"/>
	<g id="Grupo_38" transform="translate(234.553 181.372)">
		
			<linearGradient id="Caminho_39_00000114780276277085618860000013700711516891478708_" gradientUnits="userSpaceOnUse" x1="-228.0472" y1="43.8426" x2="-228.0472" y2="44.1598" gradientTransform="matrix(54.9 0 0 -118.391 12417.8623 5122.9141)">
			<stop  offset="0" style="stop-color:#794A2C"/>
			<stop  offset="0.255" style="stop-color:#FE9D2B"/>
			<stop  offset="0.539" style="stop-color:#F6E9B3"/>
			<stop  offset="0.8" style="stop-color:#FE9D2B"/>
			<stop  offset="1" style="stop-color:#794A2C"/>
		</linearGradient>
		<path id="Caminho_39" style="fill:url(#Caminho_39_00000114780276277085618860000013700711516891478708_);" d="M-110.6-94.5v-10.7
			h17.4v37.6h-12v-26.9L-110.6-94.5z"/>
		
			<linearGradient id="Caminho_40_00000151535302890737174470000017325551689572139421_" gradientUnits="userSpaceOnUse" x1="-229.6139" y1="43.8406" x2="-229.6139" y2="44.1579" gradientTransform="matrix(84.214 0 0 -119.3633 19260.6973 5164.7983)">
			<stop  offset="0" style="stop-color:#794A2C"/>
			<stop  offset="0.255" style="stop-color:#FE9D2B"/>
			<stop  offset="0.539" style="stop-color:#F6E9B3"/>
			<stop  offset="0.8" style="stop-color:#FE9D2B"/>
			<stop  offset="1" style="stop-color:#794A2C"/>
		</linearGradient>
		<path id="Caminho_40" style="fill:url(#Caminho_40_00000151535302890737174470000017325551689572139421_);" d="M-78.3-86.1
			c2.7-2.8,4-5.4,4-7.8c0-0.7-0.1-1.3-0.5-1.9c-0.3-0.4-0.9-0.7-1.4-0.7c-0.7,0-1.2,0.4-1.6,1.1c-0.4,0.7-0.5,1.8-0.4,3.2h-11
			c0.1-3.2,0.8-5.8,2.1-7.9c1.2-2,2.9-3.5,5-4.5c2.1-1,4.4-1.5,6.8-1.4c4.4,0,7.6,1.1,9.6,3.2c2,2.1,3.1,4.8,3.1,8.1
			c0,3.5-1.1,6.7-3.3,9.7c-2.2,3.1-5.1,5.7-8.3,7.7h11.8v9.2h-26.6v-8.6C-84.6-80.2-81-83.3-78.3-86.1z"/>
	</g>
	<g id="Grupo_39" transform="translate(253.212 324.186)">
		<path id="Caminho_41" class="st13" d="M-117.2-196h-2.9l-0.4,1.3h-2.9l3.2-8.7h3.2l3.2,8.7h-2.9L-117.2-196z M-117.8-198l-0.8-2.4
			l-0.8,2.4H-117.8z"/>
		<path id="Caminho_42" class="st13" d="M-104.9-194.7h-2.7l-2.9-4.4v4.4h-2.7v-8.7h2.7l2.9,4.5v-4.5h2.7L-104.9-194.7z"/>
		<path id="Caminho_43" class="st13" d="M-101.7-195.2c-0.7-0.4-1.2-0.9-1.6-1.6c-0.8-1.4-0.8-3.2,0-4.6c0.4-0.7,1-1.2,1.6-1.6
			c1.4-0.8,3.1-0.8,4.5,0c0.7,0.4,1.2,0.9,1.6,1.6c0.8,1.4,0.8,3.2,0,4.6c-0.4,0.7-0.9,1.2-1.6,1.6
			C-98.6-194.4-100.3-194.4-101.7-195.2L-101.7-195.2z M-98.2-197.7c0.6-0.9,0.6-2,0-2.8c-0.7-0.7-1.8-0.7-2.5,0c0,0,0,0,0,0
			c-0.6,0.9-0.6,2,0,2.8C-100-197-98.9-197-98.2-197.7C-98.2-197.7-98.2-197.7-98.2-197.7z"/>
		<path id="Caminho_44" class="st13" d="M-93.1-195.3c-0.7-0.5-1.1-1.3-1.1-2.1h2.9c0,0.5,0.3,0.8,0.7,0.8c0.1,0,0.3,0,0.4-0.1
			c0.1-0.1,0.2-0.2,0.2-0.3c0-0.2-0.1-0.4-0.3-0.5c-0.3-0.2-0.7-0.3-1-0.4c-0.5-0.2-0.9-0.4-1.4-0.6c-0.4-0.2-0.7-0.5-0.9-0.8
			c-0.3-0.4-0.4-0.9-0.4-1.4c0-0.5,0.1-1,0.4-1.4c0.3-0.4,0.7-0.7,1.2-0.9c0.5-0.2,1.1-0.3,1.7-0.3c0.9,0,1.8,0.2,2.5,0.7
			c0.6,0.5,1,1.3,1,2.1h-2.9c0-0.2-0.1-0.4-0.2-0.5c-0.1-0.1-0.3-0.2-0.4-0.2c-0.1,0-0.2,0-0.3,0.1c-0.1,0.1-0.1,0.2-0.1,0.3
			c0,0.2,0.1,0.4,0.3,0.5c0.3,0.2,0.7,0.3,1,0.5c0.5,0.2,0.9,0.4,1.4,0.6c0.4,0.2,0.7,0.5,0.9,0.8c0.3,0.4,0.4,0.8,0.4,1.3
			c0,1-0.6,2-1.5,2.4c-0.6,0.3-1.2,0.4-1.8,0.4C-91.5-194.5-92.4-194.8-93.1-195.3z"/>
	</g>
</g>
</svg>
