<?xml version="1.0" encoding="utf-8"?>
<!-- Generator: Adobe Illustrator 26.0.1, SVG Export Plug-In . SVG Version: 6.00 Build 0)  -->
<svg version="1.1" id="Layer_1" xmlns="http://www.w3.org/2000/svg" xmlns:xlink="http://www.w3.org/1999/xlink" x="0px" y="0px"
	 viewBox="0 0 157 162" style="enable-background:new 0 0 157 162;" xml:space="preserve">
<style type="text/css">
	.st0{fill:url(#Caminho_71_00000182498748091032667320000014708923638482142603_);}
	.st1{fill:url(#Caminho_72_00000158738865874353343920000010792101236005786293_);}
	.st2{fill:url(#Caminho_73_00000120556026471862759520000013334217040157350291_);}
	.st3{fill:url(#Caminho_74_00000094585456306468633810000012873288681662626235_);}
	.st4{fill:url(#Caminho_75_00000127005547446144658870000000262957693783163566_);}
	.st5{opacity:0.8;}
	.st6{fill:#00305C;}
	.st7{opacity:0.8;fill:#00305C;enable-background:new    ;}
	.st8{fill:url(#Caminho_80_00000050631991176093911000000000990591931160060303_);}
	.st9{fill:url(#Caminho_81_00000028306305608363940100000013178442125538792333_);}
	.st10{fill:url(#Caminho_82_00000163772685117947043820000008287400382750084243_);}
</style>
<g id="Grupo_96" transform="translate(-5471.913 101.903)">
	
		<linearGradient id="Caminho_71_00000065054176787770373140000016085230583979328955_" gradientUnits="userSpaceOnUse" x1="5407.375" y1="97.519" x2="5407.7319" y2="97.519" gradientTransform="matrix(127.2129 0 0 -148.2955 -682367.125 14437.7422)">
		<stop  offset="0" style="stop-color:#CC7D27"/>
		<stop  offset="0.182" style="stop-color:#F2AB36"/>
		<stop  offset="0.351" style="stop-color:#FFD45D"/>
		<stop  offset="0.514" style="stop-color:#F8AF3C"/>
		<stop  offset="0.68" style="stop-color:#C17325"/>
		<stop  offset="0.858" style="stop-color:#F9B642"/>
		<stop  offset="0.975" style="stop-color:#FDCA54"/>
	</linearGradient>
	<path id="Caminho_71" style="fill:url(#Caminho_71_00000065054176787770373140000016085230583979328955_);" d="M5566-7
		c0-0.1-0.1-0.2-0.2-0.3c-0.1-0.1-0.2-0.2-0.3-0.3c-0.7-0.7-1.4-1.4-2.1-2.1c-0.7-0.7-1.4-1.4-2.1-2.1c-0.7-0.7-1.4-1.4-2.1-2.1
		c-0.7-0.7-1.4-1.4-2.1-2c-0.3-0.3-0.5-0.5-0.7-0.7c-0.2-0.2-0.4-0.4-0.6-0.5c-0.2-0.1-0.3-0.2-0.5-0.4c-0.1-0.1-0.3-0.1-0.4-0.2
		c-0.2,0-0.4,0-0.5,0c-0.2,0.1-0.4,0.2-0.6,0.3c-0.2,0.2-0.5,0.4-0.7,0.6c-0.3,0.2-0.5,0.5-0.9,0.9c-0.4,0.4-0.8,0.8-1.2,1.1
		c-0.4,0.3-0.8,0.5-1.3,0.7c-0.4,0.2-0.9,0.2-1.3,0.3c-0.4,0-0.9,0-1.3-0.1c-0.2,0-0.3-0.1-0.5-0.1c-0.2,0-0.3-0.1-0.5-0.1
		c-0.2-0.1-0.3-0.1-0.5-0.2c-0.2-0.1-0.3-0.1-0.5-0.2c-1.4-0.7-2.7-1.5-3.9-2.4c-1.2-0.9-2.2-2-3.1-3.1c-0.9-1.2-1.7-2.4-2.4-3.8
		c-0.7-1.4-1.2-2.9-1.6-4.4c-0.1-0.3-0.1-0.6-0.2-0.9c0-0.3-0.1-0.6-0.1-0.9c0-0.3,0-0.6,0-0.9c0-0.3,0.1-0.6,0.1-0.9
		c0-0.2,0.1-0.4,0.2-0.7c0.1-0.2,0.1-0.4,0.2-0.6c0.1-0.2,0.2-0.4,0.3-0.6c0.1-0.2,0.2-0.4,0.4-0.6c0.2-0.3,0.5-0.6,0.8-0.9
		c0.3-0.3,0.6-0.6,1-0.9c0.3-0.3,0.6-0.6,0.9-0.9c0.2-0.3,0.4-0.6,0.5-1c0-0.1,0-0.2,0-0.4c0-0.1,0-0.3,0-0.4c0-0.1-0.1-0.3-0.1-0.4
		c-0.1-0.1-0.1-0.3-0.2-0.4c-0.6-0.9-1.1-1.8-1.7-2.6c-0.6-0.9-1.1-1.7-1.7-2.6c-0.6-0.9-1.1-1.7-1.7-2.6c-0.6-0.9-1.1-1.7-1.7-2.6
		c0-0.1-0.1-0.1-0.1-0.1c0,0-0.1-0.1-0.1-0.1c0,0-0.1-0.1-0.1-0.1c-0.1,0-0.1,0-0.2,0c-0.5,0-1,0.2-1.4,0.5
		c-0.6,0.4-1.1,0.8-1.6,1.3c-0.5,0.5-1,1-1.4,1.4s-0.7,0.8-0.9,1c-0.5,0.5-1,1.1-1.5,1.6c-0.5,0.6-0.9,1.1-1.4,1.7
		c-0.4,0.6-0.8,1.2-1.1,1.9c-0.3,0.7-0.5,1.4-0.7,2.1c0,0.1,0,0.2-0.1,0.3c0,0.1,0,0.2,0,0.3c0,0.1,0,0.2,0,0.3c0,0.1,0,0.2,0,0.3
		c0,0.8,0,1.6,0.1,2.3c0.1,0.8,0.2,1.5,0.3,2.3c0.1,0.8,0.3,1.5,0.5,2.2c0.2,0.7,0.4,1.5,0.7,2.2c0.6,1.7,1.3,3.4,2.1,5.1
		c0.8,1.7,1.7,3.3,2.6,4.9c1,1.6,2,3.1,3.1,4.6c1.1,1.5,2.3,2.9,3.5,4.3c1.1,1.3,2.4,2.5,3.7,3.8c1.3,1.3,2.7,2.5,4.2,3.6
		c1.5,1.1,3,2.1,4.7,2.9c1.6,0.8,3.3,1.4,5.1,1.8c0.1,0,0.2,0,0.4,0.1c0.1,0,0.2,0,0.4,0.1c0.1,0,0.2,0,0.4,0.1c0.1,0,0.2,0,0.4,0
		c0.8,0.1,1.6,0,2.3-0.2c0.7-0.2,1.4-0.5,2.1-0.9c0.7-0.4,1.3-0.8,2-1.3c0.6-0.5,1.3-1,1.9-1.5c0.2-0.2,0.7-0.5,1.2-0.8
		s1.1-0.8,1.6-1.2c0.5-0.4,1-0.9,1.5-1.5c0.4-0.4,0.7-0.9,0.8-1.5c0-0.1,0-0.2,0-0.3C5566.1-6.8,5566.1-6.9,5566-7z"/>
	<g id="Grupo_101" transform="translate(5474.811 -99.007)">
		<g id="Grupo_96-2">
			
				<linearGradient id="Caminho_72_00000106858466498074533080000005684775313912840067_" gradientUnits="userSpaceOnUse" x1="-67.8238" y1="196.6345" x2="-67.6886" y2="197.3593" gradientTransform="matrix(234.6689 0 0 -240.1007 15972.7354 47360.7422)">
				<stop  offset="0" style="stop-color:#0B4725"/>
				<stop  offset="0.128" style="stop-color:#0F4D26"/>
				<stop  offset="0.315" style="stop-color:#1A612B"/>
				<stop  offset="0.537" style="stop-color:#2D8034"/>
				<stop  offset="0.783" style="stop-color:#46AC3F"/>
				<stop  offset="1" style="stop-color:#61D94B"/>
			</linearGradient>
			<path id="Caminho_72" style="fill:url(#Caminho_72_00000106858466498074533080000005684775313912840067_);" d="M108.9,64.3
				c-1.1-5.5-3.3-10.6-6.5-15.2c-3-4.4-6.9-8.1-11.4-11c-4.5-2.8-9.6-4.6-14.9-5.3c-5.2-0.6-10.5-0.2-15.6,1.4
				c-4.9,1.5-9.5,4-13.5,7.2c-4.1,3.3-7.6,7.2-10.3,11.7c-4.6,7.6-6.9,16.4-6.7,25.3c0,1.7,0.2,3.4,0.4,5c0.2,1.7,0.6,3.3,1,4.9
				l0.3,1l-5.6,16.7l14.8-0.1l0.8,0.9c1.2,1.3,2.6,2.5,4,3.5c1.4,1.1,2.9,2.1,4.4,2.9c7.9,4.5,17.1,5.9,25.9,4
				c5.3-1.1,10.3-3.4,14.8-6.5c4.6-3.3,8.6-7.4,11.7-12.2c3.3-5.1,5.5-10.7,6.6-16.6C110.2,76.2,110.1,70.1,108.9,64.3z M91.2,92.7
				c-0.1,0.6-0.4,1.1-0.8,1.5c-0.5,0.5-1,1-1.5,1.5c-0.6,0.5-1.1,0.9-1.6,1.2s-0.9,0.7-1.2,0.8c-0.6,0.5-1.3,1-1.9,1.5
				c-0.6,0.5-1.3,0.9-1.9,1.3c-0.7,0.4-1.4,0.7-2.1,0.9c-0.8,0.2-1.6,0.2-2.3,0.2c-0.1,0-0.2,0-0.4,0c-0.1,0-0.2,0-0.4-0.1
				c-0.1,0-0.2,0-0.4-0.1c-0.1,0-0.2,0-0.4-0.1c-1.8-0.4-3.5-1-5.1-1.8c-1.6-0.8-3.2-1.8-4.7-2.9c-1.5-1.1-2.9-2.3-4.2-3.6
				c-1.3-1.3-2.5-2.5-3.7-3.8c-1.2-1.4-2.4-2.8-3.5-4.3c-1.1-1.5-2.1-3-3.1-4.6c-0.9-1.6-1.8-3.2-2.6-4.9c-0.8-1.7-1.5-3.4-2.1-5.1
				c-0.2-0.7-0.5-1.4-0.7-2.2s-0.4-1.5-0.5-2.2c-0.1-0.8-0.3-1.5-0.3-2.3c-0.1-0.8-0.1-1.5-0.1-2.3c0-0.1,0-0.2,0-0.3
				c0-0.1,0-0.2,0-0.3c0-0.1,0-0.2,0-0.3c0-0.1,0-0.2,0-0.3c0.1-0.7,0.4-1.4,0.7-2.1c0.3-0.7,0.7-1.3,1.1-1.9
				c0.4-0.6,0.9-1.2,1.4-1.7c0.5-0.6,1-1.1,1.5-1.6c0.2-0.2,0.5-0.5,0.9-1c0.4-0.4,0.9-1,1.4-1.4c0.5-0.5,1-0.9,1.6-1.3
				c0.4-0.3,0.9-0.5,1.4-0.5c0.1,0,0.1,0,0.2,0c0.1,0,0.1,0,0.1,0.1c0,0,0.1,0.1,0.1,0.1c0,0,0.1,0.1,0.1,0.1
				c0.6,0.9,1.1,1.7,1.7,2.6c0.6,0.9,1.1,1.7,1.7,2.6c0.6,0.9,1.1,1.7,1.7,2.6c0.6,0.9,1.1,1.7,1.7,2.6c0.1,0.1,0.2,0.3,0.2,0.4
				c0.1,0.1,0.1,0.3,0.1,0.4c0,0.1,0,0.3,0,0.4c0,0.1,0,0.2,0,0.4c-0.1,0.4-0.2,0.7-0.5,1c-0.3,0.3-0.5,0.6-0.9,0.9
				c-0.3,0.3-0.6,0.6-1,0.9c-0.3,0.3-0.6,0.6-0.8,0.9c-0.1,0.2-0.2,0.4-0.4,0.6c-0.1,0.2-0.2,0.4-0.3,0.6c-0.1,0.2-0.2,0.4-0.2,0.6
				c-0.1,0.2-0.1,0.4-0.2,0.7c-0.1,0.3-0.1,0.6-0.1,0.9c0,0.3,0,0.6,0,0.9c0,0.3,0,0.6,0.1,0.9c0,0.3,0.1,0.6,0.2,0.9
				c0.4,1.5,1,3,1.6,4.4c0.7,1.3,1.5,2.6,2.4,3.8c0.9,1.2,2,2.2,3.1,3.1c1.2,1,2.5,1.8,3.9,2.4c0.2,0.1,0.3,0.1,0.5,0.2
				c0.2,0.1,0.3,0.1,0.5,0.2c0.2,0.1,0.3,0.1,0.5,0.1c0.2,0,0.3,0.1,0.5,0.1c0.4,0.1,0.9,0.1,1.3,0.1c0.4,0,0.9-0.1,1.3-0.3
				c0.4-0.2,0.9-0.4,1.3-0.7c0.4-0.3,0.9-0.7,1.2-1.1c0.3-0.3,0.6-0.6,0.9-0.9c0.2-0.2,0.4-0.4,0.7-0.6c0.2-0.1,0.4-0.2,0.6-0.3
				c0.2-0.1,0.4-0.1,0.5,0c0.2,0,0.3,0.1,0.4,0.2c0.2,0.1,0.3,0.2,0.5,0.4c0.2,0.1,0.4,0.3,0.6,0.5c0.2,0.2,0.5,0.4,0.7,0.7
				c0.7,0.7,1.4,1.4,2.1,2c0.7,0.7,1.4,1.4,2.1,2.1c0.7,0.7,1.4,1.4,2.1,2.1l2.1,2.1c0.1,0.1,0.2,0.2,0.2,0.3
				c0.1,0.2,0.2,0.4,0.2,0.6C91.3,92.5,91.3,92.6,91.2,92.7L91.2,92.7z"/>
			
				<linearGradient id="Caminho_73_00000141436040655424967460000016985398773409774224_" gradientUnits="userSpaceOnUse" x1="-68.1089" y1="197.1038" x2="-68.0333" y2="197.4954" gradientTransform="matrix(420.6973 0 0 -444.0759 28713.1797 87678.2344)">
				<stop  offset="0" style="stop-color:#0B4725"/>
				<stop  offset="0.128" style="stop-color:#0F4D26"/>
				<stop  offset="0.315" style="stop-color:#1A612B"/>
				<stop  offset="0.537" style="stop-color:#2D8034"/>
				<stop  offset="0.783" style="stop-color:#46AC3F"/>
				<stop  offset="1" style="stop-color:#61D94B"/>
			</linearGradient>
			<path id="Caminho_73" style="fill:url(#Caminho_73_00000141436040655424967460000016985398773409774224_);" d="M148,31.5
				c-1-4.5-3-8.7-5.8-12.4c-2.7-3.6-6.1-6.6-10.1-8.8c-4.1-2.2-8.5-3.6-13.2-4L47.7,0.2c-4-0.3-7.9,0.2-11.7,1.5
				c-3.7,1.3-7.2,3.3-10.2,5.9C22.7,10.3,20,13.5,18,17c-2.2,3.7-3.7,7.7-4.5,11.9L-0.4,99.4c-0.8,4.2-0.9,8.6-0.3,12.8
				c0.6,4.1,1.9,8,3.8,11.6c1.8,3.5,4.3,6.6,7.4,9.2c3,2.6,6.6,4.5,10.4,5.5l69.9,18.8c9.1,2.5,18.8,1,26.7-4.2
				c4-2.6,7.4-5.9,10-9.9c2.8-4.2,4.7-8.9,5.6-13.9l15.3-83.3C149.2,41.3,149.1,36.3,148,31.5z M115.9,83.2c-0.6,3.4-1.6,6.8-2.9,10
				c-1.2,3.2-2.8,6.2-4.6,9.1c-1.8,2.8-3.9,5.5-6.2,7.9c-2.3,2.4-4.9,4.6-7.6,6.5c-2.7,1.9-5.5,3.5-8.6,4.8c-2.9,1.2-5.9,2.2-9,2.8
				c-6,1.2-12.3,1.1-18.2-0.4c-3.8-0.9-7.5-2.3-10.9-4.3c-1.7-0.9-3.3-2-4.9-3.2c-1.6-1.2-3-2.4-4.4-3.8l-20.7,0l7.8-23.3
				c-0.4-1.8-0.7-3.6-1-5.4c-0.2-1.8-0.3-3.7-0.4-5.5c-0.1-3.7,0.3-7.4,1-11.1c0.6-3.1,1.4-6,2.5-9c1.1-2.9,2.4-5.6,4-8.3
				c1.6-2.6,3.3-5.1,5.3-7.4c2-2.3,4.2-4.5,6.6-6.4c2.4-1.9,4.9-3.6,7.6-5c2.6-1.4,5.4-2.6,8.2-3.4c2.8-0.9,5.8-1.4,8.7-1.7
				c3-0.3,6-0.3,9,0.1c3,0.3,6,1,8.8,2c2.9,1,5.6,2.2,8.2,3.8c2.6,1.6,5.1,3.5,7.3,5.6c2.3,2.2,4.4,4.6,6.2,7.3
				c1.9,2.7,3.5,5.6,4.8,8.6c1.3,3,2.3,6.2,3,9.4c0.7,3.3,1,6.7,1.1,10C116.8,76.4,116.5,79.8,115.9,83.2L115.9,83.2z"/>
		</g>
		<g id="Grupo_100">
			<g id="Grupo_97">
				
					<linearGradient id="Caminho_74_00000168820683067608355310000010889606698216413091_" gradientUnits="userSpaceOnUse" x1="-68.0203" y1="196.7232" x2="-67.2408" y2="197.3895" gradientTransform="matrix(234.6689 0 0 -240.1007 15972.7354 47360.7422)">
					<stop  offset="0" style="stop-color:#0B4725"/>
					<stop  offset="0.108" style="stop-color:#0F4D26"/>
					<stop  offset="0.266" style="stop-color:#1A612B"/>
					<stop  offset="0.453" style="stop-color:#2C8134"/>
					<stop  offset="0.663" style="stop-color:#46AD3F"/>
					<stop  offset="0.89" style="stop-color:#67E54E"/>
					<stop  offset="0.975" style="stop-color:#75FC54"/>
				</linearGradient>
				<path id="Caminho_74" style="fill:url(#Caminho_74_00000168820683067608355310000010889606698216413091_);" d="M108.9,64.3
					c-1.1-5.5-3.3-10.6-6.5-15.2c-3-4.4-6.9-8.1-11.4-11c-4.5-2.8-9.6-4.6-14.9-5.3c-5.2-0.6-10.5-0.2-15.6,1.4
					c-4.9,1.5-9.5,4-13.5,7.2c-4.1,3.3-7.6,7.2-10.3,11.7c-4.6,7.6-6.9,16.4-6.7,25.3c0,1.7,0.2,3.4,0.4,5c0.2,1.7,0.6,3.3,1,4.9
					l0.3,1l-5.6,16.7l14.8-0.1l0.8,0.9c1.2,1.3,2.6,2.5,4,3.5c1.4,1.1,2.9,2.1,4.4,2.9c7.9,4.5,17.1,5.9,25.9,4
					c5.3-1.1,10.3-3.4,14.8-6.5c4.6-3.3,8.6-7.4,11.7-12.2c3.3-5.1,5.5-10.7,6.6-16.6C110.2,76.2,110.1,70.1,108.9,64.3z M91.2,92.7
					c-0.1,0.6-0.4,1.1-0.8,1.5c-0.5,0.5-1,1-1.5,1.5c-0.6,0.5-1.1,0.9-1.6,1.2s-0.9,0.7-1.2,0.8c-0.6,0.5-1.3,1-1.9,1.5
					c-0.6,0.5-1.3,0.9-1.9,1.3c-0.7,0.4-1.4,0.7-2.1,0.9c-0.8,0.2-1.6,0.2-2.3,0.2c-0.1,0-0.2,0-0.4,0c-0.1,0-0.2,0-0.4-0.1
					c-0.1,0-0.2,0-0.4-0.1c-0.1,0-0.2,0-0.4-0.1c-1.8-0.4-3.5-1-5.1-1.8c-1.6-0.8-3.2-1.8-4.7-2.9c-1.5-1.1-2.9-2.3-4.2-3.6
					c-1.3-1.3-2.5-2.5-3.7-3.8c-1.2-1.4-2.4-2.8-3.5-4.3c-1.1-1.5-2.1-3-3.1-4.6c-0.9-1.6-1.8-3.2-2.6-4.9c-0.8-1.7-1.5-3.4-2.1-5.1
					c-0.2-0.7-0.5-1.4-0.7-2.2s-0.4-1.5-0.5-2.2c-0.1-0.8-0.3-1.5-0.3-2.3c-0.1-0.8-0.1-1.5-0.1-2.3c0-0.1,0-0.2,0-0.3
					c0-0.1,0-0.2,0-0.3c0-0.1,0-0.2,0-0.3c0-0.1,0-0.2,0-0.3c0.1-0.7,0.4-1.4,0.7-2.1c0.3-0.7,0.7-1.3,1.1-1.9
					c0.4-0.6,0.9-1.2,1.4-1.7c0.5-0.6,1-1.1,1.5-1.6c0.2-0.2,0.5-0.5,0.9-1c0.4-0.4,0.9-1,1.4-1.4c0.5-0.5,1-0.9,1.6-1.3
					c0.4-0.3,0.9-0.5,1.4-0.5c0.1,0,0.1,0,0.2,0c0.1,0,0.1,0,0.1,0.1c0,0,0.1,0.1,0.1,0.1c0,0,0.1,0.1,0.1,0.1
					c0.6,0.9,1.1,1.7,1.7,2.6c0.6,0.9,1.1,1.7,1.7,2.6c0.6,0.9,1.1,1.7,1.7,2.6c0.6,0.9,1.1,1.7,1.7,2.6c0.1,0.1,0.2,0.3,0.2,0.4
					c0.1,0.1,0.1,0.3,0.1,0.4c0,0.1,0,0.3,0,0.4c0,0.1,0,0.2,0,0.4c-0.1,0.4-0.2,0.7-0.5,1c-0.3,0.3-0.5,0.6-0.9,0.9
					c-0.3,0.3-0.6,0.6-1,0.9c-0.3,0.3-0.6,0.6-0.8,0.9c-0.1,0.2-0.2,0.4-0.4,0.6c-0.1,0.2-0.2,0.4-0.3,0.6c-0.1,0.2-0.2,0.4-0.2,0.6
					c-0.1,0.2-0.1,0.4-0.2,0.7c-0.1,0.3-0.1,0.6-0.1,0.9c0,0.3,0,0.6,0,0.9c0,0.3,0,0.6,0.1,0.9c0,0.3,0.1,0.6,0.2,0.9
					c0.4,1.5,1,3,1.6,4.4c0.7,1.3,1.5,2.6,2.4,3.8c0.9,1.2,2,2.2,3.1,3.1c1.2,1,2.5,1.8,3.9,2.4c0.2,0.1,0.3,0.1,0.5,0.2
					c0.2,0.1,0.3,0.1,0.5,0.2c0.2,0.1,0.3,0.1,0.5,0.1c0.2,0,0.3,0.1,0.5,0.1c0.4,0.1,0.9,0.1,1.3,0.1c0.4,0,0.9-0.1,1.3-0.3
					c0.4-0.2,0.9-0.4,1.3-0.7c0.4-0.3,0.9-0.7,1.2-1.1c0.3-0.3,0.6-0.6,0.9-0.9c0.2-0.2,0.4-0.4,0.7-0.6c0.2-0.1,0.4-0.2,0.6-0.3
					c0.2-0.1,0.4-0.1,0.5,0c0.2,0,0.3,0.1,0.4,0.2c0.2,0.1,0.3,0.2,0.5,0.4c0.2,0.1,0.4,0.3,0.6,0.5c0.2,0.2,0.5,0.4,0.7,0.7
					c0.7,0.7,1.4,1.4,2.1,2c0.7,0.7,1.4,1.4,2.1,2.1c0.7,0.7,1.4,1.4,2.1,2.1l2.1,2.1c0.1,0.1,0.2,0.2,0.2,0.3
					c0.1,0.2,0.2,0.4,0.2,0.6C91.3,92.5,91.3,92.6,91.2,92.7L91.2,92.7z"/>
				
					<linearGradient id="Caminho_75_00000023990394288338813670000017003143433693111997_" gradientUnits="userSpaceOnUse" x1="-68.2188" y1="197.144" x2="-67.784" y2="197.5043" gradientTransform="matrix(420.6973 0 0 -444.0759 28713.1797 87678.2344)">
					<stop  offset="0" style="stop-color:#0B4725"/>
					<stop  offset="0.108" style="stop-color:#0F4D26"/>
					<stop  offset="0.266" style="stop-color:#1A612B"/>
					<stop  offset="0.453" style="stop-color:#2C8134"/>
					<stop  offset="0.663" style="stop-color:#46AD3F"/>
					<stop  offset="0.89" style="stop-color:#67E54E"/>
					<stop  offset="0.975" style="stop-color:#75FC54"/>
				</linearGradient>
				<path id="Caminho_75" style="fill:url(#Caminho_75_00000023990394288338813670000017003143433693111997_);" d="M148,31.5
					c-1-4.5-3-8.7-5.8-12.4c-2.7-3.6-6.1-6.6-10.1-8.8c-4.1-2.2-8.5-3.6-13.2-4L47.7,0.2c-4-0.3-7.9,0.2-11.7,1.5
					c-3.7,1.3-7.2,3.3-10.2,5.9C22.7,10.3,20,13.5,18,17c-2.2,3.7-3.7,7.7-4.5,11.9L-0.4,99.4c-0.8,4.2-0.9,8.6-0.3,12.8
					c0.6,4.1,1.9,8,3.8,11.6c1.8,3.5,4.3,6.6,7.4,9.2c3,2.6,6.6,4.5,10.4,5.5l69.9,18.8c9.1,2.5,18.8,1,26.7-4.2
					c4-2.6,7.4-5.9,10-9.9c2.8-4.2,4.7-8.9,5.6-13.9l15.3-83.3C149.2,41.3,149.1,36.3,148,31.5z M115.9,83.2
					c-0.6,3.4-1.6,6.8-2.9,10c-1.2,3.2-2.8,6.2-4.6,9.1c-1.8,2.8-3.9,5.5-6.2,7.9c-2.3,2.4-4.9,4.6-7.6,6.5
					c-2.7,1.9-5.5,3.5-8.6,4.8c-2.9,1.2-5.9,2.2-9,2.8c-6,1.2-12.3,1.1-18.2-0.4c-3.8-0.9-7.5-2.3-10.9-4.3c-1.7-0.9-3.3-2-4.9-3.2
					c-1.6-1.2-3-2.4-4.4-3.8l-20.7,0l7.8-23.3c-0.4-1.8-0.7-3.6-1-5.4c-0.2-1.8-0.3-3.7-0.4-5.5c-0.1-3.7,0.3-7.4,1-11.1
					c0.6-3.1,1.4-6,2.5-9c1.1-2.9,2.4-5.6,4-8.3c1.6-2.6,3.3-5.1,5.3-7.4c2-2.3,4.2-4.5,6.6-6.4c2.4-1.9,4.9-3.6,7.6-5
					c2.6-1.4,5.4-2.6,8.2-3.4c2.8-0.9,5.8-1.4,8.7-1.7c3-0.3,6-0.3,9,0.1c3,0.3,6,1,8.8,2c2.9,1,5.6,2.2,8.2,3.8
					c2.6,1.6,5.1,3.5,7.3,5.6c2.3,2.2,4.4,4.6,6.2,7.3c1.9,2.7,3.5,5.6,4.8,8.6c1.3,3,2.3,6.2,3,9.4c0.7,3.3,1,6.7,1.1,10
					C116.8,76.4,116.5,79.8,115.9,83.2L115.9,83.2z"/>
			</g>
			<g id="Grupo_99">
				<g id="Grupo_98" class="st5">
					<path id="Caminho_76" class="st6" d="M108.9,64.3c-1.1-5.5-3.3-10.6-6.5-15.2c-3-4.4-6.9-8.1-11.4-11
						c-4.5-2.8-9.6-4.6-14.9-5.3c-5.2-0.6-10.5-0.2-15.6,1.4c-4.9,1.5-9.5,4-13.5,7.2c-4.1,3.3-7.6,7.2-10.3,11.7
						c-4.6,7.6-6.9,16.4-6.7,25.3c0,1.7,0.2,3.4,0.4,5c0.2,1.7,0.6,3.3,1,4.9l0.3,1l-5.6,16.7l14.8-0.1l0.8,0.9
						c1.2,1.3,2.6,2.5,4,3.5c1.4,1.1,2.9,2.1,4.4,2.9c7.9,4.5,17.1,5.9,25.9,4c5.3-1.1,10.3-3.4,14.8-6.5c4.6-3.3,8.6-7.4,11.7-12.2
						c3.3-5.1,5.5-10.7,6.6-16.6C110.2,76.2,110.1,70.1,108.9,64.3z M91.2,92.7c-0.1,0.6-0.4,1.1-0.8,1.5c-0.5,0.5-1,1-1.5,1.5
						c-0.6,0.5-1.1,0.9-1.6,1.2s-0.9,0.7-1.2,0.8c-0.6,0.5-1.3,1-1.9,1.5c-0.6,0.5-1.3,0.9-1.9,1.3c-0.7,0.4-1.4,0.7-2.1,0.9
						c-0.8,0.2-1.6,0.2-2.3,0.2c-0.1,0-0.2,0-0.4,0c-0.1,0-0.2,0-0.4-0.1c-0.1,0-0.2,0-0.4-0.1c-0.1,0-0.2,0-0.4-0.1
						c-1.8-0.4-3.5-1-5.1-1.8c-1.6-0.8-3.2-1.8-4.7-2.9c-1.5-1.1-2.9-2.3-4.2-3.6c-1.3-1.3-2.5-2.5-3.7-3.8
						c-1.2-1.4-2.4-2.8-3.5-4.3c-1.1-1.5-2.1-3-3.1-4.6c-0.9-1.6-1.8-3.2-2.6-4.9c-0.8-1.7-1.5-3.4-2.1-5.1
						c-0.2-0.7-0.5-1.4-0.7-2.2s-0.4-1.5-0.5-2.2c-0.1-0.8-0.3-1.5-0.3-2.3c-0.1-0.8-0.1-1.5-0.1-2.3c0-0.1,0-0.2,0-0.3
						c0-0.1,0-0.2,0-0.3c0-0.1,0-0.2,0-0.3c0-0.1,0-0.2,0-0.3c0.1-0.7,0.4-1.4,0.7-2.1c0.3-0.7,0.7-1.3,1.1-1.9
						c0.4-0.6,0.9-1.2,1.4-1.7c0.5-0.6,1-1.1,1.5-1.6c0.2-0.2,0.5-0.5,0.9-1c0.4-0.4,0.9-1,1.4-1.4c0.5-0.5,1-0.9,1.6-1.3
						c0.4-0.3,0.9-0.5,1.4-0.5c0.1,0,0.1,0,0.2,0c0.1,0,0.1,0,0.1,0.1c0,0,0.1,0.1,0.1,0.1c0,0,0.1,0.1,0.1,0.1
						c0.6,0.9,1.1,1.7,1.7,2.6c0.6,0.9,1.1,1.7,1.7,2.6c0.6,0.9,1.1,1.7,1.7,2.6c0.6,0.9,1.1,1.7,1.7,2.6c0.1,0.1,0.2,0.3,0.2,0.4
						c0.1,0.1,0.1,0.3,0.1,0.4c0,0.1,0,0.3,0,0.4c0,0.1,0,0.2,0,0.4c-0.1,0.4-0.2,0.7-0.5,1c-0.3,0.3-0.5,0.6-0.9,0.9
						c-0.3,0.3-0.6,0.6-1,0.9c-0.3,0.3-0.6,0.6-0.8,0.9c-0.1,0.2-0.2,0.4-0.4,0.6c-0.1,0.2-0.2,0.4-0.3,0.6
						c-0.1,0.2-0.2,0.4-0.2,0.6c-0.1,0.2-0.1,0.4-0.2,0.7c-0.1,0.3-0.1,0.6-0.1,0.9c0,0.3,0,0.6,0,0.9c0,0.3,0,0.6,0.1,0.9
						c0,0.3,0.1,0.6,0.2,0.9c0.4,1.5,1,3,1.6,4.4c0.7,1.3,1.5,2.6,2.4,3.8c0.9,1.2,2,2.2,3.1,3.1c1.2,1,2.5,1.8,3.9,2.4
						c0.2,0.1,0.3,0.1,0.5,0.2c0.2,0.1,0.3,0.1,0.5,0.2c0.2,0.1,0.3,0.1,0.5,0.1c0.2,0,0.3,0.1,0.5,0.1c0.4,0.1,0.9,0.1,1.3,0.1
						c0.4,0,0.9-0.1,1.3-0.3c0.4-0.2,0.9-0.4,1.3-0.7c0.4-0.3,0.9-0.7,1.2-1.1c0.3-0.3,0.6-0.6,0.9-0.9c0.2-0.2,0.4-0.4,0.7-0.6
						c0.2-0.1,0.4-0.2,0.6-0.3c0.2-0.1,0.4-0.1,0.5,0c0.2,0,0.3,0.1,0.4,0.2c0.2,0.1,0.3,0.2,0.5,0.4c0.2,0.1,0.4,0.3,0.6,0.5
						c0.2,0.2,0.5,0.4,0.7,0.7c0.7,0.7,1.4,1.4,2.1,2c0.7,0.7,1.4,1.4,2.1,2.1c0.7,0.7,1.4,1.4,2.1,2.1l2.1,2.1
						c0.1,0.1,0.2,0.2,0.2,0.3c0.1,0.2,0.2,0.4,0.2,0.6C91.3,92.5,91.3,92.6,91.2,92.7L91.2,92.7z"/>
					<path id="Caminho_77" class="st6" d="M148,31.5c-1-4.5-3-8.7-5.8-12.4c-2.7-3.6-6.1-6.6-10.1-8.8c-4.1-2.2-8.5-3.6-13.2-4
						L47.7,0.2c-4-0.3-7.9,0.2-11.7,1.5c-3.7,1.3-7.2,3.3-10.2,5.9C22.7,10.3,20,13.5,18,17c-2.2,3.7-3.7,7.7-4.5,11.9L-0.4,99.4
						c-0.8,4.2-0.9,8.6-0.3,12.8c0.6,4.1,1.9,8,3.8,11.6c1.8,3.5,4.3,6.6,7.4,9.2c3,2.6,6.6,4.5,10.4,5.5l69.9,18.8
						c9.1,2.5,18.8,1,26.7-4.2c4-2.6,7.4-5.9,10-9.9c2.8-4.2,4.7-8.9,5.6-13.9l15.3-83.3C149.2,41.3,149.1,36.3,148,31.5z
						 M115.9,83.2c-0.6,3.4-1.6,6.8-2.9,10c-1.2,3.2-2.8,6.2-4.6,9.1c-1.8,2.8-3.9,5.5-6.2,7.9c-2.3,2.4-4.9,4.6-7.6,6.5
						c-2.7,1.9-5.5,3.5-8.6,4.8c-2.9,1.2-5.9,2.2-9,2.8c-6,1.2-12.3,1.1-18.2-0.4c-3.8-0.9-7.5-2.3-10.9-4.3c-1.7-0.9-3.3-2-4.9-3.2
						c-1.6-1.2-3-2.4-4.4-3.8l-20.7,0l7.8-23.3c-0.4-1.8-0.7-3.6-1-5.4c-0.2-1.8-0.3-3.7-0.4-5.5c-0.1-3.7,0.3-7.4,1-11.1
						c0.6-3.1,1.4-6,2.5-9c1.1-2.9,2.4-5.6,4-8.3c1.6-2.6,3.3-5.1,5.3-7.4c2-2.3,4.2-4.5,6.6-6.4c2.4-1.9,4.9-3.6,7.6-5
						c2.6-1.4,5.4-2.6,8.2-3.4c2.8-0.9,5.8-1.4,8.7-1.7c3-0.3,6-0.3,9,0.1c3,0.3,6,1,8.8,2c2.9,1,5.6,2.2,8.2,3.8
						c2.6,1.6,5.1,3.5,7.3,5.6c2.3,2.2,4.4,4.6,6.2,7.3c1.9,2.7,3.5,5.6,4.8,8.6c1.3,3,2.3,6.2,3,9.4c0.7,3.3,1,6.7,1.1,10
						C116.8,76.4,116.5,79.8,115.9,83.2L115.9,83.2z"/>
				</g>
			</g>
		</g>
	</g>
	<g id="Grupo_104" transform="translate(5795.733 -42.197)">
		<g id="Grupo_103" transform="translate(0 0)">
			<path id="Caminho_78" class="st6" d="M-166.8-10.3L-166.8-10.3c0-0.3,0-0.5,0-0.8c0,0,0,0,0-0.1c0,0,0,0,0-0.1c0-0.1,0-0.1,0-0.2
				c0-0.2,0-0.4,0-0.6c0,0,0-0.1,0-0.1c0-0.1,0-0.2,0-0.3c0-0.1,0-0.2,0-0.3c0-0.2,0-0.3,0-0.5c0-0.1,0-0.2,0-0.3c0,0,0,0,0-0.1
				c0-0.1,0-0.3,0-0.4c0-0.1,0-0.2,0-0.2c0-0.2-0.1-0.5-0.1-0.7l0,0c0,0,0,0,0,0c0-0.2-0.1-0.5-0.1-0.7c0-0.1,0-0.2,0-0.2
				c0-0.1,0-0.3-0.1-0.4c0,0,0,0,0-0.1c0-0.1,0-0.2-0.1-0.3c0-0.1-0.1-0.3-0.1-0.4c0,0,0-0.1,0-0.1c0-0.1,0-0.1,0-0.2
				c0-0.1,0-0.2-0.1-0.3c0-0.1,0-0.1,0-0.2c0-0.1,0-0.2-0.1-0.2c0-0.2-0.1-0.3-0.1-0.5c0-0.1,0-0.1-0.1-0.2
				c-0.1-0.2-0.1-0.4-0.2-0.7c0,0,0,0,0,0c-0.1-0.2-0.1-0.4-0.2-0.5c0,0,0-0.1,0-0.1c0-0.1,0-0.1-0.1-0.2c0-0.2-0.1-0.3-0.2-0.5
				c0-0.1,0-0.1-0.1-0.2c-0.1-0.2-0.1-0.3-0.2-0.5c0-0.1,0-0.1-0.1-0.2c-0.1-0.2-0.1-0.4-0.2-0.6l0,0c0,0,0-0.1-0.1-0.1
				c-0.1-0.2-0.1-0.3-0.2-0.5c0,0,0-0.1,0-0.1c0,0,0-0.1-0.1-0.1c-0.1-0.1-0.1-0.3-0.2-0.4c0-0.1-0.1-0.1-0.1-0.2
				c-0.1-0.2-0.2-0.4-0.3-0.5c0,0,0,0,0-0.1l0,0c-0.1-0.2-0.2-0.4-0.3-0.6c0-0.1-0.1-0.1-0.1-0.2c-0.1-0.1-0.2-0.3-0.2-0.4
				c0-0.1-0.1-0.1-0.1-0.2c-0.1-0.1-0.2-0.3-0.2-0.4c0-0.1-0.1-0.1-0.1-0.2c0,0,0,0,0-0.1c-0.1-0.2-0.2-0.3-0.3-0.4c0,0,0,0,0,0
				c0,0,0-0.1-0.1-0.1c-0.1-0.1-0.1-0.2-0.2-0.3c0-0.1-0.1-0.1-0.1-0.2c0-0.1-0.1-0.1-0.1-0.2c0,0,0-0.1-0.1-0.1
				c-0.1-0.1-0.2-0.3-0.3-0.4l-5.6-8.2c0.1,0.2,0.3,0.4,0.4,0.6c0,0.1,0.1,0.1,0.1,0.2c0.1,0.2,0.2,0.3,0.3,0.5c0,0,0.1,0.1,0.1,0.1
				c0.1,0.2,0.2,0.4,0.4,0.6c0,0.1,0.1,0.1,0.1,0.2c0.1,0.2,0.2,0.3,0.3,0.5c0,0.1,0.1,0.1,0.1,0.2c0.1,0.2,0.2,0.3,0.2,0.5
				c0,0.1,0.1,0.1,0.1,0.2c0.1,0.2,0.2,0.4,0.3,0.7c0,0,0,0.1,0,0.1c0.1,0.2,0.2,0.4,0.3,0.6c0,0.1,0.1,0.1,0.1,0.2
				c0.1,0.2,0.1,0.3,0.2,0.5c0,0.1,0.1,0.1,0.1,0.2c0.1,0.2,0.1,0.4,0.2,0.5c0,0.1,0,0.1,0.1,0.2c0.1,0.2,0.2,0.5,0.3,0.7
				c0,0.1,0,0.1,0.1,0.2c0.1,0.2,0.1,0.4,0.2,0.5c0,0.1,0.1,0.2,0.1,0.2c0.1,0.2,0.1,0.3,0.2,0.5c0,0.1,0,0.1,0.1,0.2
				c0.1,0.2,0.1,0.5,0.2,0.7c0,0,0,0,0,0c0.1,0.2,0.1,0.5,0.2,0.7c0,0.1,0,0.1,0.1,0.2c0,0.2,0.1,0.3,0.1,0.5c0,0.1,0,0.2,0.1,0.2
				c0,0.2,0.1,0.3,0.1,0.5c0,0.1,0,0.2,0.1,0.3c0,0.2,0.1,0.3,0.1,0.5c0,0.1,0,0.2,0.1,0.3c0,0.2,0.1,0.4,0.1,0.5c0,0.1,0,0.2,0,0.3
				c0,0.3,0.1,0.5,0.1,0.8v0c0,0.3,0.1,0.5,0.1,0.8c0,0.1,0,0.2,0,0.3c0,0.2,0,0.4,0.1,0.5c0,0.1,0,0.2,0,0.3c0,0.2,0,0.3,0,0.5
				c0,0.1,0,0.2,0,0.3c0,0.1,0,0.3,0,0.5c0,0.2,0,0.4,0,0.7c0,0.1,0,0.2,0,0.3c0,0.3,0,0.6,0,1c0,0,0,0,0,0c0,0.3,0,0.6,0,0.9
				c0,0.1,0,0.2,0,0.3c0,0.2,0,0.4,0,0.7c0,0.1,0,0.3,0,0.4c0,0.1,0,0.3,0,0.4c0,0.1,0,0.3,0,0.4c0,0.1,0,0.3,0,0.4
				c0,0.2,0,0.3-0.1,0.5c0,0.1,0,0.3-0.1,0.4c0,0.2,0,0.3-0.1,0.5c0,0.1,0,0.3-0.1,0.4c0,0.3-0.1,0.5-0.1,0.8l-15.3,83.3
				c-0.1,0.3-0.1,0.7-0.2,1c0,0,0,0.1,0,0.1c-0.1,0.3-0.1,0.6-0.2,1c0,0.1,0,0.1,0,0.2c-0.1,0.3-0.2,0.7-0.3,1c0,0,0,0.1,0,0.1
				c-0.1,0.3-0.2,0.6-0.2,0.8c0,0.1,0,0.2-0.1,0.2c-0.1,0.3-0.2,0.6-0.3,0.9c0,0,0,0.1,0,0.1c-0.1,0.3-0.2,0.6-0.3,0.8
				c0,0.1-0.1,0.1-0.1,0.2c-0.1,0.3-0.2,0.6-0.4,0.9c0,0.1,0,0.1-0.1,0.2c-0.1,0.3-0.2,0.5-0.3,0.8c0,0.1-0.1,0.1-0.1,0.2
				c-0.1,0.3-0.3,0.6-0.4,0.9c0,0.1-0.1,0.1-0.1,0.2c-0.1,0.3-0.3,0.5-0.4,0.8c0,0,0,0.1-0.1,0.1c-0.1,0.3-0.3,0.6-0.4,0.8
				c0,0.1-0.1,0.1-0.1,0.2c-0.1,0.2-0.3,0.5-0.4,0.7c0,0,0,0.1-0.1,0.1c-0.2,0.3-0.3,0.5-0.5,0.8c0,0.1-0.1,0.1-0.1,0.2
				c-0.1,0.2-0.3,0.4-0.4,0.6c0,0.1-0.1,0.1-0.1,0.2c-0.2,0.3-0.4,0.5-0.5,0.8c0,0.1-0.1,0.1-0.1,0.2c-0.1,0.2-0.3,0.4-0.4,0.6
				c-0.1,0.1-0.1,0.2-0.2,0.2c-0.2,0.2-0.3,0.4-0.5,0.7c0,0,0,0.1-0.1,0.1c-0.2,0.2-0.4,0.5-0.6,0.7c-0.1,0.1-0.1,0.1-0.2,0.2
				c-0.1,0.2-0.3,0.3-0.4,0.5c-0.1,0.1-0.2,0.2-0.3,0.3c-0.1,0.1-0.3,0.3-0.4,0.4c-0.1,0.1-0.2,0.2-0.3,0.3
				c-0.2,0.2-0.3,0.3-0.5,0.5c-0.1,0.1-0.1,0.1-0.2,0.2c-0.2,0.2-0.5,0.4-0.7,0.7c-0.3,0.2-0.5,0.5-0.8,0.7
				c-0.1,0.1-0.1,0.1-0.2,0.2c-0.2,0.2-0.4,0.3-0.6,0.5c-0.1,0.1-0.2,0.2-0.3,0.2c-0.2,0.1-0.4,0.3-0.5,0.4
				c-0.1,0.1-0.2,0.2-0.4,0.3c-0.2,0.1-0.3,0.2-0.5,0.4c-0.2,0.1-0.4,0.3-0.6,0.4c0,0-0.1,0-0.1,0.1c-0.3,0.2-0.5,0.3-0.8,0.5
				c-0.1,0-0.1,0.1-0.2,0.1c-0.2,0.1-0.4,0.2-0.6,0.4c-0.1,0-0.1,0.1-0.2,0.1c-0.3,0.1-0.5,0.3-0.8,0.4c-0.1,0-0.1,0.1-0.2,0.1
				c-0.2,0.1-0.4,0.2-0.7,0.3c-0.1,0-0.1,0.1-0.2,0.1c-0.3,0.1-0.5,0.3-0.8,0.4l8.3-3.9c0.2-0.1,0.5-0.2,0.7-0.4
				c0.1,0,0.1-0.1,0.2-0.1c0.1,0,0.2-0.1,0.2-0.1c0.1-0.1,0.2-0.1,0.4-0.2c0.1,0,0.1-0.1,0.2-0.1c0.2-0.1,0.4-0.2,0.6-0.4
				c0,0,0.1,0,0.1,0c0.1,0,0.1-0.1,0.2-0.1c0.2-0.1,0.4-0.2,0.6-0.3c0.1,0,0.1-0.1,0.2-0.1c0,0,0.1,0,0.1-0.1
				c0.2-0.1,0.4-0.2,0.6-0.4c0,0,0,0,0.1,0c0.2-0.1,0.3-0.2,0.5-0.3c0,0,0.1-0.1,0.1-0.1c0.2-0.1,0.3-0.2,0.5-0.3
				c0.1-0.1,0.2-0.1,0.2-0.2c0,0,0.1,0,0.1-0.1c0.2-0.1,0.3-0.2,0.5-0.4c0.1-0.1,0.2-0.1,0.2-0.2c0,0,0,0,0,0s0,0,0.1,0
				c0.2-0.1,0.3-0.3,0.5-0.4c0.1-0.1,0.1-0.1,0.2-0.2l0,0c0.3-0.2,0.5-0.4,0.7-0.6l0,0c0.2-0.2,0.4-0.4,0.6-0.5c0,0,0,0,0,0
				c0.1-0.1,0.1-0.1,0.2-0.2c0.1-0.1,0.2-0.2,0.4-0.3c0,0,0.1-0.1,0.1-0.1c0.1-0.1,0.2-0.2,0.2-0.2c0.1-0.1,0.2-0.2,0.2-0.2
				c0-0.1,0.1-0.1,0.1-0.2c0.1-0.1,0.2-0.2,0.2-0.3c0.1-0.1,0.1-0.1,0.2-0.2c0.1-0.1,0.2-0.2,0.2-0.3c0.1-0.1,0.1-0.1,0.2-0.2
				c0,0,0.1-0.1,0.1-0.1c0.2-0.2,0.3-0.4,0.5-0.5l0,0c0,0,0,0,0.1-0.1c0.1-0.2,0.3-0.3,0.4-0.5c0,0,0.1-0.1,0.1-0.1
				c0,0,0-0.1,0.1-0.1c0,0,0.1-0.1,0.1-0.1c0.1-0.1,0.1-0.2,0.2-0.2c0.1-0.1,0.1-0.2,0.2-0.3c0-0.1,0.1-0.1,0.1-0.2
				c0,0,0-0.1,0.1-0.1c0.1-0.2,0.3-0.4,0.4-0.5c0,0,0,0,0-0.1c0,0,0.1-0.1,0.1-0.2c0.1-0.1,0.2-0.2,0.2-0.3c0.1-0.1,0.1-0.2,0.2-0.2
				c0-0.1,0.1-0.1,0.1-0.2c0,0,0.1-0.1,0.1-0.1c0.1-0.2,0.2-0.4,0.3-0.5l0,0c0,0,0-0.1,0.1-0.1c0.1-0.1,0.2-0.3,0.2-0.4
				c0-0.1,0.1-0.2,0.1-0.3c0-0.1,0.1-0.1,0.1-0.2c0,0,0-0.1,0.1-0.1c0.1-0.2,0.2-0.4,0.3-0.6c0,0,0,0,0-0.1c0,0,0-0.1,0.1-0.1
				c0.1-0.1,0.1-0.3,0.2-0.4c0-0.1,0.1-0.2,0.1-0.3c0-0.1,0.1-0.1,0.1-0.2c0,0,0-0.1,0.1-0.1c0.1-0.2,0.2-0.4,0.3-0.6
				c0,0,0-0.1,0-0.1c0,0,0,0,0-0.1c0,0,0-0.1,0-0.1c0.1-0.1,0.1-0.2,0.2-0.3c0.1-0.1,0.1-0.2,0.2-0.4c0,0,0-0.1,0.1-0.1l0-0.1
				c0.1-0.2,0.2-0.4,0.2-0.6c0,0,0-0.1,0-0.1c0-0.1,0-0.1,0.1-0.2c0-0.1,0.1-0.2,0.1-0.3c0.1-0.2,0.1-0.3,0.2-0.5c0,0,0-0.1,0-0.1
				c0,0,0,0,0,0c0.1-0.2,0.1-0.4,0.2-0.6c0-0.1,0-0.1,0-0.2c0-0.1,0-0.1,0.1-0.2c0-0.1,0.1-0.2,0.1-0.3c0-0.2,0.1-0.3,0.1-0.5
				c0,0,0-0.1,0-0.1c0,0,0,0,0,0c0.1-0.2,0.1-0.4,0.2-0.7c0-0.1,0-0.1,0-0.2c0-0.1,0-0.1,0-0.2c0-0.1,0-0.1,0.1-0.2
				c0-0.2,0.1-0.4,0.1-0.6c0,0,0-0.1,0-0.1c0,0,0-0.1,0-0.1c0-0.1,0.1-0.2,0.1-0.4c0-0.2,0.1-0.4,0.1-0.6l13.8-75.8c0,0,0-0.1,0-0.1
				c0,0,0-0.1,0-0.1l0-0.1c0,0,0-0.1,0-0.1c0,0,0-0.1,0-0.1c0-0.1,0-0.3,0.1-0.4c0-0.1,0-0.2,0-0.3c0,0,0-0.1,0-0.1
				c0-0.1,0-0.3,0.1-0.4c0-0.1,0-0.2,0-0.3c0,0,0-0.1,0-0.1c0-0.1,0-0.3,0-0.4c0-0.1,0-0.2,0-0.3c0,0,0-0.1,0-0.1c0-0.1,0-0.3,0-0.4
				c0-0.1,0-0.2,0-0.3c0,0,0-0.1,0-0.1c0-0.2,0-0.4,0-0.6c0-0.1,0-0.1,0-0.2c0,0,0,0,0-0.1C-166.9-9.8-166.9-10-166.8-10.3
				C-166.8-10.3-166.8-10.3-166.8-10.3z"/>
			<g id="Grupo_102">
				<path id="Caminho_79" class="st7" d="M-166.8-10.3L-166.8-10.3c0-0.3,0-0.5,0-0.8c0,0,0,0,0-0.1c0,0,0,0,0-0.1
					c0-0.1,0-0.1,0-0.2c0-0.2,0-0.4,0-0.6c0,0,0-0.1,0-0.1c0-0.1,0-0.2,0-0.3c0-0.1,0-0.2,0-0.3c0-0.2,0-0.3,0-0.5
					c0-0.1,0-0.2,0-0.3c0,0,0,0,0-0.1c0-0.1,0-0.3,0-0.4c0-0.1,0-0.2,0-0.2c0-0.2-0.1-0.5-0.1-0.7l0,0c0,0,0,0,0,0
					c0-0.2-0.1-0.5-0.1-0.7c0-0.1,0-0.2,0-0.2c0-0.1,0-0.3-0.1-0.4c0,0,0,0,0-0.1c0-0.1,0-0.2-0.1-0.3c0-0.1-0.1-0.3-0.1-0.4
					c0,0,0-0.1,0-0.1c0-0.1,0-0.1,0-0.2c0-0.1,0-0.2-0.1-0.3c0-0.1,0-0.1,0-0.2c0-0.1,0-0.2-0.1-0.2c0-0.2-0.1-0.3-0.1-0.5
					c0-0.1,0-0.1-0.1-0.2c-0.1-0.2-0.1-0.4-0.2-0.7c0,0,0,0,0,0c-0.1-0.2-0.1-0.4-0.2-0.5c0,0,0-0.1,0-0.1c0-0.1,0-0.1-0.1-0.2
					c0-0.2-0.1-0.3-0.2-0.5c0-0.1,0-0.1-0.1-0.2c-0.1-0.2-0.1-0.3-0.2-0.5c0-0.1,0-0.1-0.1-0.2c-0.1-0.2-0.1-0.4-0.2-0.6l0,0
					c0,0,0-0.1-0.1-0.1c-0.1-0.2-0.1-0.3-0.2-0.5c0,0,0-0.1,0-0.1c0,0,0-0.1-0.1-0.1c-0.1-0.1-0.1-0.3-0.2-0.4
					c0-0.1-0.1-0.1-0.1-0.2c-0.1-0.2-0.2-0.4-0.3-0.5c0,0,0,0,0-0.1l0,0c-0.1-0.2-0.2-0.4-0.3-0.6c0-0.1-0.1-0.1-0.1-0.2
					c-0.1-0.1-0.2-0.3-0.2-0.4c0-0.1-0.1-0.1-0.1-0.2c-0.1-0.1-0.2-0.3-0.2-0.4c0-0.1-0.1-0.1-0.1-0.2c0,0,0,0,0-0.1
					c-0.1-0.2-0.2-0.3-0.3-0.4c0,0,0,0,0,0c0,0,0-0.1-0.1-0.1c-0.1-0.1-0.1-0.2-0.2-0.3c0-0.1-0.1-0.1-0.1-0.2
					c0-0.1-0.1-0.1-0.1-0.2c0,0,0-0.1-0.1-0.1c-0.1-0.1-0.2-0.3-0.3-0.4l-5.6-8.2c0.1,0.2,0.3,0.4,0.4,0.6c0,0.1,0.1,0.1,0.1,0.2
					c0.1,0.2,0.2,0.3,0.3,0.5c0,0,0.1,0.1,0.1,0.1c0.1,0.2,0.2,0.4,0.4,0.6c0,0.1,0.1,0.1,0.1,0.2c0.1,0.2,0.2,0.3,0.3,0.5
					c0,0.1,0.1,0.1,0.1,0.2c0.1,0.2,0.2,0.3,0.2,0.5c0,0.1,0.1,0.1,0.1,0.2c0.1,0.2,0.2,0.4,0.3,0.7c0,0,0,0.1,0,0.1
					c0.1,0.2,0.2,0.4,0.3,0.6c0,0.1,0.1,0.1,0.1,0.2c0.1,0.2,0.1,0.3,0.2,0.5c0,0.1,0.1,0.1,0.1,0.2c0.1,0.2,0.1,0.4,0.2,0.5
					c0,0.1,0,0.1,0.1,0.2c0.1,0.2,0.2,0.5,0.3,0.7c0,0.1,0,0.1,0.1,0.2c0.1,0.2,0.1,0.4,0.2,0.5c0,0.1,0.1,0.2,0.1,0.2
					c0.1,0.2,0.1,0.3,0.2,0.5c0,0.1,0,0.1,0.1,0.2c0.1,0.2,0.1,0.5,0.2,0.7c0,0,0,0,0,0c0.1,0.2,0.1,0.5,0.2,0.7
					c0,0.1,0,0.1,0.1,0.2c0,0.2,0.1,0.3,0.1,0.5c0,0.1,0,0.2,0.1,0.2c0,0.2,0.1,0.3,0.1,0.5c0,0.1,0,0.2,0.1,0.3
					c0,0.2,0.1,0.3,0.1,0.5c0,0.1,0,0.2,0.1,0.3c0,0.2,0.1,0.4,0.1,0.5c0,0.1,0,0.2,0,0.3c0,0.3,0.1,0.5,0.1,0.8v0
					c0,0.3,0.1,0.5,0.1,0.8c0,0.1,0,0.2,0,0.3c0,0.2,0,0.4,0.1,0.5c0,0.1,0,0.2,0,0.3c0,0.2,0,0.3,0,0.5c0,0.1,0,0.2,0,0.3
					c0,0.1,0,0.3,0,0.5c0,0.2,0,0.4,0,0.7c0,0.1,0,0.2,0,0.3c0,0.3,0,0.6,0,1c0,0,0,0,0,0c0,0.3,0,0.6,0,0.9c0,0.1,0,0.2,0,0.3
					c0,0.2,0,0.4,0,0.7c0,0.1,0,0.3,0,0.4c0,0.1,0,0.3,0,0.4c0,0.1,0,0.3,0,0.4c0,0.1,0,0.3,0,0.4c0,0.2,0,0.3-0.1,0.5
					c0,0.1,0,0.3-0.1,0.4c0,0.2,0,0.3-0.1,0.5c0,0.1,0,0.3-0.1,0.4c0,0.3-0.1,0.5-0.1,0.8l-15.3,83.3c-0.1,0.3-0.1,0.7-0.2,1
					c0,0,0,0.1,0,0.1c-0.1,0.3-0.1,0.6-0.2,1c0,0.1,0,0.1,0,0.2c-0.1,0.3-0.2,0.7-0.3,1c0,0,0,0.1,0,0.1c-0.1,0.3-0.2,0.6-0.2,0.8
					c0,0.1,0,0.2-0.1,0.2c-0.1,0.3-0.2,0.6-0.3,0.9c0,0,0,0.1,0,0.1c-0.1,0.3-0.2,0.6-0.3,0.8c0,0.1-0.1,0.1-0.1,0.2
					c-0.1,0.3-0.2,0.6-0.4,0.9c0,0.1,0,0.1-0.1,0.2c-0.1,0.3-0.2,0.5-0.3,0.8c0,0.1-0.1,0.1-0.1,0.2c-0.1,0.3-0.3,0.6-0.4,0.9
					c0,0.1-0.1,0.1-0.1,0.2c-0.1,0.3-0.3,0.5-0.4,0.8c0,0,0,0.1-0.1,0.1c-0.1,0.3-0.3,0.6-0.4,0.8c0,0.1-0.1,0.1-0.1,0.2
					c-0.1,0.2-0.3,0.5-0.4,0.7c0,0,0,0.1-0.1,0.1c-0.2,0.3-0.3,0.5-0.5,0.8c0,0.1-0.1,0.1-0.1,0.2c-0.1,0.2-0.3,0.4-0.4,0.6
					c0,0.1-0.1,0.1-0.1,0.2c-0.2,0.3-0.4,0.5-0.5,0.8c0,0.1-0.1,0.1-0.1,0.2c-0.1,0.2-0.3,0.4-0.4,0.6c-0.1,0.1-0.1,0.2-0.2,0.2
					c-0.2,0.2-0.3,0.4-0.5,0.7c0,0,0,0.1-0.1,0.1c-0.2,0.2-0.4,0.5-0.6,0.7c-0.1,0.1-0.1,0.1-0.2,0.2c-0.1,0.2-0.3,0.3-0.4,0.5
					c-0.1,0.1-0.2,0.2-0.3,0.3c-0.1,0.1-0.3,0.3-0.4,0.4c-0.1,0.1-0.2,0.2-0.3,0.3c-0.2,0.2-0.3,0.3-0.5,0.5
					c-0.1,0.1-0.1,0.1-0.2,0.2c-0.2,0.2-0.5,0.4-0.7,0.7c-0.3,0.2-0.5,0.5-0.8,0.7c-0.1,0.1-0.1,0.1-0.2,0.2
					c-0.2,0.2-0.4,0.3-0.6,0.5c-0.1,0.1-0.2,0.2-0.3,0.2c-0.2,0.1-0.4,0.3-0.5,0.4c-0.1,0.1-0.2,0.2-0.4,0.3
					c-0.2,0.1-0.3,0.2-0.5,0.4c-0.2,0.1-0.4,0.3-0.6,0.4c0,0-0.1,0-0.1,0.1c-0.3,0.2-0.5,0.3-0.8,0.5c-0.1,0-0.1,0.1-0.2,0.1
					c-0.2,0.1-0.4,0.2-0.6,0.4c-0.1,0-0.1,0.1-0.2,0.1c-0.3,0.1-0.5,0.3-0.8,0.4c-0.1,0-0.1,0.1-0.2,0.1c-0.2,0.1-0.4,0.2-0.7,0.3
					c-0.1,0-0.1,0.1-0.2,0.1c-0.3,0.1-0.5,0.3-0.8,0.4l8.3-3.9c0.2-0.1,0.5-0.2,0.7-0.4c0.1,0,0.1-0.1,0.2-0.1
					c0.1,0,0.2-0.1,0.2-0.1c0.1-0.1,0.2-0.1,0.4-0.2c0.1,0,0.1-0.1,0.2-0.1c0.2-0.1,0.4-0.2,0.6-0.4c0,0,0.1,0,0.1,0
					c0.1,0,0.1-0.1,0.2-0.1c0.2-0.1,0.4-0.2,0.6-0.3c0.1,0,0.1-0.1,0.2-0.1c0,0,0.1,0,0.1-0.1c0.2-0.1,0.4-0.2,0.6-0.4
					c0,0,0,0,0.1,0c0.2-0.1,0.3-0.2,0.5-0.3c0,0,0.1-0.1,0.1-0.1c0.2-0.1,0.3-0.2,0.5-0.3c0.1-0.1,0.2-0.1,0.2-0.2
					c0,0,0.1,0,0.1-0.1c0.2-0.1,0.3-0.2,0.5-0.4c0.1-0.1,0.2-0.1,0.2-0.2c0,0,0,0,0,0s0,0,0.1,0c0.2-0.1,0.3-0.3,0.5-0.4
					c0.1-0.1,0.1-0.1,0.2-0.2l0,0c0.3-0.2,0.5-0.4,0.7-0.6l0,0c0.2-0.2,0.4-0.4,0.6-0.5c0,0,0,0,0,0c0.1-0.1,0.1-0.1,0.2-0.2
					c0.1-0.1,0.2-0.2,0.4-0.3c0,0,0.1-0.1,0.1-0.1c0.1-0.1,0.2-0.2,0.2-0.2c0.1-0.1,0.2-0.2,0.2-0.2c0-0.1,0.1-0.1,0.1-0.2
					c0.1-0.1,0.2-0.2,0.2-0.3c0.1-0.1,0.1-0.1,0.2-0.2c0.1-0.1,0.2-0.2,0.2-0.3c0.1-0.1,0.1-0.1,0.2-0.2c0,0,0.1-0.1,0.1-0.1
					c0.2-0.2,0.3-0.4,0.5-0.5l0,0c0,0,0,0,0.1-0.1c0.1-0.2,0.3-0.3,0.4-0.5c0,0,0.1-0.1,0.1-0.1c0,0,0-0.1,0.1-0.1
					c0,0,0.1-0.1,0.1-0.1c0.1-0.1,0.1-0.2,0.2-0.2c0.1-0.1,0.1-0.2,0.2-0.3c0-0.1,0.1-0.1,0.1-0.2c0,0,0-0.1,0.1-0.1
					c0.1-0.2,0.3-0.4,0.4-0.5c0,0,0,0,0-0.1c0,0,0.1-0.1,0.1-0.2c0.1-0.1,0.2-0.2,0.2-0.3c0.1-0.1,0.1-0.2,0.2-0.2
					c0-0.1,0.1-0.1,0.1-0.2c0,0,0.1-0.1,0.1-0.1c0.1-0.2,0.2-0.4,0.3-0.5l0,0c0,0,0-0.1,0.1-0.1c0.1-0.1,0.2-0.3,0.2-0.4
					c0-0.1,0.1-0.2,0.1-0.3c0-0.1,0.1-0.1,0.1-0.2c0,0,0-0.1,0.1-0.1c0.1-0.2,0.2-0.4,0.3-0.6c0,0,0,0,0-0.1c0,0,0-0.1,0.1-0.1
					c0.1-0.1,0.1-0.3,0.2-0.4c0-0.1,0.1-0.2,0.1-0.3c0-0.1,0.1-0.1,0.1-0.2c0,0,0-0.1,0.1-0.1c0.1-0.2,0.2-0.4,0.3-0.6
					c0,0,0-0.1,0-0.1c0,0,0,0,0-0.1c0,0,0-0.1,0-0.1c0.1-0.1,0.1-0.2,0.2-0.3c0.1-0.1,0.1-0.2,0.2-0.4c0,0,0-0.1,0.1-0.1l0-0.1
					c0.1-0.2,0.2-0.4,0.2-0.6c0,0,0-0.1,0-0.1c0-0.1,0-0.1,0.1-0.2c0-0.1,0.1-0.2,0.1-0.3c0.1-0.2,0.1-0.3,0.2-0.5c0,0,0-0.1,0-0.1
					c0,0,0,0,0,0c0.1-0.2,0.1-0.4,0.2-0.6c0-0.1,0-0.1,0-0.2c0-0.1,0-0.1,0.1-0.2c0-0.1,0.1-0.2,0.1-0.3c0-0.2,0.1-0.3,0.1-0.5
					c0,0,0-0.1,0-0.1c0,0,0,0,0,0c0.1-0.2,0.1-0.4,0.2-0.7c0-0.1,0-0.1,0-0.2c0-0.1,0-0.1,0-0.2c0-0.1,0-0.1,0.1-0.2
					c0-0.2,0.1-0.4,0.1-0.6c0,0,0-0.1,0-0.1c0,0,0-0.1,0-0.1c0-0.1,0.1-0.2,0.1-0.4c0-0.2,0.1-0.4,0.1-0.6l13.8-75.8
					c0,0,0-0.1,0-0.1c0,0,0-0.1,0-0.1l0-0.1c0,0,0-0.1,0-0.1c0,0,0-0.1,0-0.1c0-0.1,0-0.3,0.1-0.4c0-0.1,0-0.2,0-0.3
					c0,0,0-0.1,0-0.1c0-0.1,0-0.3,0.1-0.4c0-0.1,0-0.2,0-0.3c0,0,0-0.1,0-0.1c0-0.1,0-0.3,0-0.4c0-0.1,0-0.2,0-0.3c0,0,0-0.1,0-0.1
					c0-0.1,0-0.3,0-0.4c0-0.1,0-0.2,0-0.3c0,0,0-0.1,0-0.1c0-0.2,0-0.4,0-0.6c0-0.1,0-0.1,0-0.2c0,0,0,0,0-0.1
					C-166.9-9.8-166.9-10-166.8-10.3C-166.8-10.3-166.8-10.3-166.8-10.3z"/>
			</g>
		</g>
	</g>
	
		<linearGradient id="Caminho_80_00000019652747626505324530000013885010143191993989_" gradientUnits="userSpaceOnUse" x1="5406.7661" y1="98.0244" x2="5407.123" y2="98.0244" gradientTransform="matrix(277.126 0 0 -277.95 -1492862.625 27222.3867)">
		<stop  offset="0" style="stop-color:#CC7D27"/>
		<stop  offset="0.182" style="stop-color:#F2AB36"/>
		<stop  offset="0.351" style="stop-color:#FFD45D"/>
		<stop  offset="0.514" style="stop-color:#F8AF3C"/>
		<stop  offset="0.68" style="stop-color:#C17325"/>
		<stop  offset="0.858" style="stop-color:#F9B642"/>
		<stop  offset="0.975" style="stop-color:#FDCA54"/>
	</linearGradient>
	<path id="Caminho_80" style="fill:url(#Caminho_80_00000019652747626505324530000013885010143191993989_);" d="M5590.5-36.1
		c-0.7-3.2-1.7-6.4-3-9.4c-1.3-3-2.9-5.9-4.8-8.6c-1.8-2.6-3.9-5.1-6.2-7.3c-2.2-2.1-4.7-4-7.3-5.6c-2.6-1.6-5.3-2.8-8.2-3.8
		c-2.9-1-5.8-1.6-8.8-2c-3-0.3-6-0.4-9-0.1c-3,0.3-5.9,0.9-8.7,1.7c-2.8,0.9-5.6,2-8.2,3.4c-2.7,1.4-5.2,3.1-7.6,5
		c-2.4,1.9-4.6,4.1-6.6,6.4c-2,2.3-3.8,4.8-5.3,7.4c-1.6,2.6-2.9,5.4-4,8.3c-1.1,2.9-2,5.9-2.5,9c-0.7,3.7-1,7.4-1,11.1
		c0,1.8,0.2,3.7,0.4,5.5c0.2,1.8,0.5,3.6,1,5.4l-7.8,23.3l20.7,0c1.4,1.4,2.9,2.6,4.4,3.8c1.5,1.2,3.2,2.2,4.9,3.2
		c6.1,3.4,13,5.3,20,5.4c3.1,0.1,6.1-0.2,9.2-0.8c3.1-0.6,6.1-1.5,9-2.8c3-1.3,5.9-2.9,8.6-4.8c2.7-1.9,5.3-4.1,7.6-6.5
		c2.3-2.4,4.4-5.1,6.2-7.9c1.8-2.9,3.4-5.9,4.6-9.1c2.5-6.5,3.8-13.4,3.8-20.3C5591.6-29.5,5591.2-32.8,5590.5-36.1z M5583.9-17
		c-1.1,5.9-3.3,11.6-6.6,16.6c-3.1,4.8-7,8.9-11.7,12.2c-4.4,3.1-9.5,5.4-14.8,6.5c-10.6,2.3-21.7-0.2-30.3-6.9
		c-1.4-1.1-2.7-2.3-4-3.5l-0.8-0.9L5501,7.1l5.6-16.7l-0.3-1c-0.4-1.6-0.7-3.3-1-4.9c-0.2-1.7-0.4-3.3-0.4-5
		c-0.2-8.9,2.1-17.7,6.7-25.3c2.7-4.5,6.2-8.4,10.3-11.7c4-3.2,8.6-5.7,13.5-7.2c5-1.6,10.4-2,15.6-1.4c5.3,0.6,10.4,2.4,14.9,5.3
		c4.5,2.8,8.4,6.6,11.4,11c3.1,4.6,5.3,9.8,6.5,15.2C5584.9-28.9,5585-22.9,5583.9-17z"/>
	<g id="Grupo_105" transform="translate(5471.913 -101.903)">
		
			<linearGradient id="Caminho_81_00000088090708049245375030000013978829187134534815_" gradientUnits="userSpaceOnUse" x1="-65.3606" y1="200.1615" x2="-65.0039" y2="200.1615" gradientTransform="matrix(426.4966 0 0 -449.867 27876.7773 90128.2812)">
			<stop  offset="0" style="stop-color:#CC7D27"/>
			<stop  offset="0.182" style="stop-color:#F2AB36"/>
			<stop  offset="0.351" style="stop-color:#FFD45D"/>
			<stop  offset="0.514" style="stop-color:#F8AF3C"/>
			<stop  offset="0.68" style="stop-color:#C17325"/>
			<stop  offset="0.858" style="stop-color:#F9B642"/>
			<stop  offset="0.975" style="stop-color:#FDCA54"/>
		</linearGradient>
		<path id="Caminho_81" style="fill:url(#Caminho_81_00000088090708049245375030000013978829187134534815_);" d="M102.4,162.5
			c-3,0-6-0.4-9-1.2l-69.9-18.8c-4-1.1-7.7-3-10.8-5.7c-3.1-2.7-5.7-5.9-7.6-9.5c-2-3.7-3.3-7.8-3.9-11.9c-0.6-4.4-0.5-8.8,0.3-13.2
			l13.9-70.5c0.8-4.3,2.4-8.4,4.6-12.2c2.1-3.6,4.8-6.9,8-9.6c3.1-2.7,6.7-4.7,10.5-6.1c3.9-1.4,8-1.9,12.1-1.6L122,8.2
			c4.8,0.4,9.4,1.8,13.6,4.1c4.1,2.3,7.6,5.3,10.4,9c2.9,3.8,4.9,8.1,6,12.8l0,0c1.2,4.9,1.3,10.1,0.3,15L137,132.5
			c-0.9,5.1-2.9,9.9-5.7,14.3c-2.7,4.1-6.2,7.5-10.3,10.2C115.4,160.5,109,162.5,102.4,162.5L102.4,162.5z M48.2,4
			c-3.1,0-6.1,0.5-9,1.6c-3.6,1.3-7,3.2-9.9,5.7c-3,2.6-5.6,5.6-7.6,9.1c-2.1,3.6-3.6,7.5-4.4,11.6L3.5,102.5
			c-0.8,4.1-0.9,8.3-0.3,12.5c0.6,3.9,1.8,7.7,3.7,11.3c1.8,3.4,4.2,6.4,7.1,8.9c2.9,2.5,6.4,4.3,10.1,5.3l69.9,18.8
			c8.8,2.4,18.3,0.9,25.9-4.1c3.8-2.5,7.1-5.8,9.7-9.6c2.7-4.1,4.5-8.7,5.4-13.5l15.3-83.3c0.9-4.7,0.8-9.5-0.3-14.2
			c-1-4.3-2.9-8.4-5.6-12c-2.6-3.5-5.9-6.4-9.7-8.5c-3.9-2.2-8.3-3.5-12.8-3.9L50.5,4.1C49.7,4.1,49,4,48.2,4z M71.6,129
			c-0.3,0-0.6,0-0.9,0c-3.1-0.1-6.3-0.5-9.3-1.2c-3.9-0.9-7.7-2.4-11.2-4.4c-1.7-1-3.4-2.1-5-3.3c-1.5-1.1-2.9-2.3-4.2-3.6l-21.7,0
			l8.2-24.4c-0.4-1.7-0.7-3.5-0.9-5.3c-0.2-1.9-0.4-3.8-0.4-5.6c-0.1-3.8,0.3-7.6,1-11.3c0.6-3.1,1.5-6.2,2.6-9.1
			c1.1-2.9,2.5-5.7,4.1-8.4c1.6-2.7,3.4-5.2,5.4-7.5c2-2.4,4.3-4.6,6.7-6.5c2.4-2,5-3.7,7.8-5.2c2.7-1.4,5.5-2.6,8.4-3.5
			c2.9-0.9,5.9-1.5,8.9-1.8c3.1-0.3,6.2-0.3,9.2,0.1c3.1,0.4,6.1,1,9.1,2c2.9,1,5.8,2.3,8.4,3.9c2.7,1.6,5.2,3.5,7.5,5.7
			c2.4,2.2,4.5,4.7,6.4,7.4c1.9,2.8,3.5,5.7,4.9,8.8c1.3,3.1,2.3,6.3,3,9.6c0.7,3.4,1.1,6.8,1.1,10.2c0,3.5-0.3,7.1-0.9,10.5l-1-0.2
			l1,0.2c-0.6,3.5-1.6,6.9-2.9,10.2c-1.3,3.2-2.8,6.3-4.7,9.3c-1.8,2.9-4,5.6-6.3,8.1c-2.4,2.5-5,4.7-7.8,6.7
			c-2.7,1.9-5.7,3.5-8.7,4.9c-3,1.3-6,2.2-9.2,2.8C77.3,128.7,74.5,129,71.6,129L71.6,129z M41.9,114.5l0.3,0.3
			c1.4,1.3,2.8,2.6,4.3,3.7c1.5,1.1,3.1,2.2,4.8,3.1c8.6,4.8,18.7,6.4,28.4,4.5c3-0.6,6-1.5,8.8-2.7c2.9-1.3,5.7-2.8,8.4-4.7
			c2.7-1.9,5.2-4,7.5-6.4c2.3-2.4,4.3-5,6.1-7.8c1.8-2.8,3.3-5.8,4.5-8.9c2.5-6.4,3.7-13.1,3.7-19.9c0-3.3-0.4-6.6-1-9.8
			c-0.7-3.2-1.6-6.3-2.9-9.3c-1.3-3-2.8-5.8-4.6-8.4c-1.8-2.6-3.8-4.9-6.1-7.1c-2.2-2.1-4.6-3.9-7.2-5.4c-2.5-1.5-5.2-2.8-8-3.7
			c-2.8-0.9-5.7-1.6-8.6-1.9c-2.9-0.3-5.9-0.4-8.8-0.1c-2.9,0.3-5.7,0.8-8.5,1.7c-2.8,0.9-5.5,2-8,3.4c-2.6,1.4-5.1,3.1-7.4,4.9
			c-2.3,1.9-4.5,4-6.5,6.3c-1.9,2.3-3.7,4.7-5.2,7.3c-1.5,2.6-2.8,5.3-3.9,8.1c-1.1,2.9-1.9,5.8-2.5,8.8c-0.7,3.6-1,7.2-1,10.9
			c0,1.8,0.2,3.6,0.4,5.4c0.2,1.8,0.5,3.6,0.9,5.3l0.1,0.3l-7.5,22.2L41.9,114.5z"/>
	</g>
	<g id="Grupo_106" transform="translate(5547.298 -11.087)">
		
			<linearGradient id="Caminho_82_00000146471647908292393140000011189450657991549599_" gradientUnits="userSpaceOnUse" x1="-140.4568" y1="109.0355" x2="-140.1" y2="109.0355" gradientTransform="matrix(241.6099 0 0 -245.8961 33887.9492 26798.8145)">
			<stop  offset="0" style="stop-color:#CC7D27"/>
			<stop  offset="0.182" style="stop-color:#F2AB36"/>
			<stop  offset="0.351" style="stop-color:#FFD45D"/>
			<stop  offset="0.514" style="stop-color:#F8AF3C"/>
			<stop  offset="0.68" style="stop-color:#C17325"/>
			<stop  offset="0.858" style="stop-color:#F9B642"/>
			<stop  offset="0.975" style="stop-color:#FDCA54"/>
		</linearGradient>
		<path id="Caminho_82" style="fill:url(#Caminho_82_00000146471647908292393140000011189450657991549599_);" d="M-4.2,31.3
			c-6.5,0-13-1.7-18.7-4.9c-1.6-0.9-3.1-1.9-4.5-3c-1.4-1.1-2.8-2.3-4.1-3.6l-0.5-0.5l-15.8,0.1l6-17.8L-42,0.7
			c-0.4-1.7-0.8-3.3-1-5c-0.2-1.7-0.4-3.4-0.4-5.1c-0.2-9.1,2.1-18.1,6.8-25.9c2.8-4.6,6.3-8.6,10.5-12c4.1-3.3,8.8-5.8,13.9-7.4
			c5.2-1.6,10.6-2.1,16-1.4c5.4,0.7,10.7,2.5,15.3,5.4c4.6,2.9,8.6,6.7,11.7,11.3c3.2,4.7,5.5,10,6.6,15.6l0,0
			c1.3,6,1.3,12.1,0.2,18.1c-1.1,6-3.4,11.8-6.7,17c-3.1,4.9-7.2,9.1-11.9,12.5c-4.5,3.2-9.7,5.5-15.2,6.7C1.2,31-1.5,31.3-4.2,31.3
			z M-31.1,17.1l1.1,1.2c1.2,1.2,2.5,2.4,3.9,3.4c2.7,2.1,5.7,3.8,8.9,5.1c6.5,2.5,13.7,3.1,20.5,1.6c5.2-1.1,10.1-3.3,14.4-6.3
			c4.5-3.2,8.4-7.2,11.4-11.9c3.2-4.9,5.4-10.5,6.4-16.3c1.1-5.7,1-11.6-0.2-17.3l0,0c-1.1-5.3-3.3-10.4-6.3-14.9
			C26.2-42.6,22.4-46.2,18-49c-4.4-2.7-9.3-4.5-14.5-5.1c-5.1-0.6-10.3-0.2-15.2,1.4c-4.8,1.5-9.3,3.9-13.2,7
			c-4,3.2-7.4,7.1-10,11.4c-2.8,4.6-4.7,9.6-5.7,14.9c-0.6,3.3-0.9,6.6-0.8,9.9c0,1.6,0.2,3.3,0.4,4.9c0.2,1.6,0.5,3.2,1,4.8
			l0.3,1.3l-5.3,15.6L-31.1,17.1z M6.1,14.7c-0.3,0-0.6,0-0.9,0c-0.1,0-0.3,0-0.4,0c-0.1,0-0.3,0-0.4-0.1c-0.1,0-0.3,0-0.4-0.1
			c-0.1,0-0.3,0-0.4-0.1c-1.8-0.4-3.6-1-5.3-1.9c-1.7-0.9-3.3-1.9-4.8-3C-8,8.3-9.4,7.1-10.8,5.8c-1.2-1.2-2.4-2.4-3.7-3.9
			c-1.3-1.4-2.5-2.8-3.6-4.3c-1.1-1.5-2.2-3.1-3.1-4.7c-1-1.6-1.9-3.3-2.7-5c-0.8-1.7-1.5-3.4-2.1-5.2c-0.3-0.8-0.5-1.5-0.7-2.2
			c-0.2-0.8-0.4-1.6-0.5-2.3c-0.2-0.8-0.3-1.6-0.3-2.4c-0.1-0.8-0.1-1.6-0.1-2.4c0-0.1,0-0.2,0-0.3c0-0.1,0-0.2,0-0.3s0-0.2,0-0.3
			c0-0.1,0-0.2,0.1-0.3c0.2-0.8,0.4-1.6,0.8-2.3c0.3-0.7,0.7-1.4,1.2-2c0.4-0.6,0.8-1.1,1.4-1.8c0.4-0.5,0.8-0.9,1.2-1.3l0.3-0.3
			c0.1-0.1,0.1-0.1,0.2-0.2c0.2-0.2,0.4-0.5,0.7-0.7c0.5-0.6,1-1.1,1.5-1.5c0.5-0.5,1.1-1,1.7-1.4c0.8-0.5,1.5-0.7,2.1-0.6
			c0.1,0,0.2,0,0.4,0.1c0.1,0,0.2,0.1,0.3,0.2c0.1,0.1,0.2,0.2,0.3,0.2c0.1,0.1,0.2,0.2,0.2,0.3c0.6,0.9,1.1,1.7,1.7,2.6
			c0.6,0.9,1.1,1.7,1.7,2.6c0.6,0.9,1.1,1.7,1.7,2.6c0.6,0.9,1.1,1.7,1.7,2.6c0.1,0.2,0.2,0.4,0.3,0.6c0.1,0.2,0.1,0.4,0.2,0.6
			c0,0.2,0.1,0.4,0.1,0.6c0,0.2,0,0.4-0.1,0.6c-0.1,0.5-0.3,1-0.7,1.4c-0.3,0.4-0.6,0.7-1,1.1c-0.1,0.1-0.3,0.3-0.4,0.4
			c-0.2,0.2-0.4,0.3-0.5,0.5c-0.2,0.2-0.5,0.5-0.7,0.8c-0.1,0.2-0.2,0.3-0.3,0.5c-0.1,0.2-0.2,0.4-0.2,0.5c-0.1,0.2-0.1,0.4-0.2,0.5
			c-0.1,0.2-0.1,0.4-0.1,0.6c0,0.2-0.1,0.5-0.1,0.7c0,0.2,0,0.5,0,0.7c0,0.3,0,0.5,0.1,0.8c0,0.3,0.1,0.5,0.2,0.8
			c0.4,1.5,0.9,2.9,1.6,4.3c0.6,1.3,1.4,2.5,2.3,3.6c0.9,1.1,1.9,2.1,3,3C-4-5.8-2.8-5-1.5-4.4C-1.3-4.3-1.2-4.2-1-4.2
			S-0.8-4.1-0.6-4c0.1,0,0.3,0.1,0.4,0.1c0.1,0,0.3,0.1,0.4,0.1c0.4,0.1,0.7,0.1,1.1,0.1c0.3,0,0.7-0.1,1-0.2c0.4-0.1,0.7-0.3,1-0.5
			C3.6-4.8,4-5.1,4.3-5.5C4.7-5.9,5-6.2,5.2-6.4C5.4-6.6,5.7-6.9,6-7.1c0.3-0.2,0.6-0.4,0.9-0.5c0.3-0.1,0.7-0.1,1-0.1
			c0.3,0.1,0.5,0.1,0.8,0.3c0.2,0.1,0.4,0.3,0.7,0.5c0.2,0.2,0.4,0.3,0.7,0.6c0.2,0.2,0.5,0.5,0.7,0.7c0.7,0.7,1.4,1.4,2.1,2
			c0.7,0.7,1.4,1.4,2.1,2.1s1.4,1.4,2.1,2.1l2.1,2.1c0.1,0.1,0.3,0.3,0.4,0.5c0.2,0.3,0.3,0.7,0.3,1.1c0,0.2,0,0.4,0,0.6l0,0
			c-0.2,0.7-0.5,1.4-1,2c-0.5,0.6-1,1.1-1.6,1.6c-0.6,0.5-1.3,1-1.7,1.3c-0.2,0.1-0.3,0.2-0.5,0.3c-0.3,0.2-0.5,0.4-0.6,0.5
			c-0.2,0.2-0.4,0.3-0.7,0.5c-0.4,0.3-0.8,0.7-1.3,1c-0.7,0.5-1.3,1-2.1,1.4c-0.7,0.4-1.5,0.7-2.3,1C7.3,14.6,6.7,14.7,6.1,14.7
			L6.1,14.7z M-16.9-38.2c-0.2,0.1-0.4,0.2-0.6,0.3c-0.5,0.3-1,0.7-1.4,1.2c-0.4,0.4-0.9,0.8-1.4,1.4c-0.3,0.3-0.5,0.5-0.6,0.7
			c-0.1,0.1-0.2,0.2-0.2,0.2l-0.3,0.3c-0.4,0.4-0.8,0.9-1.2,1.3c-0.5,0.6-0.9,1.1-1.3,1.6c-0.4,0.5-0.7,1.1-1,1.7
			c-0.3,0.6-0.5,1.2-0.6,1.8c0,0.1,0,0.2,0,0.3c0,0.1,0,0.2,0,0.3s0,0.2,0,0.3s0,0.2,0,0.3c0,0.7,0,1.5,0.1,2.2
			c0.1,0.7,0.2,1.5,0.3,2.2c0.1,0.7,0.3,1.4,0.5,2.2c0.2,0.7,0.4,1.4,0.7,2.1c0.6,1.7,1.3,3.4,2,5c0.8,1.6,1.6,3.2,2.6,4.8
			c0.9,1.5,1.9,3,3,4.5c1.1,1.4,2.2,2.8,3.4,4.2c1.3,1.4,2.5,2.6,3.6,3.7C-8,5.5-6.7,6.7-5.2,7.8c1.4,1.1,2.9,2,4.5,2.8
			c1.5,0.8,3.1,1.4,4.8,1.7c0.1,0,0.2,0,0.3,0.1c0.1,0,0.2,0,0.3,0.1c0.1,0,0.2,0,0.3,0.1c0.1,0,0.2,0,0.3,0c0.7,0.1,1.3,0,2-0.1
			c0.6-0.2,1.3-0.4,1.8-0.7c0.6-0.4,1.3-0.8,1.8-1.2c0.4-0.3,0.8-0.6,1.2-1C12.6,9.4,12.8,9.2,13,9c0.2-0.1,0.4-0.3,0.7-0.5
			c0.1-0.1,0.3-0.2,0.5-0.3c0.4-0.3,1-0.7,1.6-1.2c0.5-0.4,1-0.9,1.4-1.3c0.3-0.3,0.5-0.6,0.6-1l0,0c0,0,0-0.1,0-0.1c0,0,0,0,0-0.1
			c0,0,0,0,0-0.1c0,0,0-0.1-0.1-0.1l-2.1-2.1c-0.7-0.7-1.4-1.4-2.1-2.1c-0.7-0.7-1.4-1.4-2.1-2.1c-0.7-0.7-1.4-1.4-2.1-2
			C9-4.4,8.7-4.6,8.5-4.8C8.3-5,8.1-5.2,8-5.3C7.9-5.4,7.8-5.5,7.6-5.5c0,0-0.1,0-0.1-0.1c0,0,0,0,0,0c-0.1,0-0.2,0.1-0.3,0.2
			C7-5.3,6.8-5.1,6.6-4.9C6.4-4.7,6.2-4.5,5.8-4.1C5.4-3.6,4.9-3.2,4.4-2.8C3.9-2.5,3.4-2.2,2.9-2c-0.5,0.2-1,0.3-1.6,0.3
			c-0.5,0-1.1,0-1.6-0.1c-0.2,0-0.4-0.1-0.5-0.1S-1.2-2-1.3-2.1s-0.3-0.1-0.5-0.2C-2-2.3-2.2-2.4-2.4-2.5c-1.5-0.7-2.8-1.6-4.1-2.6
			c-1.2-1-2.3-2.1-3.3-3.3c-1-1.2-1.8-2.6-2.5-4c-0.7-1.5-1.3-3-1.7-4.6c-0.1-0.3-0.2-0.6-0.2-1c-0.1-0.3-0.1-0.7-0.1-1
			c0-0.3,0-0.7,0-1c0-0.3,0.1-0.7,0.1-1c0-0.3,0.1-0.5,0.2-0.7c0.1-0.2,0.2-0.5,0.3-0.7c0.1-0.2,0.2-0.5,0.3-0.7
			c0.1-0.2,0.3-0.5,0.4-0.7c0.3-0.4,0.6-0.8,0.9-1.1c0.2-0.2,0.4-0.4,0.6-0.5c0.1-0.1,0.3-0.2,0.4-0.4c0.3-0.2,0.5-0.5,0.7-0.8
			c0.1-0.2,0.2-0.4,0.3-0.6c0-0.1,0-0.1,0-0.2c0-0.1,0-0.1,0-0.2c0-0.1,0-0.1-0.1-0.2c0-0.1-0.1-0.2-0.1-0.3
			c-0.6-0.9-1.1-1.8-1.7-2.6s-1.1-1.7-1.7-2.6c-0.6-0.9-1.1-1.7-1.7-2.6C-15.8-36.6-16.3-37.4-16.9-38.2L-16.9-38.2z"/>
	</g>
</g>
</svg>
